<svg width="48" height="48" viewBox="0 0 48 48" fill="none" xmlns="http://www.w3.org/2000/svg">
    <g clip-path="url(#clip0_1169_7761)">
        <path
            d="M44 0H4C1.79086 0 0 1.79086 0 4V44C0 46.2091 1.79086 48 4 48H44C46.2091 48 48 46.2091 48 44V4C48 1.79086 46.2091 0 44 0Z"
            fill="white" />
        <path
            d="M31.6743 34.558C31.6743 35.0618 31.4177 35.5942 30.8409 36.1324C30.2633 36.6714 29.4003 37.1797 28.2922 37.6171C26.0788 38.4907 22.9869 39.0419 19.5464 39.0419C16.1059 39.0419 13.014 38.4907 10.8007 37.6171C9.69248 37.1797 8.82952 36.6714 8.25194 36.1324C7.67513 35.5942 7.41846 35.0618 7.41846 34.558V28.8281H31.6743V34.558Z"
            fill="white" stroke="#333333" />
        <path
            d="M19.4492 33.7078C26.2952 33.7078 31.845 31.4831 31.845 28.7387V22.5273H7.05347V28.7387C7.05347 31.4831 12.6032 33.7078 19.4492 33.7078Z"
            fill="#D9D9D9" stroke="#333333" />
        <path
            d="M19.4492 27.8758C26.2952 27.8758 31.845 25.6511 31.845 22.9067V16.6953H7.05347V22.9067C7.05347 25.6511 12.6032 27.8758 19.4492 27.8758Z"
            fill="white" stroke="#333333" />
        <path
            d="M19.4492 22.042C26.2952 22.042 31.845 19.8173 31.845 17.0729V11.3477H7.05347V17.0729C7.05347 19.8173 12.6032 22.042 19.4492 22.042Z"
            fill="#D9D9D9" stroke="#333333" />
        <ellipse cx="19.449" cy="11.1041" rx="12.3958" ry="5.10414" fill="white" stroke="#333333" />
        <circle cx="31.9998" cy="32" r="8.5" fill="white" stroke="#333333" />
        <circle cx="4" cy="4" r="4" transform="matrix(-1 0 0 1 35.9998 26)" fill="white" stroke="#333333" />
        <mask id="path-9-inside-1_1169_7761" fill="white">
            <path fill-rule="evenodd" clip-rule="evenodd"
                d="M31.9998 33.5C32.2759 33.5 32.4998 33.7239 32.4998 34V35H33.4581C33.7342 35 33.9581 35.2239 33.9581 35.5C33.9581 35.7761 33.7342 36 33.4581 36H32.4998V36.5H33.4581C33.7342 36.5 33.9581 36.7239 33.9581 37C33.9581 37.2761 33.7342 37.5 33.4581 37.5H32.4998V37.8889C32.4998 38.165 32.2759 38.3889 31.9998 38.3889C31.7236 38.3889 31.4998 38.165 31.4998 37.8889V34C31.4998 33.7239 31.7236 33.5 31.9998 33.5Z" />
        </mask>
        <path fill-rule="evenodd" clip-rule="evenodd"
            d="M31.9998 33.5C32.2759 33.5 32.4998 33.7239 32.4998 34V35H33.4581C33.7342 35 33.9581 35.2239 33.9581 35.5C33.9581 35.7761 33.7342 36 33.4581 36H32.4998V36.5H33.4581C33.7342 36.5 33.9581 36.7239 33.9581 37C33.9581 37.2761 33.7342 37.5 33.4581 37.5H32.4998V37.8889C32.4998 38.165 32.2759 38.3889 31.9998 38.3889C31.7236 38.3889 31.4998 38.165 31.4998 37.8889V34C31.4998 33.7239 31.7236 33.5 31.9998 33.5Z"
            fill="#D9D9D9" />
        <path
            d="M32.4998 35H31.4998V36H32.4998V35ZM32.4998 36V35H31.4998V36H32.4998ZM32.4998 36.5H31.4998V37.5H32.4998V36.5ZM32.4998 37.5V36.5H31.4998V37.5H32.4998ZM33.4998 34C33.4998 33.1716 32.8282 32.5 31.9998 32.5V34.5C31.7236 34.5 31.4998 34.2761 31.4998 34H33.4998ZM33.4998 35V34H31.4998V35H33.4998ZM33.4581 34H32.4998V36H33.4581V34ZM34.9581 35.5C34.9581 34.6716 34.2865 34 33.4581 34V36C33.1819 36 32.9581 35.7761 32.9581 35.5H34.9581ZM33.4581 37C34.2865 37 34.9581 36.3284 34.9581 35.5H32.9581C32.9581 35.2239 33.1819 35 33.4581 35V37ZM32.4998 37H33.4581V35H32.4998V37ZM33.4998 36.5V36H31.4998V36.5H33.4998ZM32.4998 37.5H33.4581V35.5H32.4998V37.5ZM33.4581 37.5C33.1819 37.5 32.9581 37.2761 32.9581 37H34.9581C34.9581 36.1716 34.2865 35.5 33.4581 35.5V37.5ZM32.9581 37C32.9581 36.7239 33.1819 36.5 33.4581 36.5V38.5C34.2865 38.5 34.9581 37.8284 34.9581 37H32.9581ZM33.4581 36.5H32.4998V38.5H33.4581V36.5ZM33.4998 37.8889V37.5H31.4998V37.8889H33.4998ZM31.9998 39.3889C32.8282 39.3889 33.4998 38.7173 33.4998 37.8889H31.4998C31.4998 37.6127 31.7236 37.3889 31.9998 37.3889V39.3889ZM30.4998 37.8889C30.4998 38.7173 31.1713 39.3889 31.9998 39.3889V37.3889C32.2759 37.3889 32.4998 37.6127 32.4998 37.8889H30.4998ZM30.4998 34V37.8889H32.4998V34H30.4998ZM31.9998 32.5C31.1713 32.5 30.4998 33.1716 30.4998 34H32.4998C32.4998 34.2761 32.2759 34.5 31.9998 34.5V32.5Z"
            fill="#333333" mask="url(#path-9-inside-1_1169_7761)" />
        <path
            d="M31.9998 28C31.4024 28 30.8662 28.2619 30.4998 28.6771C30.1886 29.0297 29.9998 29.4928 29.9998 30C29.9998 31.1046 30.8952 32 31.9998 32C33.1043 32 33.9998 31.1046 33.9998 30C33.9998 29.4878 33.8072 29.0205 33.4905 28.6667L32.9998 29.6667"
            stroke="#333333" stroke-linecap="round" stroke-linejoin="round" />
    </g>
    <defs>
        <clipPath id="clip0_1169_7761">
            <rect width="48" height="48" fill="white" />
        </clipPath>
    </defs>
</svg>