<svg width="48" height="48" viewBox="0 0 48 48" fill="none" xmlns="http://www.w3.org/2000/svg">
    <g clip-path="url(#clip0_1169_7783)">
        <path
            d="M44 0H4C1.79086 0 0 1.79086 0 4V44C0 46.2091 1.79086 48 4 48H44C46.2091 48 48 46.2091 48 44V4C48 1.79086 46.2091 0 44 0Z"
            fill="white" />
        <circle cx="24.2749" cy="25.201" r="17.2644" stroke="#333333" />
        <path
            d="M24.7364 16.1854C24.4466 16.5929 24.4467 16.5929 24.4468 16.593L24.4469 16.5931L24.4473 16.5934L24.4485 16.5942L24.4521 16.5968L24.4647 16.6056C24.4755 16.6131 24.4909 16.6238 24.5109 16.6374C24.5509 16.6647 24.6091 16.7039 24.6843 16.7529C24.8345 16.8509 25.0529 16.9887 25.3297 17.1507C25.8827 17.4745 26.6719 17.897 27.6195 18.2933L27.6195 18.2933L27.6262 18.296C28.5701 18.675 29.5074 18.8758 30.2041 18.9823C30.5537 19.0358 30.8459 19.066 31.052 19.0829C31.1551 19.0913 31.2369 19.0965 31.2939 19.0995C31.3224 19.101 31.3447 19.1021 31.3603 19.1027L31.3787 19.1034L31.3841 19.1036L31.3858 19.1036L31.3864 19.1036L31.3867 19.1036C31.3868 19.1036 31.3869 19.1037 31.4012 18.6039L31.3869 19.1037L31.3941 19.1039H31.4012H31.6702V26.6826C31.6702 28.5204 30.4966 30.4958 28.9115 32.0429C28.1276 32.808 27.2643 33.4464 26.4394 33.8909C25.6056 34.3402 24.8508 34.57 24.2749 34.57C23.6991 34.57 22.9443 34.3402 22.1105 33.8909C21.2855 33.4464 20.4223 32.808 19.6383 32.0429C18.0533 30.4958 16.8796 28.5204 16.8796 26.6826V19.0524H17.1487V18.5524C17.1487 19.0524 17.1488 19.0524 17.1489 19.0524L17.1492 19.0524L17.1498 19.0524L17.1517 19.0524L17.1573 19.0524L17.1762 19.0522C17.1922 19.0519 17.2148 19.0515 17.2436 19.0507C17.3012 19.049 17.3838 19.0458 17.4877 19.0394C17.6954 19.0266 17.9894 19.0013 18.3411 18.9509C19.0414 18.8505 19.9835 18.6488 20.9327 18.2409C21.8793 17.8448 22.6676 17.4228 23.2202 17.0993C23.497 16.9372 23.7154 16.7995 23.8656 16.7014C23.9408 16.6524 23.999 16.6133 24.0389 16.586C24.0589 16.5723 24.0744 16.5616 24.0852 16.5541L24.0966 16.5461L24.2524 16.4419L24.4287 16.5795L24.4375 16.5864L24.4466 16.5929L24.7364 16.1854Z"
            fill="#D9D9D9" stroke="#333333" />
        <path fill-rule="evenodd" clip-rule="evenodd"
            d="M20.1231 24.5961C20.5086 24.2107 21.1334 24.2107 21.5189 24.5961L23.6124 26.6897L27.9426 22.3595C28.328 21.974 28.9529 21.974 29.3383 22.3595C29.7237 22.7449 29.7237 23.3697 29.3383 23.7552L24.3103 28.7832C23.9249 29.1686 23.3 29.1686 22.9146 28.7832L20.1231 25.9918C19.7377 25.6064 19.7377 24.9815 20.1231 24.5961Z"
            fill="white" stroke="#333333" stroke-linecap="round" stroke-linejoin="round" />
        <circle cx="24.275" cy="8.42324" r="3.44765" fill="white" stroke="#333333" />
        <circle cx="41.0524" cy="22.2396" r="3.44765" fill="white" stroke="#333333" />
        <circle cx="41.0524" cy="22.2404" r="1.47383" fill="#D9D9D9" stroke="#333333" />
        <circle cx="7.49746" cy="22.2396" r="3.44765" fill="white" stroke="#333333" />
        <circle cx="7.49726" cy="22.2404" r="1.47383" fill="#D9D9D9" stroke="#333333" />
        <circle cx="13.4188" cy="40.0043" r="3.44765" fill="white" stroke="#333333" />
        <circle cx="13.4187" cy="40.0041" r="1.47383" fill="#D9D9D9" stroke="#333333" />
        <circle cx="35.131" cy="40.0043" r="3.44765" fill="white" stroke="#333333" />
        <circle cx="35.1311" cy="40.0041" r="1.47383" fill="#D9D9D9" stroke="#333333" />
        <circle cx="24.2749" cy="8.42305" r="1.47383" fill="#D9D9D9" stroke="#333333" />
    </g>
    <defs>
        <clipPath id="clip0_1169_7783">
            <rect width="48" height="48" fill="white" />
        </clipPath>
    </defs>
</svg>