<svg width="80" height="80" viewBox="0 0 80 80" fill="none" xmlns="http://www.w3.org/2000/svg">
<path d="M11.5 20C11.5 16.9624 13.9624 14.5 17 14.5H39C42.0376 14.5 44.5 16.9624 44.5 20V68C44.5 71.0376 42.0376 73.5 39 73.5H17C13.9624 73.5 11.5 71.0376 11.5 68V20Z" fill="#F5F5F5" stroke="black"/>
<path d="M20.7342 17.5C20.887 17.5 21.1203 17.6647 21.1203 18.0122C21.1203 19.5654 22.2358 20.9415 23.7468 20.9415H32.2532C33.7642 20.9415 34.8797 19.5654 34.8797 18.0122C34.8797 17.6647 35.113 17.5 35.2658 17.5H38.8101C40.2353 17.5 41.5 18.843 41.5 20.644V67.356C41.5 69.157 40.2353 70.5 38.8101 70.5H17.1899C15.7647 70.5 14.5 69.157 14.5 67.356V20.644C14.5 18.843 15.7647 17.5 17.1899 17.5H20.7342Z" fill="#D9D9D9" stroke="black"/>
<path d="M29.5 11C29.5 7.96243 31.9624 5.5 35 5.5H63C66.0376 5.5 68.5 7.96243 68.5 11V68C68.5 71.0376 66.0376 73.5 63 73.5H35C31.9624 73.5 29.5 71.0376 29.5 68V11Z" fill="#F5F5F5" stroke="black"/>
<path d="M40.1772 8.5C40.4525 8.5 40.7532 8.76004 40.7532 9.18092C40.7532 10.9775 42.0904 12.5151 43.8354 12.5151H54.1646C55.9096 12.5151 57.2468 10.9775 57.2468 9.18092C57.2468 8.76004 57.5475 8.5 57.8228 8.5H62.1266C63.9469 8.5 65.5 10.1347 65.5 12.2513V66.7487C65.5 68.8653 63.9469 70.5 62.1266 70.5H35.8734C34.0531 70.5 32.5 68.8653 32.5 66.7487V12.2513C32.5 10.1347 34.0531 8.5 35.8734 8.5H40.1772Z" fill="white" stroke="black"/>
<path d="M52.2067 37.2829C53.7495 36.1448 54.7503 34.3143 54.7503 32.25C54.7503 28.7982 51.9521 26 48.5003 26C45.0485 26 42.2503 28.7982 42.2503 32.25C42.2503 34.2906 43.2282 36.1028 44.741 37.2435C40.5747 37.9834 37.1996 41.7249 36.1492 45.9495C35.4095 48.9242 37.5052 51 40.5548 51H54.0556H56.1744C59.2241 51 61.6037 48.9242 60.8641 45.9495C60.1608 43.1212 58.3138 40.5095 55.9051 38.87C54.7758 38.1012 53.523 37.5463 52.2067 37.2829Z" fill="white" stroke="#333333" stroke-linejoin="round"/>
<path d="M51 33C51 34.1895 49.8807 35 48.5 35C47.1193 35 46 34.1895 46 33" stroke="#333333" stroke-linecap="round" stroke-linejoin="round"/>
</svg>
