<svg width="48" height="48" viewBox="0 0 48 48" fill="none" xmlns="http://www.w3.org/2000/svg">
    <path
        d="M44 0H4C1.79086 0 0 1.79086 0 4V44C0 46.2091 1.79086 48 4 48H44C46.2091 48 48 46.2091 48 44V4C48 1.79086 46.2091 0 44 0Z"
        fill="white" />
    <path
        d="M36.5 22.25V10C36.5 8.34315 35.1568 7 33.5 7H12C10.3432 7 9 8.34315 9 10V36.5C9 38.1568 10.3432 39.5 12 39.5H24.25"
        stroke="#000" />
    <rect x="13.5" y="24.5" width="19" height="3" rx="1.5" fill="#D9D9D9" stroke="#000" />
    <rect x="13.5" y="18.5" width="19" height="3" rx="1.5" fill="#D9D9D9" stroke="#000" />
    <rect x="13.5" y="12.5" width="19" height="3" rx="1.5" fill="#D9D9D9" stroke="#000" />
    <path
        d="M15 30.5C14.1716 30.5 13.5 31.1716 13.5 32C13.5 32.8284 14.1716 33.5 15 33.5H18C18.8284 33.5 19.5 32.8284 19.5 32C19.5 31.1716 18.8284 30.5 18 30.5H15Z"
        fill="#D9D9D9" stroke="#000" />
    <path
        d="M27.7272 33.7246L24.8896 32.3972C22.9084 31.7799 21.7277 32.5029 21.1208 33.3476C20.8498 33.7247 21.0618 34.2152 21.4886 34.4118C23.5768 35.3737 29.355 38.0287 30.1398 38.3158C30.7956 38.614 32.0116 39.7474 33.059 41C37.0843 43.1473 39.3636 40.1053 40 38.3158C38.7617 36.9366 37.9363 35.8553 38.1885 33.9042C38.6013 30.7106 36.9843 26.8937 36.102 25.7568C35.0259 24.2966 33.7742 24.6571 33.2829 25.0199C32.7982 25.2929 32.5192 25.9666 32.5056 26.1161C31.5681 25.2101 30.6478 25.7598 30.2734 26.1983L30.0739 26.4699C29.4726 26.0868 28.7613 26.0167 28.0275 26.43L27.4316 26.7656L25.2826 23.3311C24.8121 22.5363 23.7703 22.264 22.9554 22.7229C22.1297 23.1879 21.856 24.2234 22.3482 25.0199L27.7272 33.7246Z"
        fill="white" />
    <path
        d="M27.4316 26.7656L25.2826 23.3311C24.8121 22.5363 23.7703 22.264 22.9554 22.7229C22.1297 23.1879 21.856 24.2234 22.3482 25.0199L27.7272 33.7246L24.8896 32.3972C22.9084 31.7799 21.7277 32.5029 21.1208 33.3476C20.8498 33.7247 21.0618 34.2152 21.4886 34.4118C23.5768 35.3737 29.355 38.0287 30.1398 38.3158C30.7956 38.614 32.0115 39.7474 33.059 41M27.4316 26.7656L28.6928 28.8964M27.4316 26.7656L28.0275 26.43C28.7613 26.0167 29.4726 26.0868 30.0739 26.4699M30.0739 26.4699C30.4612 26.7167 30.803 27.0933 31.0758 27.5543M30.0739 26.4699L30.2734 26.1983C30.6478 25.7598 31.5681 25.2101 32.5056 26.1161M32.5056 26.1161L32.8632 26.5477M32.5056 26.1161C32.5192 25.9666 32.7982 25.2929 33.2829 25.0199C33.7742 24.6571 35.0259 24.2966 36.102 25.7568C36.9843 26.8937 38.6013 30.7106 38.1885 33.9042C37.9363 35.8553 38.7617 36.9366 40 38.3158"
        stroke="#000" stroke-linecap="round" stroke-linejoin="round" />
</svg>