<svg width="48" height="48" viewBox="0 0 48 48" fill="none" xmlns="http://www.w3.org/2000/svg">
    <path
        d="M44 0H4C1.79086 0 0 1.79086 0 4V44C0 46.2091 1.79086 48 4 48H44C46.2091 48 48 46.2091 48 44V4C48 1.79086 46.2091 0 44 0Z"
        fill="white" />
    <path fill-rule="evenodd" clip-rule="evenodd"
        d="M12.4196 35.0514C12.0613 34.2083 11.9815 33.2018 12.26 32.0816C13.4387 27.3414 17.2257 23.1432 21.9006 22.313C20.2031 21.0331 19.1058 18.9997 19.1058 16.71C19.1058 12.9703 22.0331 9.91422 25.7214 9.70826C24.4382 8.06013 22.4352 7 20.1847 7C16.3116 7 13.1718 10.1398 13.1718 14.0128C13.1718 16.3025 14.2692 18.3359 15.9666 19.6158C11.2918 20.446 7.50472 24.6442 6.32608 29.3844C5.49616 32.7222 7.84764 35.0514 11.2695 35.0514H12.4196Z"
        fill="#D9D9D9" />
    <path
        d="M30.2773 22.3573C32.0084 21.0803 33.1314 19.0263 33.1314 16.7101C33.1314 12.837 29.9916 9.69727 26.1185 9.69727C22.2454 9.69727 19.1057 12.837 19.1057 16.7101C19.1057 18.9998 20.203 21.0332 21.9005 22.3131C17.2256 23.1433 13.4386 27.3414 12.2599 32.0817C11.43 35.4194 13.7815 37.7486 17.2033 37.7486H32.3518H34.7293C38.1512 37.7486 40.8213 35.4194 39.9914 32.0817C39.2023 28.9082 37.1298 25.9777 34.4272 24.1381C33.16 23.2755 31.7542 22.6528 30.2773 22.3573Z"
        fill="white" stroke="#000" stroke-linejoin="round" />
    <path
        d="M29.3552 17.25C29.3552 19.1751 27.9061 20.4867 26.1185 20.4867C24.331 20.4867 22.8818 19.1751 22.8818 17.25"
        stroke="#000" stroke-linecap="round" stroke-linejoin="round" />
    <path
        d="M42.8411 33.4331C42.8411 37.6042 39.4599 40.9854 35.2889 40.9854C31.1178 40.9854 27.7366 37.6042 27.7366 33.4331C27.7366 29.2621 31.1178 25.8809 35.2889 25.8809C39.4599 25.8809 42.8411 29.2621 42.8411 33.4331Z"
        fill="white" stroke="#000" stroke-linecap="round" stroke-linejoin="round" />
    <path
        d="M36.9073 30.1965C36.9073 31.0903 36.1828 31.8148 35.289 31.8148C34.3952 31.8148 33.6707 31.0903 33.6707 30.1965C33.6707 29.3027 34.3952 28.5781 35.289 28.5781C36.1828 28.5781 36.9073 29.3027 36.9073 30.1965Z"
        fill="#D9D9D9" stroke="#000" />
    <path
        d="M31.3521 35.3156C31.4455 34.8482 31.856 34.5117 32.3326 34.5117H38.2453C38.722 34.5117 39.1324 34.8482 39.2259 35.3156L39.3654 36.0128C39.4891 36.6316 39.0158 37.209 38.3848 37.209H32.1932C31.5621 37.209 31.0889 36.6316 31.2126 36.0128L31.3521 35.3156Z"
        stroke="#000" />
    <path fill-rule="evenodd" clip-rule="evenodd"
        d="M35.8287 34.5117L35.8287 31.8145L34.7498 31.8145L34.7498 34.5117L35.8287 34.5117Z" fill="#000" />
    <path
        d="M25.7128 9.69725C24.4292 8.05541 22.4302 7 20.1847 7C16.3116 7 13.1718 10.1398 13.1718 14.0128C13.1718 16.3025 14.2692 18.3359 15.9666 19.6158C11.2918 20.446 7.50472 24.6442 6.32608 29.3844C5.49616 32.7222 7.84764 35.0514 11.2695 35.0514H12.6321"
        stroke="#000" stroke-linejoin="round" />
</svg>