<svg width="96" height="96" viewBox="0 0 96 96" fill="none" xmlns="http://www.w3.org/2000/svg">
    <rect width="96" height="96" rx="8" fill="white" />
    <rect width="96" height="96" rx="8" fill="white" />
    <path
        d="M69.178 70.7475C69.178 71.9788 68.5477 73.2042 67.2954 74.3727C66.0423 75.542 64.2018 76.6181 61.8857 77.5322C57.2565 79.3592 50.8272 80.5002 43.7003 80.5002C36.5734 80.5002 30.1441 79.3592 25.5149 77.5322C23.1988 76.6181 21.3583 75.542 20.1052 74.3727C18.8529 73.2042 18.2227 71.9788 18.2227 70.7475V58.4316H69.178V70.7475Z"
        fill="white" stroke="#000" />
    <path d="M43.5 69C57.5833 69 69 64.4234 69 58.7778V46H18V58.7778C18 64.4234 29.4167 69 43.5 69Z" fill="#D9D9D9"
        stroke="#000" />
    <path d="M43.5 57C57.5833 57 69 52.4234 69 46.7778V34H18V46.7778C18 52.4234 29.4167 57 43.5 57Z" fill="white"
        stroke="#000" />
    <path d="M43.5 45C57.5833 45 69 40.4234 69 34.7778V23H18V34.7778C18 40.4234 29.4167 45 43.5 45Z" fill="#D9D9D9"
        stroke="#000" />
    <ellipse cx="43.5" cy="22.5" rx="25.5" ry="10.5" fill="white" stroke="#000" />
    <circle cx="70" cy="66" r="17.5" fill="white" stroke="#000" />
    <circle cx="8" cy="8" r="7.5" transform="matrix(-1 0 0 1 78 55)" fill="white" stroke="#000" />
    <path d="M70 71V79" stroke="#000" stroke-linecap="round" />
    <path
        d="M73 74.5C73.2761 74.5 73.5 74.2761 73.5 74C73.5 73.7239 73.2761 73.5 73 73.5V74.5ZM70 74.5H73V73.5H70V74.5Z"
        fill="#000" />
    <path
        d="M73 77.5C73.2761 77.5 73.5 77.2761 73.5 77C73.5 76.7239 73.2761 76.5 73 76.5V77.5ZM70 77.5H73V76.5H70V77.5Z"
        fill="#000" />
    <path
        d="M70 59C68.8053 59 67.7329 59.5238 67 60.3542C66.3776 61.0593 66 61.9856 66 63C66 65.2091 67.7909 67 70 67C72.2091 67 74 65.2091 74 63C74 61.9755 73.6149 61.041 72.9815 60.3333L72 62.3333"
        stroke="#000" stroke-linecap="round" stroke-linejoin="round" />
</svg>