<svg width="48" height="48" viewBox="0 0 48 48" fill="none" xmlns="http://www.w3.org/2000/svg">
    <path
        d="M44 0H4C1.79086 0 0 1.79086 0 4V44C0 46.2091 1.79086 48 4 48H44C46.2091 48 48 46.2091 48 44V4C48 1.79086 46.2091 0 44 0Z"
        fill="white" />
    <path
        d="M8.5 10C8.5 8.067 10.067 6.5 12 6.5H32.1818C34.1148 6.5 35.6818 8.067 35.6818 10V34.7273C35.6818 36.6603 34.1148 38.2273 32.1818 38.2273H12C10.067 38.2273 8.5 36.6603 8.5 34.7273V10Z"
        fill="white" stroke="#333333" />
    <path
        d="M14.5981 29.092L14.5982 25.5898H29.8181L29.8183 29.092C29.8183 30.7108 26.6888 32.0649 22.486 32.0649C18.2831 32.0649 14.5981 30.7108 14.5981 29.092Z"
        fill="white" stroke="#333333" />
    <path
        d="M14.5972 25.3754L14.5972 21.4229H29.8171L29.8173 25.3754C29.8173 26.9943 26.6878 28.3483 22.485 28.3483C18.2821 28.3483 14.5972 26.9943 14.5972 25.3754Z"
        fill="#D9D9D9" />
    <path
        d="M14.5972 21.4229L14.5972 25.3754C14.5972 26.9943 18.2821 28.3483 22.485 28.3483C26.6878 28.3483 29.8173 26.9943 29.8173 25.3754L29.8171 21.4229H14.3633"
        stroke="#333333" />
    <path
        d="M14.5981 21.5686L14.5982 18.0664H29.8181L29.8183 21.5686C29.8183 23.1874 26.6888 24.5414 22.486 24.5414C18.2831 24.5414 14.5981 23.1874 14.5981 21.5686Z"
        fill="white" stroke="#333333" />
    <path
        d="M14.5972 17.8523L14.5972 14.4062H29.8171L29.8173 17.8523C29.8173 19.4712 26.6878 20.8252 22.485 20.8252C18.2821 20.8252 14.5972 19.4712 14.5972 17.8523Z"
        fill="#D9D9D9" />
    <path
        d="M14.5972 14.4062L14.5972 17.8523C14.5972 19.4712 18.2821 20.8252 22.485 20.8252C26.6878 20.8252 29.8173 19.4712 29.8173 17.8523L29.8171 14.4062H14.3633"
        stroke="#333333" />
    <ellipse cx="22.2081" cy="14.229" rx="7.60996" ry="2.93117" fill="white" stroke="#333333" />
    <path
        d="M39.3636 35.3185C39.3636 38.4565 36.8198 41.0004 33.6818 41.0004C30.5438 41.0004 28 38.4565 28 35.3185C28 32.1806 30.5438 29.6367 33.6818 29.6367C36.8198 29.6367 39.3636 32.1806 39.3636 35.3185Z"
        fill="white" stroke="#333333" stroke-linecap="round" stroke-linejoin="round" />
    <path d="M31.1819 35.2628L32.7158 37.2056C32.8723 37.4038 33.1402 37.4178 33.3118 37.2367L36.6364 33.7275"
        stroke="#333333" stroke-linecap="round" stroke-linejoin="round" />
</svg>