<svg width="48" height="48" viewBox="0 0 48 48" fill="none" xmlns="http://www.w3.org/2000/svg">
    <path
        d="M44 0H4C1.79086 0 0 1.79086 0 4V44C0 46.2091 1.79086 48 4 48H44C46.2091 48 48 46.2091 48 44V4C48 1.79086 46.2091 0 44 0Z"
        fill="white" />
    <path
        d="M8.5 9C8.5 7.067 10.067 5.5 12 5.5H32C33.933 5.5 35.5 7.067 35.5 9V34C35.5 35.933 33.933 37.5 32 37.5H12C10.067 37.5 8.5 35.933 8.5 34V9Z"
        fill="white" stroke="#333333" />
    <rect x="12.5" y="22.5" width="19" height="3" rx="1.5" fill="#D9D9D9" stroke="#333333" />
    <rect x="12.5" y="16.5" width="19" height="3" rx="1.5" fill="#D9D9D9" stroke="#333333" />
    <rect x="12.5" y="10.5" width="19" height="3" rx="1.5" fill="#D9D9D9" stroke="#333333" />
    <rect x="12.5" y="28.5" width="10" height="3" rx="1.5" fill="#D9D9D9" stroke="#333333" />
    <path
        d="M33.9993 42C38.1414 42 41.4992 38.6422 41.4992 34.5C41.4992 30.3579 38.1414 27 33.9993 27C29.8572 27 26.4993 30.3579 26.4993 34.5C26.4993 35.8675 26.8653 37.1495 27.5046 38.2534C27.6202 38.453 27.5992 38.7065 27.4411 38.8744L25.371 41.0739C25.0597 41.4047 25.3152 41.9457 25.7684 41.9154L31.2998 41.5467C31.3698 41.542 31.4399 41.5524 31.5062 41.5757C32.2862 41.8505 33.1253 42 33.9993 42Z"
        fill="white" stroke="#333333" />
    <path d="M42.9999 33C42.9999 28.5817 38.9705 25 33.9999 25C29.0294 25 25 28.5817 25 33" stroke="#333333" />
    <path d="M37.5004 35.75C37.5004 37.683 35.9334 39 34.0005 39C32.0675 39 30.5005 37.683 30.5005 35.75"
        stroke="#333333" stroke-linecap="round" stroke-linejoin="round" />
    <path
        d="M29.2498 40.3005C28.6501 39.7971 28.1279 39.1922 27.7043 38.5001C27.5707 38.2817 27.4398 38.0938 27.3193 37.8975"
        stroke="#333333" stroke-linecap="round" stroke-linejoin="round" />
    <rect x="30.0005" y="31.999" width="0.999993" height="2.00001" rx="0.499996" fill="#333333" />
    <rect x="24.5" y="32" width="1.49998" height="4.00002" rx="0.749991" fill="#D9D9D9" stroke="#333333" />
    <rect x="42" y="32" width="1.49998" height="4.00002" rx="0.749991" fill="#D9D9D9" stroke="#333333" />
    <rect x="37" y="31.999" width="0.999993" height="2.00001" rx="0.499996" fill="#333333" />
</svg>