<svg width="20" height="13" viewBox="0 0 20 13" fill="none" xmlns="http://www.w3.org/2000/svg">
<path fill-rule="evenodd" clip-rule="evenodd" d="M0 1.5C0 0.947715 0.447715 0.5 1 0.5H19C19.5523 0.5 20 0.947715 20 1.5C20 2.05228 19.5523 2.5 19 2.5H1C0.447715 2.5 0 2.05228 0 1.5ZM0 6.5C0 5.94772 0.447715 5.5 1 5.5H19C19.5523 5.5 20 5.94772 20 6.5C20 7.05228 19.5523 7.5 19 7.5H1C0.447715 7.5 0 7.05228 0 6.5ZM1 10.5C0.447715 10.5 0 10.9477 0 11.5C0 12.0523 0.447715 12.5 1 12.5H19C19.5523 12.5 20 12.0523 20 11.5C20 10.9477 19.5523 10.5 19 10.5H1Z" fill="white"/>
</svg>
