<svg width="24" height="22" viewBox="0 0 24 22" fill="none" xmlns="http://www.w3.org/2000/svg">
<path d="M23.6666 10.4167C23.6666 8.78341 22.3833 7.50008 20.7499 7.50008C20.0499 7.50008 19.3499 7.73341 18.8833 8.20008C17.1333 7.15008 15.0333 6.45008 12.5833 6.33341L13.8666 1.66674L17.8333 2.83341C17.8333 4.11674 18.8833 5.16674 20.1666 5.16674C21.4499 5.16674 22.4999 4.11674 22.4999 2.83341C22.4999 1.55007 21.4499 0.500075 20.1666 0.500075C19.3499 0.500075 18.5333 0.966742 18.1833 1.66674L13.5166 0.500075C13.1666 0.383408 12.9333 0.616742 12.8166 0.966742L11.4166 6.33341C9.08325 6.45008 6.86659 7.15008 5.11659 8.20008C4.64992 7.73341 3.94992 7.50008 3.24992 7.50008C1.61659 7.50008 0.333252 8.78341 0.333252 10.4167C0.333252 11.4667 0.799919 12.2834 1.61659 12.8667L1.49992 13.9167C1.49992 18.1167 6.16659 21.5001 11.9999 21.5001C17.8333 21.5001 22.4999 18.1167 22.4999 13.9167L22.3833 12.8667C23.1999 12.2834 23.6666 11.4667 23.6666 10.4167ZM8.49992 10.7667C9.31659 10.7667 9.89992 11.4667 9.89992 12.1667C9.89992 12.8667 9.31659 13.5667 8.49992 13.5667C7.68325 13.5667 7.09992 12.9834 7.09992 12.1667C7.09992 11.3501 7.68325 10.7667 8.49992 10.7667ZM16.4333 17.0667C14.3333 18.3501 9.66659 18.3501 7.56659 17.0667C7.33325 16.8334 7.21659 16.4834 7.44992 16.2501C7.68325 16.0167 8.03325 15.9001 8.26659 16.1334C9.66659 17.1834 14.3333 17.1834 15.7333 16.1334C15.9666 15.9001 16.3166 16.0167 16.5499 16.2501C16.7833 16.4834 16.6666 16.8334 16.4333 17.0667ZM15.4999 13.5667C14.6833 13.5667 14.0999 12.8667 14.0999 12.1667C14.0999 11.3501 14.7999 10.7667 15.4999 10.7667C16.3166 10.7667 16.8999 11.4667 16.8999 12.1667C16.8999 12.9834 16.3166 13.5667 15.4999 13.5667Z" fill="#363C40"/>
</svg>
