<svg width="90" height="90" viewBox="0 0 90 90" fill="none" xmlns="http://www.w3.org/2000/svg">
<circle cx="45" cy="45" r="45" fill="#EEF2F8"/>
<path fill-rule="evenodd" clip-rule="evenodd" d="M45 65C56.0457 65 65 56.0457 65 45C65 33.9543 56.0457 25 45 25C33.9543 25 25 33.9543 25 45C25 56.0457 33.9543 65 45 65Z" stroke="#C5CEDF" stroke-width="3"/>
<path d="M65 45H25" stroke="#C5CEDF" stroke-width="3"/>
<path fill-rule="evenodd" clip-rule="evenodd" d="M45 65C48.866 65 52 56.0457 52 45C52 33.9543 48.866 25 45 25C41.134 25 38 33.9543 38 45C38 56.0457 41.134 65 45 65Z" stroke="#C5CEDF" stroke-width="3"/>
</svg>
