<?xml version="1.0" encoding="utf-8"?>
<!-- Generator: Adobe Illustrator 23.0.1, SVG Export Plug-In . SVG Version: 6.00 Build 0)  -->
<svg version="1.1" id="Слой_1" xmlns="http://www.w3.org/2000/svg" xmlns:xlink="http://www.w3.org/1999/xlink" x="0px" y="0px"
	 viewBox="0 0 287.8 353.5" style="enable-background:new 0 0 287.8 353.5;" xml:space="preserve">
<style type="text/css">
	.st0{fill:#A42EFF;}
	.st1{fill:#FFF200;}
	.st2{fill:#21DFF3;}
	.st3{fill:#FF0078;}
	.st4{fill:none;stroke:#000000;stroke-width:24.8764;stroke-linejoin:round;stroke-miterlimit:10;}
</style>
<path class="st0" d="M12.4,258.9l131.6-82l-0.2,164.3L12.4,258.9z"/>
<path class="st1" d="M275.4,94.6l-131.5,82.2v164.3l131.5-82.2V94.6z"/>
<path class="st2" d="M143.9,176.8L12.4,258.9V94.6l131.5-82.2V176.8z"/>
<path class="st3" d="M275.4,94.6l-131.5,82.2L12.4,94.6l131.5-82.2L275.4,94.6z"/>
<path class="st4" d="M12.4,94.6l131.5-82.2l131.5,82.2v164.3l-131.5,82.2L12.4,258.9l131.5-82.2L12.4,94.6z M12.4,94.6v164.3
	l131.5-82.2"/>
<path class="st4" d="M143.9,341.1V176.8l131.5-82.2"/>
</svg>
