<svg width="90" height="90" viewBox="0 0 90 90" fill="none" xmlns="http://www.w3.org/2000/svg">
<path d="M45 90C20.1472 90 0 69.8528 0 45C0 20.1472 20.1472 0 45 0C69.8528 0 90 20.1472 90 45C90 69.8528 69.8528 90 45 90Z" fill="#EEF2F8"/>
<path d="M49.0898 28.8363C49.8725 28.6185 50.671 28.4982 51.4407 28.5C55.1745 28.5089 59.585 31.3508 59.585 34.2928C59.585 38.6572 59.585 42.7917 59.585 42.7917C59.585 45.3128 58.7687 47.406 57.1363 49.0713C57.1034 49.1049 57.0744 49.1419 57.0499 49.1817C56.8675 49.4783 56.9682 49.8617 57.2749 50.0382L63.929 53.8652C64.9081 54.4283 65.5081 55.4483 65.5081 56.5497V57.6367C65.5081 59.218 64.1821 60.5 62.5465 60.5H58.3734" stroke="#C5CEDF" stroke-width="3" stroke-linecap="round"/>
<path fill-rule="evenodd" clip-rule="evenodd" d="M44.0111 49.8962C43.7779 49.7615 43.7407 49.4318 43.9247 49.2351C44.741 48.3621 46.5555 46.0547 46.5555 42.7917V34.2928C46.5555 31.3508 42.1661 28.5089 38.4502 28.5C34.7343 28.4911 30.3449 31.3556 30.3449 34.2928C30.3449 34.2928 30.3449 42.846 30.3449 42.7917C30.3449 45.4997 32.3346 48.2722 33.1115 49.2514C33.2659 49.446 33.2151 49.7371 32.9997 49.8608L25.4337 54.2082C24.8253 54.5578 24.4502 55.206 24.4502 55.9076V58.54C24.4502 59.6225 25.3277 60.5 26.4102 60.5H50.4902C51.5727 60.5 52.4502 59.6225 52.4502 58.54V55.9044C52.4502 55.2044 52.0769 54.5576 51.4709 54.2074L44.0111 49.8962Z" stroke="#C5CEDF" stroke-width="3"/>
</svg>
