<svg width="20" height="20" viewBox="0 0 20 20" fill="none" xmlns="http://www.w3.org/2000/svg">
<path fill-rule="evenodd" clip-rule="evenodd" d="M2 10.9231C0.89543 10.9231 0 11.8185 0 12.9231V18C0 19.1046 0.895429 20 2 20H7.07692C8.18149 20 9.07692 19.1046 9.07692 18V12.9231C9.07692 11.8185 8.18149 10.9231 7.07692 10.9231H2ZM2 14C2 13.4477 2.44772 13 3 13H6C6.55228 13 7 13.4477 7 14V17C7 17.5523 6.55228 18 6 18H3C2.44772 18 2 17.5523 2 17V14ZM2 0C0.89543 0 0 0.895429 0 2V7.07692C0 8.18149 0.895429 9.07692 2 9.07692H7.07692C8.18149 9.07692 9.07692 8.18149 9.07692 7.07692V2C9.07692 0.89543 8.18149 0 7.07692 0H2ZM2 3C2 2.44772 2.44772 2 3 2H6C6.55228 2 7 2.44772 7 3V6C7 6.55228 6.55228 7 6 7H3C2.44772 7 2 6.55228 2 6V3ZM12.9231 0C11.8185 0 10.9231 0.895429 10.9231 2V7.07692C10.9231 8.18149 11.8185 9.07692 12.9231 9.07692H18C19.1046 9.07692 20 8.18149 20 7.07692V2C20 0.89543 19.1046 0 18 0H12.9231ZM13 3C13 2.44772 13.4477 2 14 2H17C17.5523 2 18 2.44772 18 3V6C18 6.55228 17.5523 7 17 7H14C13.4477 7 13 6.55228 13 6V3ZM19 11C18.4477 11 18 11.4477 18 12V19C18 19.5523 18.4477 20 19 20C19.5523 20 20 19.5523 20 19V12C20 11.4477 19.5523 11 19 11ZM14.5 12C14.5 11.4477 14.9477 11 15.5 11C16.0523 11 16.5 11.4477 16.5 12V19C16.5 19.5523 16.0523 20 15.5 20C14.9477 20 14.5 19.5523 14.5 19V12ZM12 11C11.4477 11 11 11.4477 11 12V19C11 19.5523 11.4477 20 12 20C12.5523 20 13 19.5523 13 19V12C13 11.4477 12.5523 11 12 11Z" fill="#222222" fill-opacity="0.4"/>
</svg>
