<svg width="16" height="16" viewBox="0 0 16 16" fill="none" xmlns="http://www.w3.org/2000/svg">
<rect x="2.28577" y="3.42859" width="11.4286" height="10.2857" rx="2" fill="#3D75E3"/>
<path fill-rule="evenodd" clip-rule="evenodd" d="M5.96386 1.38173L8.27094 3.68881C8.58948 4.00735 8.58948 4.52381 8.27094 4.84235C7.9524 5.16089 7.43594 5.16089 7.1174 4.84235L4.81032 2.53527C4.49178 2.21673 4.49178 1.70027 4.81032 1.38173C5.12886 1.06319 5.64532 1.06319 5.96386 1.38173ZM10.0529 1.38173C10.3715 1.06319 10.8879 1.06319 11.2065 1.38173C11.525 1.70027 11.525 2.21673 11.2065 2.53527L8.89938 4.84235C8.58084 5.16089 8.06438 5.16089 7.74584 4.84235C7.4273 4.52381 7.4273 4.00735 7.74584 3.68881L10.0529 1.38173Z" fill="#3D75E3"/>
<rect x="6.85718" y="3.42859" width="2.28571" height="1.14286" fill="#3D75E3"/>
<path fill-rule="evenodd" clip-rule="evenodd" d="M0 6.71423C0 6.16195 0.447715 5.71423 1 5.71423H2.28571L3.42857 11.4285H1C0.447715 11.4285 0 10.9808 0 10.4285V6.71423Z" fill="#3D75E3"/>
<path fill-rule="evenodd" clip-rule="evenodd" d="M13.7143 5.71423H15C15.5523 5.71423 16 6.16195 16 6.71423V10.4285C16 10.9808 15.5523 11.4285 15 11.4285H12.5714L13.7143 5.71423Z" fill="#3D75E3"/>
<rect x="4.57141" y="6.85706" width="2.28571" height="3.42857" rx="1" fill="white"/>
<rect x="9.14282" y="6.85706" width="2.28571" height="3.42857" rx="1" fill="white"/>
</svg>
