<svg width="90" height="90" viewBox="0 0 90 90" fill="none" xmlns="http://www.w3.org/2000/svg">
<circle cx="45" cy="45" r="45" fill="#EEF2F8"/>
<path fill-rule="evenodd" clip-rule="evenodd" d="M50.9293 50.7168C50.6945 50.5823 50.6582 50.2497 50.8445 50.0535C51.7085 49.1435 53.6845 46.6803 53.6845 43.1849V34.1548C53.6845 31.029 48.9815 28.0095 45.0002 28C41.019 27.9906 36.316 31.0341 36.316 34.1548C36.316 34.1548 36.316 43.2426 36.316 43.1849C36.316 46.0817 38.4769 49.0478 39.297 50.0693C39.4533 50.264 39.4029 50.5577 39.186 50.6813L30.9899 55.3515C30.378 55.7001 30.0002 56.3502 30.0002 57.0545V60.04C30.0002 61.1225 30.8778 62 31.9602 62H58.0402C59.1227 62 60.0002 61.1225 60.0002 60.04V57.0512C60.0002 56.3487 59.6243 55.7 59.0148 55.3507L50.9293 50.7168Z" stroke="#C5CEDF" stroke-width="3"/>
</svg>
