<svg width="24" height="24" viewBox="0 0 24 24" fill="none" xmlns="http://www.w3.org/2000/svg">
    <path
        d="M19 2.5H5C3.34315 2.5 2 3.84315 2 5.5V15.5C2 17.1569 3.34315 18.5 5 18.5H9.27273L11.2112 20.9877C11.6116 21.5015 12.3884 21.5015 12.7888 20.9877L14.7273 18.5H19C20.6569 18.5 22 17.1569 22 15.5V5.5C22 3.84315 20.6569 2.5 19 2.5Z"
        stroke="#000" stroke-linejoin="round" />
    <rect x="7" y="9" width="1" height="4" rx="0.5" fill="#000" />
    <path
        d="M11.5 9.5C11.5 9.22386 11.7239 9 12 9V9C12.2761 9 12.5 9.22386 12.5 9.5V12.5C12.5 12.7761 12.2761 13 12 13V13C11.7239 13 11.5 12.7761 11.5 12.5V9.5Z"
        fill="#000" />
    <rect x="16" y="9" width="1" height="4" rx="0.5" fill="#000" />
</svg>