<svg width="42" height="42" viewBox="0 0 42 42" fill="none" xmlns="http://www.w3.org/2000/svg">
<path d="M42 21C42 32.598 32.598 42 21 42C9.40202 42 0 32.598 0 21C0 9.40202 9.40202 0 21 0C32.598 0 42 9.40202 42 21Z" fill="#F7931A"/>
<path d="M27 21C27 24.3137 24.3137 27 21 27C17.6863 27 15 24.3137 15 21C15 17.6863 17.6863 15 21 15C24.3137 15 27 17.6863 27 21Z" fill="white"/>
<path d="M34.3563 10.0552L29.6897 12.0713C29.4161 12.2153 29.2391 12.5033 29.2391 12.8234V29.1926C29.2391 29.4967 29.4161 29.8007 29.6897 29.9447L34.3563 31.9448C34.646 32.1049 35 31.8968 35 31.5768V10.4232C35 10.1032 34.646 9.89515 34.3563 10.0552ZM12.1816 12.0713L7.64368 10.0552C7.35402 9.89515 7 10.1032 7 10.4232V31.5608C7 31.8968 7.37012 32.1049 7.65977 31.9288L12.2299 29.5767C12.4874 29.4166 12.6322 29.1446 12.6322 28.8566V12.8234C12.6322 12.5194 12.4552 12.2313 12.1816 12.0713Z" fill="white"/>
<path d="M23.9014 20.3953C23.8115 20.9402 23.52 21.2653 23.0269 21.3708C23.3456 21.5437 23.5601 21.7621 23.6702 22.0261C23.7805 22.2901 23.7623 22.6198 23.6159 23.015C23.54 23.2167 23.4438 23.3863 23.3274 23.5239C23.211 23.6615 23.0823 23.7662 22.9414 23.8378C22.8006 23.9095 22.6365 23.957 22.4493 23.9803C22.2621 24.0036 22.0718 24.0065 21.8784 23.989C21.6849 23.9716 21.4673 23.9367 21.2255 23.8844L20.9266 25L20.2541 24.8198L20.5484 23.7217C20.3155 23.6593 20.1383 23.6103 20.0169 23.5746L19.7215 24.6771L19.0491 24.4969L19.348 23.3813C19.2956 23.3673 19.2172 23.3455 19.1128 23.3159C19.0084 23.2864 18.9286 23.2642 18.8733 23.2494L18 23.0154L18.3499 22.2511L18.8346 22.3809C18.9801 22.4199 19.0845 22.3682 19.1476 22.2257L19.9565 19.207C19.9718 18.9985 19.8688 18.8646 19.6476 18.8053L19.1629 18.6755L19.3551 17.958L20.2796 18.2104C20.4659 18.2603 20.6075 18.2967 20.7044 18.3195L20.9998 17.217L21.6722 17.3972L21.3826 18.4778C21.6229 18.5359 21.8013 18.5806 21.9177 18.6118L22.2049 17.5399L22.8773 17.7201L22.5819 18.8226C22.8064 18.9046 23.0014 18.992 23.1668 19.0848C23.3323 19.1776 23.4792 19.2873 23.6075 19.4139C23.7358 19.5405 23.8254 19.6864 23.8763 19.8516C23.9271 20.0169 23.9355 20.1981 23.9014 20.3953ZM22.3237 22.5281C22.3518 22.4231 22.355 22.3239 22.3332 22.2305C22.3114 22.1372 22.2756 22.0556 22.2256 21.986C22.1756 21.9163 22.1039 21.8494 22.0103 21.7853C21.9168 21.7211 21.8287 21.6686 21.746 21.6277C21.6634 21.5868 21.5592 21.5448 21.4335 21.5018C21.3077 21.4587 21.2085 21.4274 21.1357 21.4079C21.0629 21.3884 20.9687 21.3647 20.8529 21.3368C20.7371 21.3089 20.6676 21.2919 20.6443 21.2857L20.2481 22.7644C20.2714 22.7706 20.3251 22.7858 20.409 22.8099C20.4931 22.8339 20.5627 22.8534 20.618 22.8682C20.6734 22.8831 20.7511 22.9015 20.8512 22.9237C20.9513 22.9459 21.038 22.9628 21.1113 22.9747C21.1846 22.9865 21.2708 22.9963 21.3702 23.0041C21.4695 23.012 21.5557 23.0132 21.6289 23.0078C21.7021 23.0024 21.7795 22.9903 21.8609 22.9715C21.9424 22.9527 22.0116 22.9243 22.0686 22.8865C22.1255 22.8486 22.1768 22.7998 22.2224 22.7401C22.268 22.6804 22.3018 22.6098 22.3237 22.5281ZM22.5717 20.3625C22.5975 20.2663 22.6022 20.1761 22.5857 20.092C22.5692 20.0078 22.5412 19.9347 22.5018 19.8725C22.4623 19.8103 22.4033 19.7508 22.325 19.6938C22.2467 19.6369 22.1731 19.5914 22.1042 19.5573C22.0354 19.5232 21.949 19.4875 21.8451 19.4503C21.7412 19.4131 21.6577 19.3868 21.5948 19.3715C21.5318 19.3562 21.4528 19.3366 21.3578 19.3127C21.2628 19.2888 21.2051 19.2742 21.1848 19.2687L20.8249 20.6118C20.8394 20.6157 20.8895 20.6299 20.9749 20.6544C21.0604 20.6789 21.1281 20.697 21.1779 20.7088C21.2278 20.7206 21.3014 20.7372 21.3986 20.7586C21.4958 20.7799 21.578 20.7933 21.6452 20.7988C21.7124 20.8043 21.7916 20.8084 21.883 20.8109C21.9743 20.8135 22.0521 20.8055 22.1164 20.7867C22.1807 20.768 22.2451 20.7431 22.3096 20.7119C22.3741 20.6808 22.4285 20.6351 22.4726 20.5751C22.5167 20.515 22.5498 20.4442 22.5717 20.3625Z" fill="#F7931A"/>
</svg>
