<svg width="42" height="42" viewBox="0 0 42 42" fill="none" xmlns="http://www.w3.org/2000/svg">
    <path fill-rule="evenodd" clip-rule="evenodd"
        d="M21 42C32.598 42 42 32.598 42 21C42 9.40202 32.598 0 21 0C9.40202 0 0 9.40202 0 21C0 32.598 9.40202 42 21 42Z"
        fill="#F1A244" />
    <path fill-rule="evenodd" clip-rule="evenodd"
        d="M24.0413 30.4086C28.0334 30.4421 30.5137 27.8259 30.7098 24.8447C30.8781 22.2861 28.7586 20.6869 26.9965 20.6757C28.1709 20.0993 28.7313 18.6301 28.7586 17.1923C28.7905 15.5087 27.9092 13.5685 26.1241 12.5471C24.8671 11.8279 23.2611 11.5971 23.2611 11.5971V9.01008L20.9776 9L20.9809 11.5971H19.0388L19.0355 9H16.7404V11.5971H13.1939V14.8416H14.933C15.4162 14.8416 15.808 15.2334 15.808 15.7166V26.3074C15.808 26.7906 15.4162 27.1824 14.933 27.1824H13.2054L12.5469 30.4086H16.7404V33H19.0355L19.0388 30.4086H20.9776L20.9809 33H23.2611V30.4086C23.2611 30.4086 23.9737 30.408 24.0413 30.4086ZM25.5216 24.7929C25.5216 26.689 23.6684 27.163 22.6319 27.163H19.0352V22.4229C19.0352 22.4229 21.6613 22.4307 22.191 22.4229C24.595 22.3873 25.5216 23.8449 25.5216 24.7929ZM22.3274 19.3796H19.0352V14.8387H20.3424C22.449 14.7929 24.595 15.3127 24.595 17.2087C24.595 18.1568 24.1317 18.9056 22.8668 19.2841C22.6893 19.3373 22.3274 19.3796 22.3274 19.3796Z"
        fill="white" />
</svg>