<svg width="42" height="42" viewBox="0 0 42 42" fill="none" xmlns="http://www.w3.org/2000/svg">
    <path fill-rule="evenodd" clip-rule="evenodd"
        d="M21 42C32.598 42 42 32.598 42 21C42 9.40202 32.598 0 21 0C9.40202 0 0 9.40202 0 21C0 32.598 9.40202 42 21 42Z"
        fill="#3260E6" />
    <path fill-rule="evenodd" clip-rule="evenodd" d="M20.7291 33.8443L12.4297 22.1055L20.7291 26.9636V33.8443Z"
        fill="white" />
    <path fill-rule="evenodd" clip-rule="evenodd" d="M20.727 26.3117L12.3711 21.4182L20.727 17.7578V26.3117Z"
        fill="white" />
    <path fill-rule="evenodd" clip-rule="evenodd" d="M20.7272 17.1702L12.6406 20.7124L20.7272 7.12695V17.1702Z"
        fill="white" />
    <path fill-rule="evenodd" clip-rule="evenodd" d="M21.2656 7.12305L29.4652 20.7636L21.2656 17.1703V7.12305Z"
        fill="white" />
    <path fill-rule="evenodd" clip-rule="evenodd" d="M21.2656 33.8443V26.9636L29.5637 22.1055L21.2656 33.8443Z"
        fill="white" />
    <path fill-rule="evenodd" clip-rule="evenodd" d="M21.2656 26.3117V17.7578L29.6267 21.4208L21.2656 26.3117Z"
        fill="white" />
</svg>