<svg width="42" height="42" viewBox="0 0 42 42" fill="none" xmlns="http://www.w3.org/2000/svg">
<path d="M42 21C42 32.598 32.598 42 21 42C9.40202 42 0 32.598 0 21C0 9.40202 9.40202 0 21 0C32.598 0 42 9.40202 42 21Z" fill="#19C0FC"/>
<path d="M31.9582 12.0218L28.1438 13.6757C27.9202 13.7938 27.7755 14.0301 27.7755 14.2926V27.7205C27.7755 27.9699 27.9202 28.2193 28.1438 28.3374L31.9582 29.9782C32.195 30.1094 32.4844 29.9388 32.4844 29.6763V12.3237C32.4844 12.0612 32.195 11.8906 31.9582 12.0218ZM13.833 13.6757L10.1238 12.0218C9.88703 11.8906 9.59766 12.0612 9.59766 12.3237V29.6632C9.59766 29.9388 9.90018 30.1094 10.1369 29.9651L13.8725 28.0355C14.0829 27.9043 14.2013 27.6811 14.2013 27.4449V14.2926C14.2013 14.0432 14.0566 13.8069 13.833 13.6757ZM25.2895 18.2829L21.3304 16.0121C21.1199 15.894 20.8437 15.894 20.6333 16.0121L16.661 18.2829C16.4374 18.4011 16.3058 18.6373 16.3058 18.8867V23.4414C16.3058 23.6908 16.4374 23.9271 16.661 24.0452L20.6333 26.316C20.8437 26.4342 21.1199 26.4342 21.3304 26.316L25.2895 24.0452C25.5 23.9271 25.6447 23.6908 25.6447 23.4414V18.8867C25.6447 18.6373 25.5131 18.4011 25.2895 18.2829Z" fill="white"/>
</svg>
