<svg width="42" height="42" viewBox="0 0 42 42" fill="none" xmlns="http://www.w3.org/2000/svg">
<path d="M42 21C42 32.598 32.598 42 21 42C9.40202 42 0 32.598 0 21C0 9.40202 9.40202 0 21 0C32.598 0 42 9.40202 42 21Z" fill="#26A17B"/>
<path fill-rule="evenodd" clip-rule="evenodd" d="M27.8828 13.6367H13.6094V17.082H18.6953V19.6691C14.291 19.8651 10.9844 20.6927 10.9844 21.6833C10.9844 22.8199 15.3365 23.8088 20.7051 23.8088C26.0737 23.8088 30.4258 22.8199 30.4258 21.6832C30.4258 20.6985 27.1601 19.8754 22.7969 19.6728V17.082H27.8828V13.6367ZM18.6953 19.994V22.5676C19.3967 22.6057 20.113 22.6262 20.8212 22.6262C21.477 22.6262 22.1421 22.608 22.7969 22.574V19.9948C26.6971 20.1633 29.442 20.7998 29.442 21.5099C29.442 22.3394 24.9119 23.0685 20.7392 23.0685C16.4927 23.0685 11.9682 22.3395 11.9682 21.5099C11.9682 20.7987 14.7715 20.1614 18.6953 19.994ZM20.7871 24.1868C21.4756 24.1868 22.1478 24.1707 22.7969 24.1402V31.6844H18.6953V24.1362C19.3697 24.1693 20.0696 24.1868 20.7871 24.1868Z" fill="white"/>
</svg>
