<svg width="42" height="42" viewBox="0 0 42 42" fill="none" xmlns="http://www.w3.org/2000/svg">
<path d="M42 21C42 32.598 32.598 42 21 42C9.40202 42 0 32.598 0 21C0 9.40202 9.40202 0 21 0C32.598 0 42 9.40202 42 21Z" fill="#275CDC"/>
<path fill-rule="evenodd" clip-rule="evenodd" d="M21 36C29.2843 36 36 29.2843 36 21C36 12.7157 29.2843 6 21 6C12.7157 6 6 12.7157 6 21C6 29.2843 12.7157 36 21 36ZM32.2038 26.0503C30.2775 30.317 25.9855 33.2864 21 33.2864C14.2144 33.2864 8.71357 27.7856 8.71357 21C8.71357 20.333 8.76672 19.6784 8.86902 19.0402H24.3198C24.7194 19.6314 25.396 20.0201 26.1633 20.0201C27.3914 20.0201 28.3869 19.0246 28.3869 17.7965C28.3869 16.5684 27.3914 15.5729 26.1633 15.5729C25.396 15.5729 24.7194 15.9615 24.3198 16.5528H9.54314C11.3251 11.9654 15.7828 8.71357 21 8.71357C27.7856 8.71357 33.2864 14.2144 33.2864 21C33.2864 21.8789 33.1942 22.7362 33.0188 23.5628H17.3033C16.9037 22.9716 16.2271 22.5829 15.4598 22.5829C14.2317 22.5829 13.2362 23.5785 13.2362 24.8065C13.2362 26.0346 14.2317 27.0301 15.4598 27.0301C16.2271 27.0301 16.9037 26.6415 17.3033 26.0503H32.2038Z" fill="white"/>
</svg>
