<svg width="81" height="80" viewBox="0 0 81 80" fill="none" xmlns="http://www.w3.org/2000/svg">
    <path
        d="M64 61.8957C64 63.111 63.3927 64.3179 62.1899 65.4672C60.9859 66.6177 59.2172 67.6768 56.9903 68.5769C52.5392 70.3758 46.3557 71.4998 39.5 71.4998C32.6443 71.4998 26.4608 70.3758 22.0097 68.5769C19.7828 67.6768 18.0141 66.6177 16.8101 65.4672C15.6073 64.3179 15 63.111 15 61.8957V49.7656H64V61.8957Z"
        fill="white" stroke="#000" />
    <path d="M38.9988 60C52.5298 60 63.4988 55.6223 63.4988 50.2222V38H15V50.2222C15 55.6223 25.4679 60 38.9988 60Z"
        fill="#D9D9D9" stroke="#000" />
    <path
        d="M39.3099 48.3483C52.8631 48.3483 63.5 43.838 63.5 38.2742V25.6816H15V38.2742C15 43.838 25.7566 48.3483 39.3099 48.3483Z"
        fill="white" stroke="#000" />
    <path
        d="M39.3099 36.521C52.8631 36.521 63.5 32.0107 63.5 26.4469V14.8398H15V26.4469C15 32.0107 25.7566 36.521 39.3099 36.521Z"
        fill="#D9D9D9" stroke="#000" />
    <path
        d="M63.5 14.5C63.5 20.2149 52.8631 24.6957 39.3099 24.6957C25.7566 24.6957 15 20.2149 15 14.5C15 8.78505 25.7566 4 39.3099 4C52.8631 4 63.5 8.78505 63.5 14.5Z"
        fill="white" stroke="#000" />
    <path
        d="M76.5 59C76.5 66.732 70.232 73 62.5 73C54.768 73 48.5 66.732 48.5 59C48.5 51.268 54.768 45 62.5 45C70.232 45 76.5 51.268 76.5 59Z"
        fill="white" stroke="#000" stroke-linecap="round" stroke-linejoin="round" />
    <path
        d="M65.5 53C65.5 54.6569 64.1569 56 62.5 56C60.8431 56 59.5 54.6569 59.5 53C59.5 51.3431 60.8431 50 62.5 50C64.1569 50 65.5 51.3431 65.5 53Z"
        fill="#D9D9D9" stroke="#000" />
    <path
        d="M55.3392 61.8039C55.4327 61.3365 55.8431 61 56.3198 61H68.6802C69.1569 61 69.5673 61.3365 69.6608 61.8039L70.2608 64.8039C70.3845 65.4227 69.9112 66 69.2802 66H55.7198C55.0888 66 54.6155 65.4227 54.7392 64.8039L55.3392 61.8039Z"
        stroke="#000" />
    <path fill-rule="evenodd" clip-rule="evenodd" d="M63.5 61L63.5 56L61.5 56L61.5 61L63.5 61Z" fill="#000" />
</svg>