<svg width="81" height="80" viewBox="0 0 81 80" fill="none" xmlns="http://www.w3.org/2000/svg">
<path d="M14 21C14 17.9624 16.4624 15.5 19.5 15.5H41.5C44.5376 15.5 47 17.9624 47 21V67C47 70.0376 44.5376 72.5 41.5 72.5H19.5C16.4624 72.5 14 70.0376 14 67V21Z" fill="#F5F5F5" stroke="black"/>
<path d="M23.2342 18.5C23.387 18.5 23.6203 18.6647 23.6203 19.0122C23.6203 20.5654 24.7358 21.9415 26.2468 21.9415H34.7532C36.2642 21.9415 37.3797 20.5654 37.3797 19.0122C37.3797 18.6647 37.613 18.5 37.7658 18.5H41.3101C42.7353 18.5 44 19.843 44 21.644V66.356C44 68.157 42.7353 69.5 41.3101 69.5H19.6899C18.2647 69.5 17 68.157 17 66.356V21.644C17 19.843 18.2647 18.5 19.6899 18.5H23.2342Z" fill="#D9D9D9" stroke="black"/>
<path d="M30 13C30 9.96243 32.4624 7.5 35.5 7.5H61.5C64.5376 7.5 67 9.96243 67 13V67C67 70.0376 64.5376 72.5 61.5 72.5H35.5C32.4624 72.5 30 70.0376 30 67V13Z" fill="#F5F5F5" stroke="black"/>
<path d="M40.1962 10.5C40.41 10.5 40.7089 10.73 40.7089 11.1809C40.7089 12.9475 41.9515 14.5151 43.6392 14.5151H53.3608C55.0485 14.5151 56.2911 12.9475 56.2911 11.1809C56.2911 10.73 56.59 10.5 56.8038 10.5H60.8544C62.5223 10.5 64 12.1046 64 14.2513V65.7487C64 67.8954 62.5223 69.5 60.8544 69.5H36.1456C34.4777 69.5 33 67.8954 33 65.7487V14.2513C33 12.1046 34.4777 10.5 36.1456 10.5H40.1962Z" fill="white" stroke="black"/>
<path d="M47 43.7209H40.5L50.5 28V38.8837H56.5L47 54V43.7209Z" fill="#D9D9D9" stroke="black" stroke-linejoin="round"/>
</svg>
