<svg width="81" height="80" viewBox="0 0 81 80" fill="none" xmlns="http://www.w3.org/2000/svg">
<path fill-rule="evenodd" clip-rule="evenodd" d="M18.1923 26.6957C18.1923 14.1612 28.1798 4 40.5 4C52.8202 4 62.8077 14.1612 62.8077 26.6957V30H53.5769V26.6957C53.5769 19.3479 47.7222 13.3913 40.5 13.3913C33.2778 13.3913 27.4231 19.3479 27.4231 26.6957V30H18.1923V26.6957ZM18.1923 33C13.944 33 10.5 36.5039 10.5 40.8261V68.1739C10.5 72.4961 13.944 76 18.1923 76H62.8077C67.056 76 70.5 72.4961 70.5 68.1739V40.8261C70.5 36.5039 67.056 33 62.8077 33H53.5769H27.4231H18.1923Z" fill="#D9D9D9"/>
<path d="M62.8077 30V30.5H63.3077V30H62.8077ZM53.5769 30H53.0769V30.5H53.5769V30ZM27.4231 30V30.5H27.9231V30H27.4231ZM18.1923 30H17.6923V30.5H18.1923V30ZM40.5 3.5C27.8956 3.5 17.6923 13.8932 17.6923 26.6957H18.6923C18.6923 14.4292 28.464 4.5 40.5 4.5V3.5ZM63.3077 26.6957C63.3077 13.8932 53.1044 3.5 40.5 3.5V4.5C52.536 4.5 62.3077 14.4292 62.3077 26.6957H63.3077ZM63.3077 30V26.6957H62.3077V30H63.3077ZM53.5769 30.5H62.8077V29.5H53.5769V30.5ZM54.0769 30V26.6957H53.0769V30H54.0769ZM54.0769 26.6957C54.0769 19.0799 48.0064 12.8913 40.5 12.8913V13.8913C47.438 13.8913 53.0769 19.6158 53.0769 26.6957H54.0769ZM40.5 12.8913C32.9936 12.8913 26.9231 19.0799 26.9231 26.6957H27.9231C27.9231 19.6158 33.5621 13.8913 40.5 13.8913V12.8913ZM26.9231 26.6957V30H27.9231V26.6957H26.9231ZM18.1923 30.5H27.4231V29.5H18.1923V30.5ZM17.6923 26.6957V30H18.6923V26.6957H17.6923ZM18.1923 32.5C13.6597 32.5 10 36.2359 10 40.8261H11C11 36.7718 14.2282 33.5 18.1923 33.5V32.5ZM10 40.8261V68.1739H11V40.8261H10ZM10 68.1739C10 72.7641 13.6597 76.5 18.1923 76.5V75.5C14.2282 75.5 11 72.2282 11 68.1739H10ZM18.1923 76.5H62.8077V75.5H18.1923V76.5ZM62.8077 76.5C67.3403 76.5 71 72.7641 71 68.1739H70C70 72.2282 66.7718 75.5 62.8077 75.5V76.5ZM71 68.1739V40.8261H70V68.1739H71ZM71 40.8261C71 36.2359 67.3403 32.5 62.8077 32.5V33.5C66.7718 33.5 70 36.7718 70 40.8261H71ZM62.8077 32.5H53.5769V33.5H62.8077V32.5ZM53.5769 32.5H27.4231V33.5H53.5769V32.5ZM27.4231 32.5H18.1923V33.5H27.4231V32.5Z" fill="black"/>
<path d="M15 46C15 44.067 16.567 42.5 18.5 42.5H62.5C64.433 42.5 66 44.067 66 46V64C66 65.933 64.433 67.5 62.5 67.5H18.5C16.567 67.5 15 65.933 15 64V46Z" fill="white" stroke="#333333"/>
<path d="M52.293 61.161V61.661H52.793H60.4494H60.9494V61.161V59.148V58.648H60.4494H55.6884V56.8908H60.0345H60.5345V56.3908V54.3778V53.8778H60.0345H55.6884V52.1262H60.4273H60.9273V51.6262V49.6133V49.1133H60.4273H52.793H52.293V49.6133V61.161Z" fill="#D9D9D9" stroke="black"/>
<path d="M41.9297 61.161V61.661H42.4297H50.0861H50.5861V61.161V59.148V58.648H50.0861H45.3251V56.8908H49.6712H50.1712V56.3908V54.3778V53.8778H49.6712H45.3251V52.1262H50.064H50.564V51.6262V49.6133V49.1133H50.064H42.4297H41.9297V49.6133V61.161Z" fill="#D9D9D9" stroke="black"/>
<path d="M34.2704 52.1093V51.6093H35.3858C35.8468 51.6093 36.2285 51.6789 36.5309 51.8179C36.837 51.9533 37.0639 52.1525 37.2114 52.4156C37.3626 52.6788 37.4382 53.002 37.4382 53.3854C37.4382 53.7651 37.3626 54.0827 37.2114 54.3384C37.0639 54.594 36.8389 54.7857 36.5365 54.9135C36.234 55.0413 35.8542 55.1052 35.3969 55.1052H34.2704V54.6052M34.2704 52.1093H33.7704V54.6052H34.2704M34.2704 52.1093V54.6052M34.2704 52.1093H35.3858C35.8007 52.1093 36.1053 52.1725 36.322 52.2722L36.322 52.2723L36.3288 52.2752C36.5473 52.3719 36.6864 52.5017 36.7753 52.6601L36.7752 52.6602L36.7779 52.6647C36.8755 52.8346 36.9382 53.0668 36.9382 53.3854C36.9382 53.7 36.8756 53.9239 36.7811 54.0838L36.781 54.0838L36.7783 54.0884C36.6913 54.2392 36.5559 54.3625 36.3418 54.4529C36.1201 54.5466 35.8118 54.6052 35.3969 54.6052H34.2704M30.875 61.161V61.661H31.375H33.7704H34.2704V61.161V57.5674H35.2165L37.2222 61.3931L37.3626 61.661H37.665H40.3094H41.1446L40.7501 60.9248L38.5852 56.8846C39.1137 56.5663 39.5384 56.1444 39.8491 55.6191L39.8498 55.6178C40.2276 54.9746 40.4055 54.2238 40.4055 53.3854C40.4055 52.5517 40.2299 51.8006 39.8598 51.1494C39.4919 50.492 38.9545 49.9866 38.2632 49.6361C37.572 49.2799 36.7596 49.1133 35.845 49.1133H31.375H30.875V49.6133V61.161ZM38.2229 57.079C38.2231 57.079 38.2233 57.0789 38.2235 57.0788C38.2237 57.0787 38.2238 57.0786 38.224 57.0785L38.008 56.6276L38.2229 57.079ZM39.4187 55.3646C39.1569 55.8073 38.8002 56.1669 38.3488 56.4433L38.0357 50.0813C38.6442 50.3895 39.1071 50.8274 39.4242 51.3951C39.7451 51.9589 39.9055 52.6224 39.9055 53.3854C39.9055 54.1523 39.7433 54.812 39.4187 55.3646Z" fill="#D9D9D9" stroke="black"/>
<path d="M20.9297 61.161V61.661H21.4297H23.8251H24.3251V61.161V56.8908H28.4334H28.9334V56.3908V54.3778V53.8778H28.4334H24.3251V52.1262H28.9312H29.4312V51.6262V49.6133V49.1133H28.9312H21.4297H20.9297V49.6133V61.161Z" fill="#D9D9D9" stroke="black"/>
</svg>
