<svg width="81" height="80" viewBox="0 0 81 80" fill="none" xmlns="http://www.w3.org/2000/svg">
<path d="M13 11C13 6.85786 16.3579 3.5 20.5 3.5H46.5C50.6421 3.5 54 6.85786 54 11V67C54 71.1421 50.6421 74.5 46.5 74.5H20.5C16.3579 74.5 13 71.1421 13 67V11Z" fill="#D9D9D9" stroke="black"/>
<path d="M24.1582 6.5C24.4733 6.5 24.7975 6.79042 24.7975 7.23715C24.7975 9.1135 26.2074 10.7063 28.0316 10.7063H38.9684C40.7926 10.7063 42.2025 9.1135 42.2025 7.23715C42.2025 6.79042 42.5267 6.5 42.8418 6.5H47.3987C49.3496 6.5 51 8.23054 51 10.4537V67.5463C51 69.7695 49.3496 71.5 47.3987 71.5H19.6013C17.6504 71.5 16 69.7695 16 67.5463V10.4537C16 8.23054 17.6504 6.5 19.6013 6.5H24.1582Z" fill="white" stroke="black"/>
<rect x="19.5" y="17" width="28" height="3" rx="1" fill="#D9D9D9" stroke="black" stroke-width="0.5"/>
<rect x="19.5" y="51" width="28" height="3" rx="1" fill="#D9D9D9" stroke="black" stroke-width="0.5"/>
<rect x="19.5" y="34" width="28" height="3" rx="1" fill="white" stroke="black" stroke-width="0.5"/>
<rect x="19.5" y="23" width="23" height="3" rx="1" fill="#D9D9D9" stroke="black" stroke-width="0.5"/>
<rect x="19.5" y="57" width="16" height="3" rx="1" fill="#D9D9D9" stroke="black" stroke-width="0.5"/>
<rect x="28.5" y="40" width="19" height="3" rx="1" fill="white" stroke="black" stroke-width="0.5"/>
<circle cx="54.5" cy="60" r="15.5" fill="white" stroke="black"/>
<path fill-rule="evenodd" clip-rule="evenodd" d="M49.6264 51.2047C49.8255 50.9695 50.1885 50.9314 50.4373 51.1195L54.2835 54.0286C54.5323 54.2168 54.5726 54.56 54.3736 54.7953C54.1745 55.0305 53.8115 55.0686 53.5627 54.8805L49.7165 51.9714C49.4677 51.7832 49.4274 51.44 49.6264 51.2047Z" fill="black"/>
<path fill-rule="evenodd" clip-rule="evenodd" d="M59.3736 51.2047C59.5726 51.44 59.5323 51.7832 59.2835 51.9714L55.4373 54.8805C55.1885 55.0686 54.8255 55.0305 54.6264 54.7953C54.4274 54.56 54.4677 54.2168 54.7165 54.0286L58.5627 51.1195C58.8115 50.9314 59.1745 50.9695 59.3736 51.2047Z" fill="black"/>
<path fill-rule="evenodd" clip-rule="evenodd" d="M56.8832 54H56.9281L52.1158 54.0029C50.2297 54.0029 48.6586 55.2636 48.2366 56.9558C46.0355 56.9664 44.5 58.6711 44.5 60.7929V62.3063C44.5 64.429 46.0685 66.1386 48.2696 66.1482C48.7296 67.7874 50.2687 69 52.1158 69H56.9291L56.8832 68.9971C58.7293 68.9971 60.2694 67.7845 60.7294 66.1463C62.9315 66.1366 64.5 64.4271 64.5 62.3053V60.7919C64.5 58.6692 62.9645 56.9645 60.7634 56.9539C60.4384 55.6518 59.4323 54.6039 58.1253 54.1907C57.7343 54.0665 57.3173 54 56.8832 54Z" fill="#D9D9D9" stroke="black"/>
<rect x="50.5" y="59" width="2" height="5" rx="1" fill="white" stroke="black"/>
<rect x="56.5" y="59" width="2" height="5" rx="1" fill="white" stroke="black"/>
</svg>
