<svg width="81" height="80" viewBox="0 0 81 80" fill="none" xmlns="http://www.w3.org/2000/svg">
    <path
        d="M68.5 38.5231V22C68.5 18.6863 65.8137 16 62.5 16H14.5C11.1863 16 8.5 18.6863 8.5 22V58C8.5 61.3137 11.1863 64 14.5 64H41.7727"
        stroke="#000" />
    <rect x="16.5" y="26" width="44" height="5" rx="1" fill="#D9D9D9" stroke="black" />
    <rect x="16.5" y="36" width="31" height="5" rx="1" fill="white" stroke="black" />
    <rect x="16.5" y="46" width="27" height="5" rx="1" fill="#D9D9D9" stroke="black" />
    <path
        d="M63.6515 49.6368C65.3795 48.3622 66.5003 46.312 66.5003 44C66.5003 40.134 63.3663 37 59.5003 37C55.6343 37 52.5003 40.134 52.5003 44C52.5003 46.2855 53.5956 48.3152 55.29 49.5927C50.6237 50.4214 46.8436 54.6119 45.6671 59.3434C44.8387 62.6751 47.1859 65 50.6014 65H65.7222H68.0954C71.511 65 74.1762 62.6751 73.3478 59.3434C72.5601 56.1758 70.4914 53.2506 67.7937 51.4144C66.5289 50.5534 65.1257 49.9318 63.6515 49.6368Z"
        fill="white" stroke="#000" stroke-linejoin="round" />
    <path d="M62.5 45C62.5 46.7843 61.1569 48 59.5 48C57.8431 48 56.5 46.7843 56.5 45" stroke="#000"
        stroke-linecap="round" stroke-linejoin="round" />
</svg>