<svg width="81" height="80" viewBox="0 0 81 80" fill="none" xmlns="http://www.w3.org/2000/svg">
    <circle cx="40.5" cy="40" r="32.5" fill="#D9D9D9" stroke="black" />
    <path fill-rule="evenodd" clip-rule="evenodd"
        d="M31.7023 21.4095C32.0208 20.939 32.6017 20.8627 32.9997 21.2391L39.1535 27.0572C39.5516 27.4336 39.6162 28.1201 39.2977 28.5905C38.9792 29.061 38.3983 29.1373 38.0003 28.7609L31.8465 22.9428C31.4484 22.5664 31.3838 21.8799 31.7023 21.4095Z"
        fill="#333333" stroke="black" stroke-linecap="round" />
    <path fill-rule="evenodd" clip-rule="evenodd"
        d="M49.2977 21.4095C49.6162 21.8799 49.5516 22.5664 49.1535 22.9428L42.9997 28.7609C42.6017 29.1373 42.0208 29.061 41.7023 28.5905C41.3838 28.1201 41.4484 27.4336 41.8465 27.0572L48.0003 21.2391C48.3983 20.8627 48.9792 20.939 49.2977 21.4095Z"
        fill="#333333" stroke="black" stroke-linecap="round" />
    <path fill-rule="evenodd" clip-rule="evenodd"
        d="M45.5048 27H45.599L35.4931 27.0062C31.5323 27.0062 28.2331 29.6957 27.3469 33.3058C22.7246 33.3284 19.5 36.9651 19.5 41.4915V44.7201C19.5 49.2486 22.7939 52.8956 27.4162 52.9162C28.3822 56.4132 31.6142 59 35.4931 59H45.601L45.5048 58.9938C49.3816 58.9938 52.6157 56.407 53.5817 52.912C58.2061 52.8915 61.5 49.2445 61.5 44.7181V41.4895C61.5 36.961 58.2754 33.3242 53.6531 33.3016C52.9706 30.5237 50.8579 28.2883 48.1131 27.4068C47.292 27.1418 46.4162 27 45.5048 27Z"
        fill="white" stroke="black" />
    <rect x="32.5" y="37" width="4" height="10" rx="2" fill="#D9D9D9" stroke="black" />
    <rect x="44.5" y="37" width="4" height="10" rx="2" fill="#D9D9D9" stroke="black" />
    <circle cx="40.5" cy="40" r="32.5" fill="#D9D9D9" stroke="black" />
    <path fill-rule="evenodd" clip-rule="evenodd"
        d="M31.7023 21.4095C32.0208 20.939 32.6017 20.8627 32.9997 21.2391L39.1535 27.0572C39.5516 27.4336 39.6162 28.1201 39.2977 28.5905C38.9792 29.061 38.3983 29.1373 38.0003 28.7609L31.8465 22.9428C31.4484 22.5664 31.3838 21.8799 31.7023 21.4095Z"
        fill="#333333" stroke="black" stroke-linecap="round" />
    <path fill-rule="evenodd" clip-rule="evenodd"
        d="M49.2977 21.4095C49.6162 21.8799 49.5516 22.5664 49.1535 22.9428L42.9997 28.7609C42.6017 29.1373 42.0208 29.061 41.7023 28.5905C41.3838 28.1201 41.4484 27.4336 41.8465 27.0572L48.0003 21.2391C48.3983 20.8627 48.9792 20.939 49.2977 21.4095Z"
        fill="#333333" stroke="black" stroke-linecap="round" />
    <path fill-rule="evenodd" clip-rule="evenodd"
        d="M45.5048 27H45.599L35.4931 27.0062C31.5323 27.0062 28.2331 29.6957 27.3469 33.3058C22.7246 33.3284 19.5 36.9651 19.5 41.4915V44.7201C19.5 49.2486 22.7939 52.8956 27.4162 52.9162C28.3822 56.4132 31.6142 59 35.4931 59H45.601L45.5048 58.9938C49.3816 58.9938 52.6157 56.407 53.5817 52.912C58.2061 52.8915 61.5 49.2445 61.5 44.7181V41.4895C61.5 36.961 58.2754 33.3242 53.6531 33.3016C52.9706 30.5237 50.8579 28.2883 48.1131 27.4068C47.292 27.1418 46.4162 27 45.5048 27Z"
        fill="white" stroke="black" />
    <rect x="32.5" y="37" width="4" height="10" rx="2" fill="#D9D9D9" stroke="black" />
    <rect x="44.5" y="37" width="4" height="10" rx="2" fill="#D9D9D9" stroke="black" />
</svg>