<svg width="82" height="34" viewBox="0 0 82 34" fill="none" xmlns="http://www.w3.org/2000/svg">
    <g clip-path="url(#clip0_1282_2788)">
        <path
            d="M16.9761 0L17.5267 1.82143H19.3069L17.8632 2.89607L18.4199 4.68107L16.9761 3.57607L15.5324 4.68107L16.083 2.89607L14.6392 1.82143H16.4194L16.9761 0ZM16.9761 29.3311L17.5267 31.1161H19.3069L17.8632 32.2332L18.4199 34L16.9761 32.9011L15.5324 34L16.083 32.2211L14.6392 31.1161H16.4194L16.9761 29.3311ZM24.3111 2.42857L24.8678 4.21357H26.648L25.2043 5.28214L25.7549 7.06714L24.3111 5.96214L22.8674 7.06714L23.4241 5.28214L21.9803 4.18321H23.7605L24.3111 2.42857ZM30.3186 7.76536L30.8692 9.55036H32.6555L31.1995 10.6189L31.7501 12.4039L30.3063 11.2989L28.8748 12.4039L29.4254 10.6189L27.9878 9.52H29.768L30.3186 7.76536ZM30.3186 22.0454L30.8692 23.8243H32.6555L31.1995 24.8929L31.7501 26.6718L30.3063 25.5729L28.8748 26.6779L29.4254 24.8929L27.9878 23.7879H29.768L30.3186 22.0454ZM3.62758 7.735L4.17816 9.52H5.96449L4.52074 10.6189L5.07133 12.4039L3.62758 11.2989L2.18383 12.4039L2.73441 10.6189L1.29066 9.52H3.05864L3.62758 7.735ZM31.6522 14.6807L32.2089 16.4596H33.9891L32.5454 17.5646L33.0959 19.3436L31.6522 18.2446L30.2085 19.3436L30.7652 17.5646L29.3214 16.4596H31.1016L31.6522 14.6807ZM2.28783 14.6807L2.83841 16.4596H4.63086L3.18099 17.5646L3.73769 19.3436L2.29395 18.2446L0.850198 19.3436L1.40078 17.5646L-0.0429688 16.4596H1.74336L2.28783 14.6807ZM3.62758 22.015L4.17816 23.7939H5.96449L4.52074 24.8929L5.07133 26.6718L3.62758 25.5789L2.18383 26.6779L2.73441 24.8929L1.29066 23.7939H3.05864L3.62758 22.015ZM25.6509 28.0136L26.2014 29.7925H27.9878L26.5379 30.8975L27.0946 32.6764L25.6509 31.5714L24.2071 32.6704L24.7577 30.8914L23.3139 29.7864H25.0819L25.6509 28.0136ZM9.63504 2.42857L10.1856 4.21357H11.9658L10.5221 5.28214L11.0788 7.06714L9.63504 5.96214L8.19129 7.06714L8.74187 5.28214L7.29812 4.18321H9.07834L9.63504 2.42857ZM8.29529 28.0136L8.85199 29.7925H10.6322L9.17622 30.8975L9.7268 32.6764L8.29529 31.5714L6.85154 32.6764L7.40824 30.8975L5.96449 29.7925H7.74471L8.29529 28.0136ZM21.7234 15.0207L16.4745 20.3757C16.293 20.5411 16.0597 20.6397 15.8138 20.655H15.3611C15.109 20.6428 14.8689 20.5441 14.682 20.3757L12.235 17.85C12.1641 17.7728 12.1248 17.6721 12.1248 17.5677C12.1248 17.4632 12.1641 17.3625 12.235 17.2854L13.2077 16.2957C13.28 16.2242 13.3779 16.184 13.4799 16.184C13.582 16.184 13.6799 16.2242 13.7522 16.2957L15.3305 17.8986C15.3659 17.9357 15.4086 17.9652 15.456 17.9854C15.5033 18.0056 15.5543 18.0161 15.6058 18.0161C15.6573 18.0161 15.7083 18.0056 15.7556 17.9854C15.803 17.9652 15.8456 17.9357 15.8811 17.8986L20.1879 13.4846C20.2601 13.4131 20.358 13.3729 20.4601 13.3729C20.5622 13.3729 20.6601 13.4131 20.7323 13.4846L21.6989 14.4621C21.7728 14.5352 21.8164 14.6332 21.8209 14.7367C21.8254 14.8402 21.7906 14.9415 21.7234 15.0207ZM46.7932 7.97179C46.6599 7.46679 46.358 7.02159 45.9367 6.70893C45.4762 6.39221 44.9244 6.23242 44.3645 6.25357C43.9546 6.24069 43.5471 6.32161 43.1737 6.49006C42.8003 6.65851 42.4709 6.90998 42.2111 7.225C41.6185 8.02123 41.3282 8.99958 41.3914 9.9875C41.3324 10.975 41.6223 11.9519 42.2111 12.75C42.4725 13.0718 42.8062 13.3283 43.1855 13.4991C43.5647 13.6699 43.979 13.7502 44.3951 13.7336C45.0897 13.7789 45.7758 13.562 46.316 13.1264C46.5498 12.9108 46.7346 12.6482 46.858 12.3561C46.9814 12.064 47.0406 11.7491 47.0318 11.4325H44.5419V9.61107H49.3809V11.0561C49.4151 11.961 49.2038 12.8584 48.7692 13.6546C48.3534 14.3695 47.7398 14.951 47.0012 15.3304C46.1407 15.7376 45.1951 15.9362 44.2421 15.9099C43.2891 15.8835 42.3561 15.6328 41.5199 15.1786C40.6953 14.7005 40.0297 13.9935 39.605 13.1446C39.1232 12.1689 38.8861 11.092 38.9138 10.0057C38.884 8.90215 39.1321 7.80866 39.6356 6.82429C40.0826 5.97831 40.7639 5.27681 41.5994 4.8025C42.4382 4.33122 43.3885 4.09022 44.3523 4.10429C45.1704 4.09253 45.9809 4.26047 46.7259 4.59607C47.4075 4.90576 48.0036 5.37443 48.4633 5.96214C48.9179 6.54609 49.2072 7.23983 49.3014 7.97179H46.7932ZM55.3211 15.7432H51.2162V4.25H55.3517C56.3982 4.22749 57.4335 4.46765 58.3615 4.94821C59.1957 5.39418 59.8724 6.08273 60.3008 6.92143C60.7715 7.86385 61.0045 8.9056 60.9799 9.95714C61.0095 11.0247 60.7764 12.0834 60.3008 13.0414C59.8642 13.8799 59.1844 14.5693 58.3493 15.0207C57.4185 15.514 56.3761 15.7627 55.3211 15.7432ZM53.6632 13.6607H55.2171C55.6635 13.6887 56.111 13.6255 56.5319 13.4752C56.9528 13.3248 57.3381 13.0904 57.6641 12.7864C58.227 12.1793 58.5084 11.2746 58.5084 9.9875C58.5965 8.98747 58.2943 7.99204 57.6641 7.20679C57.337 6.90481 56.9513 6.6721 56.5306 6.52284C56.1099 6.37357 55.663 6.31088 55.2171 6.33857H53.6632V13.6607ZM62.7845 15.7432V4.25H67.3483C68.1269 4.22589 68.8991 4.39713 69.5934 4.74786C70.1916 5.05539 70.6837 5.53317 71.0066 6.12C71.3414 6.74126 71.5099 7.4374 71.496 8.14179C71.5109 8.84317 71.34 9.53615 71.0005 10.1514C70.6688 10.7431 70.1688 11.2246 69.5628 11.5357C68.8558 11.8808 68.0747 12.0497 67.2871 12.0275H65.2316V15.7493L62.7845 15.7432ZM65.2316 10.0725H66.8894C67.1744 10.0951 67.461 10.0594 67.7315 9.96744C68.0019 9.87553 68.2505 9.72943 68.4617 9.53821C68.8108 9.16249 68.9956 8.66467 68.9755 8.15393C68.9872 7.90085 68.9477 7.648 68.8595 7.41028C68.7712 7.17255 68.636 6.95474 68.4617 6.76964C68.2476 6.58161 67.9974 6.43845 67.7262 6.34872C67.455 6.259 67.1683 6.22457 66.8833 6.2475H65.2316V10.0725ZM73.0866 15.7432V4.25H77.6503C78.7649 4.18116 79.8625 4.54717 80.7091 5.27C81.0747 5.62197 81.3609 6.047 81.5486 6.51695C81.7363 6.9869 81.8213 7.49107 81.798 7.99607C81.8181 8.70382 81.6357 9.40273 81.2719 10.0118C80.909 10.5761 80.379 11.0151 79.7547 11.2686L82.2017 15.7311H79.5284L77.3383 11.6571H75.5519V15.7311L73.0866 15.7432ZM75.5336 9.72036H77.1976C78.5883 9.72036 79.2816 9.14964 79.2775 8.00821C79.2735 6.86679 78.5761 6.27988 77.1853 6.2475H75.5336V9.72036ZM38.7364 27.8861V20.8189H41.5443C42.2258 20.7734 42.8987 20.9909 43.4224 21.4261C43.6478 21.6434 43.8243 21.9056 43.9403 22.1955C44.0563 22.4853 44.1091 22.7963 44.0954 23.1079C44.1043 23.5356 43.9897 23.957 43.765 24.3221C43.5496 24.6887 43.2185 24.9746 42.8229 25.1357L44.3339 27.8861H42.6883L41.3363 25.3786H40.2413V27.8861H38.7364ZM40.2413 24.1764H41.2568C42.1133 24.1764 42.5415 23.8304 42.5415 23.1261C42.5415 22.4218 42.1133 22.0393 41.2507 22.0393H40.2413V24.1764ZM45.1598 27.8861V20.8189H49.956V22.0332H46.6647V23.715H49.7235V24.9293H46.6647V26.6536H49.9682V27.8679L45.1598 27.8861ZM52.3786 27.8861H50.7757L53.2228 20.8189H55.162L57.6091 27.8861H56.0063L55.474 26.2711H52.9108L52.3786 27.8861ZM53.2901 25.1054H55.1253L54.2199 22.4643H54.1649L53.2901 25.1054ZM60.9982 27.8861H58.4717V20.8189H61.0166C61.6547 20.8043 62.2861 20.9505 62.8518 21.2439C63.3733 21.5175 63.7997 21.9407 64.0754 22.4582C64.3656 23.0472 64.5083 23.697 64.4914 24.3525C64.5094 25.0087 64.3644 25.6593 64.0692 26.2468C63.797 26.7669 63.3698 27.1909 62.8457 27.4611C62.2753 27.7535 61.6401 27.8996 60.9982 27.8861ZM59.9521 26.605H60.9309C61.2096 26.6241 61.4892 26.586 61.7524 26.4931C62.0155 26.4001 62.2565 26.2542 62.4603 26.0646C62.8461 25.5779 63.0299 24.9632 62.9742 24.3464C63.0283 23.7316 62.8446 23.1195 62.4603 22.6343C62.2572 22.4459 62.017 22.3013 61.7549 22.2093C61.4928 22.1174 61.2143 22.0802 60.937 22.1H59.9521V26.605ZM64.7361 20.8189H66.4245L68.0457 23.8546H68.1191L69.7402 20.8189H71.4287L68.8287 25.3846V27.8861H67.336V25.3846L64.7361 20.8189Z"
            fill="white" />
    </g>
    <defs>
        <clipPath id="clip0_1282_2788">
            <rect width="82" height="34" fill="white" />
        </clipPath>
    </defs>
</svg>