<svg xmlns="http://www.w3.org/2000/svg" width="30" height="30" viewBox="0 0 100 100" version="1.1" class="noShrink"><g transform="matrix(1, 0, 0, -1, -26, 126)"><g transform="scale(0.1)"><path d="m 1260,773.418 h -85.18 C 1167.79,990.469 990.469,1167.78 773.418,1174.81 V 1260 h -26.836 v -85.19 C 529.531,1167.78 352.207,990.469 345.176,773.418 H 260 v -26.836 h 85.176 C 352.207,529.531 529.531,352.219 746.582,345.191 V 260 h 26.836 v 85.191 c 217.051,7.028 394.372,184.34 401.402,401.391 H 1260 v 26.836" fill="#17171E"/><path d="M 452.117,942.512 760,764.758 1067.87,942.512 760,1120.27 452.117,942.512" fill="#81d6f7"/><path d="M 1075.33,929.602 767.449,751.848 V 396.34 l 307.881,177.742 v 355.52" fill="#316bbd"/><path d="M 444.668,574.082 752.539,396.34 V 751.848 L 444.668,929.602 v -355.52" fill="#469fde"/><path d="m 760,785.586 c -4.441,0 -8.047,3.391 -8.047,7.844 v 0.398 c 0,4.442 3.606,8.035 8.047,8.035 4.441,0 8.047,-3.593 8.047,-8.035 0,-4.453 -3.606,-8.242 -8.047,-8.242" fill="#316bbd"/><path d="m 760,1040.56 c -4.441,0 -8.047,3.59 -8.047,8.05 v 0.82 c 0,4.45 3.606,8.05 8.047,8.05 4.441,0 8.047,-3.6 8.047,-8.05 v -0.82 c 0,-4.46 -3.606,-8.05 -8.047,-8.05 z m 0,-42.599 c -4.441,0 -8.047,3.589 -8.047,8.049 v 0.83 c 0,4.44 3.606,8.04 8.047,8.04 4.441,0 8.047,-3.6 8.047,-8.04 v -0.83 c 0,-4.46 -3.606,-8.049 -8.047,-8.049 z m 0,-42.609 c -4.441,0 -8.047,3.593 -8.047,8.046 v 0.84 c 0,4.446 3.606,8.035 8.047,8.035 4.441,0 8.047,-3.589 8.047,-8.035 v -0.84 c 0,-4.453 -3.606,-8.046 -8.047,-8.046 z m 0,-42.598 c -4.441,0 -8.047,3.594 -8.047,8.047 v 0.832 c 0,4.441 3.606,8.047 8.047,8.047 4.441,0 8.047,-3.606 8.047,-8.047 v -0.832 c 0,-4.453 -3.606,-8.047 -8.047,-8.047 z m 0,-42.609 c -4.441,0 -8.047,3.593 -8.047,8.046 v 0.84 c 0,4.446 3.606,8.039 8.047,8.039 4.441,0 8.047,-3.593 8.047,-8.039 v -0.84 c 0,-4.453 -3.606,-8.046 -8.047,-8.046 z m 0,-42.594 c -4.441,0 -8.047,3.594 -8.047,8.047 v 0.828 c 0,4.441 3.606,8.039 8.047,8.039 4.441,0 8.047,-3.598 8.047,-8.039 v -0.828 c 0,-4.453 -3.606,-8.047 -8.047,-8.047" fill="#316bbd"/><path d="m 760,1083.36 c -4.441,0 -8.047,3.4 -8.047,7.84 v 0.4 c 0,4.45 3.606,8.05 8.047,8.05 4.441,0 8.047,-3.6 8.047,-8.05 0,-4.44 -3.606,-8.24 -8.047,-8.24" fill="#316bbd"/><path d="m 727.371,729.27 c -2.793,0 -5.516,1.46 -6.988,4.07 -2.199,3.867 -0.852,8.769 3.015,10.969 3.86,2.214 8.957,0.933 11.133,-2.922 2.199,-3.86 1.028,-8.672 -2.843,-10.867 l -0.34,-0.2 c -1.258,-0.711 -2.625,-1.05 -3.977,-1.05" fill="#81d6f7"/><path d="m 690.48,707.969 c -2.777,0 -5.492,1.445 -6.972,4.023 -2.231,3.86 -0.903,8.77 2.945,10.988 l 0.727,0.418 c 3.855,2.215 8.777,0.887 10.984,-2.96 2.227,-3.844 0.899,-8.766 -2.949,-10.973 l -0.723,-0.422 c -1.269,-0.73 -2.656,-1.074 -4.012,-1.074 z M 653.586,686.66 c -2.785,0 -5.488,1.445 -6.977,4.031 -2.222,3.852 -0.894,8.774 2.954,10.989 l 0.718,0.41 c 3.852,2.226 8.782,0.898 10.989,-2.949 2.214,-3.848 0.886,-8.77 -2.957,-10.989 l -0.723,-0.41 c -1.262,-0.73 -2.649,-1.082 -4.004,-1.082 z m -36.898,-21.301 c -2.75,0 -5.438,1.418 -6.942,3.977 -2.246,3.828 -0.969,8.762 2.859,11.008 l 0.723,0.418 c 3.82,2.265 8.762,0.968 11.008,-2.864 2.246,-3.828 0.969,-8.757 -2.859,-11.003 l -0.723,-0.43 c -1.274,-0.75 -2.68,-1.106 -4.066,-1.106 z m -36.883,-21.296 c -2.785,0 -5.496,1.445 -6.985,4.035 -2.215,3.843 -0.886,8.765 2.961,10.972 l 0.723,0.422 c 3.848,2.227 8.769,0.899 10.976,-2.949 2.227,-3.855 0.899,-8.77 -2.949,-10.984 l -0.722,-0.422 c -1.27,-0.723 -2.649,-1.074 -4.004,-1.074 z m -36.907,-21.297 c -2.769,0 -5.488,1.445 -6.968,4.019 -2.219,3.86 -0.903,8.774 2.957,10.988 l 0.722,0.418 c 3.86,2.219 8.758,0.879 10.977,-2.957 2.227,-3.847 0.898,-8.769 -2.949,-10.976 l -0.723,-0.418 c -1.269,-0.735 -2.644,-1.074 -4.016,-1.074 z m -36.89,-21.313 c -2.778,0 -5.488,1.445 -6.977,4.035 -2.222,3.848 -0.894,8.77 2.949,10.977 l 0.723,0.422 c 3.86,2.234 8.774,0.894 10.988,-2.949 2.227,-3.86 0.899,-8.77 -2.949,-10.989 l -0.722,-0.422 c -1.27,-0.718 -2.657,-1.074 -4.012,-1.074" fill="#81d6f7"/><path d="m 469.492,580.371 c -2.781,0 -5.488,1.445 -6.98,4.024 -2.219,3.847 -0.903,8.769 2.949,10.996 3.848,2.214 8.934,0.996 11.16,-2.852 2.227,-3.84 1.082,-8.66 -2.766,-10.891 l -0.347,-0.195 c -1.274,-0.73 -2.649,-1.082 -4.016,-1.082" fill="#81d6f7"/><path d="m 792.617,729.27 c -1.347,0 -2.715,0.339 -3.965,1.05 -3.867,2.192 -5.39,7.207 -3.191,11.067 2.184,3.867 6.91,5.312 10.789,3.117 l 0.352,-0.195 c 3.859,-2.2 5.214,-7.102 3.007,-10.969 -1.472,-2.61 -4.199,-4.07 -6.992,-4.07" fill="#469fde"/><path d="m 829.512,707.969 c -1.36,0 -2.742,0.344 -4.004,1.074 l -0.723,0.422 c -3.847,2.207 -5.176,7.129 -2.961,10.973 2.207,3.847 7.141,5.175 10.989,2.96 l 0.722,-0.418 c 3.848,-2.218 5.176,-7.128 2.949,-10.988 -1.484,-2.578 -4.187,-4.023 -6.972,-4.023 z m 36.894,-21.309 c -1.355,0 -2.746,0.352 -4.004,1.082 l -0.722,0.41 c -3.848,2.219 -5.176,7.141 -2.957,10.989 2.207,3.847 7.136,5.175 10.984,2.949 l 0.723,-0.41 c 3.847,-2.215 5.175,-7.137 2.949,-10.989 -1.484,-2.586 -4.191,-4.031 -6.973,-4.031 z m 36.895,-21.301 c -1.375,0 -2.781,0.356 -4.063,1.106 l -0.722,0.43 c -3.828,2.246 -5.11,7.175 -2.864,11.003 2.258,3.832 7.168,5.129 11.008,2.864 l 0.723,-0.418 c 3.828,-2.246 5.105,-7.18 2.859,-11.008 -1.492,-2.559 -4.179,-3.977 -6.941,-3.977 z m 36.894,-21.296 c -1.367,0 -2.746,0.351 -4.011,1.074 l -0.723,0.422 c -3.852,2.214 -5.18,7.129 -2.949,10.984 2.215,3.848 7.129,5.176 10.972,2.949 l 0.727,-0.422 c 3.855,-2.207 5.184,-7.129 2.957,-10.972 -1.484,-2.59 -4.199,-4.035 -6.973,-4.035 z m 36.895,-21.297 c -1.36,0 -2.742,0.339 -4.016,1.074 l -0.719,0.418 c -3.847,2.207 -5.175,7.129 -2.953,10.976 2.219,3.836 7.129,5.176 10.989,2.957 l 0.722,-0.418 c 3.848,-2.214 5.176,-7.128 2.95,-10.988 -1.485,-2.574 -4.2,-4.019 -6.973,-4.019 z m 36.89,-21.313 c -1.35,0 -2.74,0.356 -4,1.074 l -0.72,0.422 c -3.85,2.219 -5.18,7.129 -2.96,10.989 2.22,3.843 7.13,5.183 10.99,2.949 l 0.72,-0.422 c 3.85,-2.207 5.17,-7.129 2.95,-10.977 -1.49,-2.59 -4.19,-4.035 -6.98,-4.035" fill="#469fde"/><path d="m 1050.5,580.371 c -1.39,0 -2.79,0.359 -4.08,1.121 -3.83,2.258 -5.27,7.297 -3.01,11.125 2.27,3.821 7.02,5.188 10.85,2.93 l 0.34,-0.203 c 3.83,-2.258 5.1,-7.192 2.84,-11.02 -1.51,-2.539 -4.19,-3.953 -6.94,-3.953" fill="#469fde"/></g></g></svg>