<svg width="25" height="19" viewBox="0 0 25 19" fill="none" xmlns="http://www.w3.org/2000/svg">
    <g clip-path="url(#clip0_1083_26311)">
        <path fill-rule="evenodd" clip-rule="evenodd"
            d="M24.6428 0C24.8364 0 24.994 0.152539 24.9998 0.342911L25 0.353935V18.646C25 18.6985 24.9882 18.7504 24.9655 18.7979C24.8824 18.971 24.6761 19.0466 24.5001 18.9704L24.4896 18.9656L19.9104 16.8093C19.697 16.7089 19.5594 16.498 19.5538 16.2648L19.5536 16.2499V2.43832C19.5536 2.19113 19.7018 1.96812 19.9298 1.87012L19.9433 1.8645L24.5084 0.0260396C24.5511 0.00884253 24.5968 0 24.6428 0ZM0.357143 0C0.403237 0 0.448896 0.00884253 0.491598 0.0260396L5.05672 1.8645C5.29231 1.95938 5.44644 2.18629 5.44644 2.43832V16.2499C5.44644 16.489 5.30756 16.7067 5.08964 16.8093L0.510421 18.9656C0.332263 19.0495 0.119216 18.9744 0.0345635 18.7979C0.0118069 18.7504 0 18.6985 0 18.646V0.353935C0 0.158462 0.159898 0 0.357143 0ZM12.9018 3.99548L17.1243 6.41142C17.3729 6.55368 17.5261 6.81659 17.5261 7.10111V11.933C17.5261 12.2175 17.3729 12.4804 17.1243 12.6227L12.9018 15.0386C12.6532 15.1808 12.3468 15.1808 12.0982 15.0386L7.87573 12.6227C7.6271 12.4804 7.47395 12.2175 7.47395 11.933V7.10111C7.47395 6.81659 7.6271 6.55368 7.87573 6.41142L12.0982 3.99548C12.3468 3.85322 12.6532 3.85322 12.9018 3.99548Z"
            fill="white" fill-opacity="0.9" />
    </g>
    <defs>
        <clipPath id="clip0_1083_26311">
            <rect width="25" height="19" fill="white" />
        </clipPath>
    </defs>
</svg>