<svg width="175" height="42" viewBox="0 0 175 42" fill="none" xmlns="http://www.w3.org/2000/svg">
    <g clip-path="url(#clip0_1169_8135)">
        <path
            d="M30.4457 21.9544V27.3607H33.6354C34.7051 27.3607 35.496 27.14 36.0079 26.6985C36.5264 26.2504 36.7857 25.5685 36.7857 24.6526C36.7857 23.7301 36.5264 23.0515 36.0079 22.6166C35.496 22.1751 34.7051 21.9544 33.6354 21.9544L30.4457 21.9544ZM30.4457 15.8858V20.3334H33.3893C34.3606 20.3335 35.0825 20.1523 35.5551 19.7899C36.0342 19.4209 36.2737 18.8608 36.2738 18.1096C36.2738 17.3651 36.0342 16.8083 35.5551 16.4393C35.0825 16.0703 34.3606 15.8858 33.3893 15.8858L30.4457 15.8858ZM28.457 14.2451H33.5369C35.053 14.2452 36.2212 14.5614 37.0417 15.194C37.862 15.8265 38.2722 16.7259 38.2722 17.8922C38.2722 18.7949 38.0622 19.5131 37.6422 20.0468C37.2221 20.5805 36.6052 20.9133 35.7914 21.0451C36.7693 21.2559 37.5273 21.6974 38.0655 22.3695C38.6102 23.035 38.8826 23.8685 38.8826 24.87C38.8826 26.1878 38.4363 27.2058 37.5437 27.924C36.6511 28.6423 35.3811 29.0013 33.7338 29.0013H28.457L28.457 14.2451Z"
            fill="#333333" />
        <path d="M42.2012 17.9323H44.0126V29.0019H42.2012V17.9323ZM42.2012 13.623H44.0126V15.9259H42.2012V13.623Z"
            fill="#333333" />
        <path
            d="M49.583 14.7891V17.932H53.3141V19.3454H49.583V25.3546C49.583 26.2573 49.7044 26.8372 49.9472 27.0942C50.1966 27.3511 50.6987 27.4796 51.4534 27.4796H53.3141V29.0017H51.4534C50.0555 29.0017 49.0907 28.7414 48.5591 28.2209C48.0274 27.6938 47.7616 26.7383 47.7616 25.3546V19.3454H46.4326V17.932H47.7616V14.7891H49.583Z"
            fill="#333333" />
        <path
            d="M63.6415 18.3568V20.0568C63.1295 19.7735 62.6145 19.5626 62.0959 19.4243C61.5839 19.2793 61.0656 19.2068 60.5403 19.2068C59.3655 19.2068 58.4531 19.5824 57.8034 20.3336C57.1537 21.0781 56.8288 22.1258 56.8288 23.4765C56.8288 24.8273 57.1537 25.8782 57.8034 26.6294C58.4532 27.374 59.3655 27.7463 60.5403 27.7463C61.0653 27.7463 61.5839 27.6771 62.0959 27.5387C62.6142 27.3938 63.1295 27.1796 63.6415 26.8963V28.5765C63.1362 28.8137 62.6112 28.9916 62.0663 29.1102C61.5281 29.2288 60.954 29.2881 60.3434 29.2881C58.6829 29.2881 57.3637 28.7643 56.3858 27.7167C55.4079 26.669 54.9189 25.2557 54.9189 23.4766C54.9189 21.6712 55.4112 20.2513 56.3957 19.2168C57.3867 18.1823 58.742 17.665 60.4615 17.665C61.0194 17.6651 61.5642 17.7244 62.0958 17.8429C62.6274 17.955 63.1428 18.1262 63.6415 18.3568Z"
            fill="#333333" />
        <path
            d="M71.0455 19.2069C70.0742 19.2069 69.3062 19.589 68.7418 20.3534C68.1773 21.1111 67.8951 22.1522 67.8951 23.4766C67.8951 24.801 68.174 25.8453 68.7318 26.6097C69.2963 27.3674 70.0673 27.7463 71.0455 27.7463C72.0104 27.7463 72.7748 27.3642 73.3392 26.5998C73.9037 25.8355 74.1859 24.7944 74.1859 23.4766C74.1859 22.1654 73.9037 21.1276 73.3392 20.3633C72.7748 19.5923 72.0101 19.2069 71.0455 19.2069ZM71.0455 17.665C72.6207 17.6651 73.8579 18.179 74.7569 19.2069C75.6561 20.2348 76.1057 21.658 76.1057 23.4766C76.1057 25.2886 75.6561 26.7118 74.7569 27.7463C73.8578 28.7742 72.6206 29.2882 71.0455 29.2882C69.4636 29.2882 68.2234 28.7742 67.3241 27.7463C66.4316 26.7118 65.9854 25.2886 65.9854 23.4766C65.9854 21.658 66.4316 20.2348 67.3241 19.2069C68.2233 18.179 69.4638 17.6651 71.0455 17.665Z"
            fill="#333333" />
        <path d="M79.0986 17.9323H80.9099V29.0019H79.0986V17.9323ZM79.0986 13.623H80.9099V15.9259H79.0986V13.623Z"
            fill="#333333" />
        <path
            d="M93.8555 22.3202V29.0015H92.0442V22.3795C92.0442 21.3319 91.8407 20.5477 91.4339 20.0272C91.0268 19.5067 90.4165 19.2464 89.6027 19.2464C88.6248 19.2464 87.8535 19.5594 87.289 20.1854C86.7246 20.8113 86.4423 21.6646 86.4423 22.7452V29.0015H84.6211V17.9319H86.4423V19.6517C86.8756 18.9862 87.384 18.4887 87.9684 18.1592C88.5591 17.8298 89.2384 17.6651 90.0061 17.665C91.2729 17.6651 92.2311 18.0604 92.8809 18.8511C93.5307 19.6352 93.8555 20.7915 93.8555 22.3202Z"
            fill="#333333" />
        <path
            d="M108.355 15.2042V17.3094C107.686 16.6835 106.97 16.2157 106.209 15.906C105.454 15.5963 104.65 15.4414 103.797 15.4414C102.117 15.4415 100.83 15.9587 99.9376 16.9932C99.0451 18.0211 98.5988 19.5102 98.5988 21.4606C98.5988 23.4043 99.0451 24.8935 99.9376 25.9279C100.83 26.9558 102.116 27.4698 103.797 27.4698C104.65 27.4698 105.454 27.315 106.209 27.0053C106.97 26.6956 107.685 26.2278 108.355 25.6018V27.6872C107.659 28.1617 106.921 28.5175 106.14 28.7547C105.366 28.9919 104.545 29.1105 103.679 29.1105C101.454 29.1105 99.7016 28.4285 98.4218 27.0646C97.1421 25.6941 96.502 23.826 96.502 21.4606C96.502 19.0885 97.1418 17.2205 98.4218 15.8566C99.7015 14.4861 101.454 13.8008 103.679 13.8008C104.558 13.8008 105.385 13.9194 106.16 14.1566C106.941 14.3872 107.672 14.7364 108.355 15.2042Z"
            fill="#B3B3B3" />
        <path
            d="M115.64 19.0292C114.669 19.0292 113.901 19.4113 113.336 20.1757C112.772 20.9334 112.49 21.9745 112.49 23.2989C112.49 24.6233 112.769 25.6676 113.327 26.432C113.891 27.1897 114.662 27.5686 115.64 27.5686C116.605 27.5686 117.369 27.1865 117.934 26.4221C118.498 25.6578 118.781 24.6167 118.781 23.2989C118.781 21.9877 118.498 20.9499 117.934 20.1856C117.369 19.4146 116.605 19.0292 115.64 19.0292ZM115.64 17.4873C117.215 17.4873 118.453 18.0013 119.352 19.0292C120.251 20.057 120.7 21.4803 120.7 23.2989C120.7 25.1109 120.251 26.5341 119.352 27.5686C118.452 28.5965 117.215 29.1104 115.64 29.1104C114.058 29.1104 112.818 28.5965 111.919 27.5686C111.026 26.5341 110.58 25.1109 110.58 23.2989C110.58 21.4803 111.026 20.0571 111.919 19.0292C112.818 18.0013 114.059 17.4873 115.64 17.4873Z"
            fill="#B3B3B3" />
        <path
            d="M130.082 19.4542C129.879 19.3356 129.656 19.2499 129.413 19.1972C129.177 19.1379 128.914 19.1083 128.625 19.1082C127.601 19.1083 126.814 19.4443 126.262 20.1164C125.718 20.7819 125.445 21.7406 125.445 22.9925V28.8238H123.624V17.7542H125.445V19.4739C125.826 18.8018 126.322 18.3044 126.932 17.9815C127.542 17.652 128.284 17.4873 129.157 17.4873C129.282 17.4873 129.419 17.4972 129.57 17.517C129.721 17.5301 129.889 17.5532 130.072 17.5861L130.082 19.4542Z"
            fill="#B3B3B3" />
        <path
            d="M141 22.8344V23.7239H132.671C132.75 24.9758 133.124 25.9312 133.794 26.5901C134.47 27.2424 135.408 27.5686 136.609 27.5686C137.305 27.5686 137.978 27.4829 138.627 27.3116C139.284 27.1403 139.933 26.8833 140.577 26.5407V28.2605C139.927 28.5372 139.261 28.7481 138.578 28.893C137.896 29.038 137.203 29.1104 136.501 29.1104C134.742 29.1104 133.347 28.5965 132.317 27.5686C131.293 26.5407 130.781 25.1504 130.781 23.3977C130.781 21.5857 131.267 20.1493 132.238 19.0885C133.216 18.021 134.532 17.4873 136.186 17.4873C137.669 17.4873 138.841 17.9683 139.701 18.9303C140.567 19.8857 141 21.1871 141 22.8344ZM139.189 22.3006C139.176 21.3057 138.897 20.5117 138.352 19.9187C137.814 19.3257 137.099 19.0292 136.206 19.0292C135.195 19.0292 134.385 19.3158 133.774 19.8891C133.171 20.4623 132.823 21.2695 132.731 22.3105L139.189 22.3006Z"
            fill="#B3B3B3" />
        <path
            d="M21.4307 23.5571C19.9726 29.4052 14.0488 32.9642 8.19941 31.5059C2.3524 30.0479 -1.20705 24.1245 0.251806 18.2768C1.7093 12.428 7.63306 8.86866 13.4808 10.3267C19.3298 11.7847 22.8889 17.7088 21.4307 23.5571Z"
            fill="#F7931A" />
        <path
            d="M15.6179 19.7704C15.8348 18.3153 14.7312 17.533 13.2223 17.0112L13.7117 15.04L12.5166 14.741L12.0401 16.6602C11.7259 16.5816 11.4032 16.5075 11.0826 16.434L11.5625 14.5021L10.3681 14.2031L9.87819 16.1736C9.6182 16.1141 9.36293 16.0553 9.1151 15.9935L7.46826 15.5742L7.15035 16.8557C7.15035 16.8557 8.03702 17.0597 8.01832 17.0723C8.50235 17.1936 8.58983 17.5152 8.57525 17.7701L8.01773 20.0157L7.23414 23.1698C7.17491 23.3174 7.0248 23.5389 6.68651 23.4548C6.69842 23.4722 5.81786 23.2371 5.81786 23.2371L5.22461 24.6105L6.77989 24.9998C7.06921 25.0726 7.35277 25.1488 7.63188 25.2205L7.13733 27.2142L8.33105 27.5133L8.82087 25.5408C9.14697 25.6296 9.46349 25.7116 9.77328 25.7889L9.28509 27.7522L10.4802 28.0513L10.9748 26.0613C13.0127 26.4485 14.5451 26.2923 15.1901 24.4419C15.7099 22.9519 15.1643 22.0925 14.092 21.532C14.8729 21.3512 15.461 20.8356 15.6179 19.7704ZM12.8873 23.6145C12.518 25.1044 10.0192 24.299 9.20906 24.0971L9.86532 21.4558C10.6754 21.6588 13.2734 22.0606 12.8873 23.6145ZM13.257 19.7488C12.92 21.1041 10.8403 20.4155 10.1656 20.2467L10.7606 17.8512C11.4352 18.02 13.6079 18.335 13.257 19.7488Z"
            fill="white" />
    </g>
    <defs>
        <clipPath id="clip0_1169_8135">
            <rect width="175" height="42" fill="white" />
        </clipPath>
    </defs>
</svg>