<svg width="80" height="80" viewBox="0 0 80 80" fill="none" xmlns="http://www.w3.org/2000/svg">
    <path d="M68 32.5V22C68 18.6863 65.3137 16 62 16H14C10.6863 16 8 18.6863 8 22V58C8 61.3137 10.6863 64 14 64H40"
        stroke="#000" />
    <path
        d="M64.7866 35.585C65.1621 35.2104 65.6709 35 66.2013 35C66.7317 35 67.2404 35.2104 67.6159 35.585L69.0307 36.9997C70.076 38.0451 70.7128 39.4201 70.9236 41.0867C71.1192 42.6325 70.9388 44.3661 70.3879 46.2385C69.2827 49.9999 66.7903 53.9543 63.3719 57.3718C59.9534 60.7892 55.9997 63.2826 52.2396 64.3878C50.8543 64.7952 49.5456 65 48.3327 65C47.9162 65.0007 47.5 64.9751 47.0867 64.9235M64.7866 35.585L65.1402 35.9385L65.1399 35.9388C65.4217 35.6578 65.8033 35.5 66.2013 35.5C66.5992 35.5 66.9808 35.6578 67.2626 35.9387L67.2623 35.9385L67.6159 35.585L67.2628 35.9389L68.6771 37.3533C69.6335 38.3097 70.2286 39.5771 70.4275 41.1494L70.4275 41.1495C70.6126 42.6119 70.4445 44.2749 69.9082 46.0974L69.9082 46.0976C68.8315 49.7619 66.3913 53.6462 63.0184 57.0182C59.6453 60.3902 55.7616 62.8314 52.0986 63.9081L52.0985 63.9081C50.7507 64.3045 49.4899 64.5 48.3327 64.5H48.3319C47.9363 64.5006 47.5412 64.4764 47.1487 64.4273M64.7866 35.585L58.5616 41.8097M64.7866 35.585L65.1398 35.939L58.9156 42.1628M47.1487 64.4273C47.149 64.4273 47.1492 64.4274 47.1495 64.4274L47.0867 64.9235M47.1487 64.4273L47.0867 64.9235M47.1487 64.4273C45.5767 64.2283 44.3095 63.6332 43.3533 62.677L41.9389 61.2626M47.0867 64.9235C45.4201 64.7126 44.0451 64.0759 42.9997 63.0305L41.585 61.6158M41.585 61.6158L41.9389 61.2626M41.585 61.6158C41.2104 61.2403 41 60.7315 41 60.2011C41 59.6707 41.2104 59.162 41.585 58.7865M41.585 61.6158L41.9385 61.2622L41.9389 61.2626M41.9389 61.2626C41.6579 60.9809 41.5 60.5991 41.5 60.2011C41.5 59.8033 41.6577 59.4218 41.9385 59.1401M41.585 58.7865L41.9385 59.1401M41.585 58.7865L41.939 59.1397M41.585 58.7865L47.8097 52.5615M41.9385 59.1401C41.9387 59.1399 41.9388 59.1398 41.939 59.1397M41.9385 59.1401L41.939 59.1397M41.939 59.1397L48.1633 52.9151M41.939 59.1397L48.1629 52.9155M41.939 59.1397L48.1629 52.9155M47.8097 52.5615C48.1853 52.1869 48.6941 51.9765 49.2245 51.9765C49.7549 51.9765 50.2637 52.1869 50.6393 52.5615M47.8097 52.5615L48.1629 52.9155M47.8097 52.5615L48.1633 52.9151M50.6393 52.5615L52.054 53.9763C52.8543 54.7766 55.4457 53.98 57.7128 51.7127C59.9799 49.4454 60.7779 46.8553 59.9764 46.054M50.6393 52.5615L50.2861 52.9155M50.6393 52.5615L50.2857 52.9151L50.2861 52.9155M59.9764 46.054L58.5616 44.6392M59.9764 46.054L60.3299 45.7004L58.9156 44.2861L58.5616 44.6392M59.9764 46.054L60.3299 45.7004C60.6581 46.0285 60.7767 46.4909 60.7796 46.9542C60.7826 47.4233 60.6693 47.9548 60.4641 48.5076C60.0528 49.6157 59.243 50.8895 58.0664 52.0663C56.8897 53.2431 55.6156 54.0526 54.5073 54.4637C53.9544 54.6687 53.4229 54.782 52.9539 54.7791C52.4908 54.7762 52.0285 54.6578 51.7005 54.3299L50.2861 52.9155M58.5616 44.6392C58.187 44.2637 57.9766 43.7549 57.9766 43.2245C57.9766 42.694 58.187 42.1852 58.5616 41.8097M58.5616 44.6392L58.9152 44.2857L58.9153 44.2857C58.6344 44.004 58.4766 43.6223 58.4766 43.2245C58.4766 42.8264 58.6345 42.4446 58.9156 42.1628M58.5616 41.8097L58.9156 42.1628M58.5616 41.8097L58.9152 42.1633L58.9156 42.1628M50.2861 52.9155C50.0043 52.6344 49.6225 52.4765 49.2245 52.4765C48.8267 52.4765 48.4451 52.6343 48.1633 52.9151M48.1633 52.9151L48.1629 52.9155"
        fill="#D9D9D9" stroke="black" />
    <rect x="16" y="26" width="44" height="5" rx="1" fill="#D9D9D9" stroke="black" />
    <rect x="16" y="36" width="27" height="5" rx="1" fill="white" stroke="black" />
    <rect x="16" y="46" width="27" height="5" rx="1" fill="#D9D9D9" stroke="black" />
    <rect x="59" y="56" width="13" height="9" rx="2" fill="white" stroke="#000" />
    <path d="M69 56V54.5C69 52.567 67.433 51 65.5 51C63.567 51 62 52.567 62 54.5V56H69Z" fill="white" stroke="#000" />
</svg>