<svg width="133" height="254" viewBox="0 0 133 254" fill="none" xmlns="http://www.w3.org/2000/svg">
    <path
        d="M58.9489 252.671L4.07934 226.557C2.1833 225.669 1.00701 224.476 1.00004 223.224C0.991562 221.703 2.48544 219.883 5.13944 218.619L57.7798 193.266C62.6195 190.962 69.9083 190.722 74.0483 192.69L129.164 219.408C131.058 220.297 131.991 221.488 132 222.739C132.01 224.261 130.654 225.872 127.998 227.137L75.2173 252.095C70.3776 254.399 63.0889 254.639 58.9489 252.671Z"
        fill="#333333" />
    <path
        d="M58.9489 217.566L4.07934 191.2C2.1833 190.302 1.00701 189.098 1.00004 187.833C0.991562 186.298 2.48544 184.46 5.13944 183.184L57.7798 157.585C62.6196 155.259 69.9083 155.016 74.0483 157.004L129.164 183.981C131.059 184.878 131.991 186.08 132 187.344C132.01 188.881 130.654 190.508 127.998 191.785L75.2174 216.985C70.3777 219.311 63.0889 219.553 58.9489 217.566Z"
        fill="#6A6E7C" />
    <rect x="1" y="68.043" width="130.513" height="97.8723" fill="url(#paint0_linear_1169_8053)" fill-opacity="0.3" />
    <path
        d="M58.9489 179.767L4.07934 153.401C2.1833 152.503 1.00701 151.299 1.00004 150.035C0.991562 148.499 2.48544 146.661 5.13944 145.386L57.7798 119.786C62.6196 117.46 69.9083 117.218 74.0483 119.205L129.164 146.182C131.059 147.079 131.991 148.282 132 149.545C132.01 151.082 130.654 152.709 127.998 153.986L75.2174 179.186C70.3777 181.512 63.0889 181.755 58.9489 179.767Z"
        fill="#AAB0C4" />
    <path
        d="M58.9489 140.01L4.07934 113.643C2.1833 112.745 1.00701 111.542 1.00004 110.277C0.991562 108.741 2.48544 106.904 5.13944 105.628L57.7798 80.0286C62.6196 77.7022 69.9083 77.4598 74.0483 79.447L129.164 106.425C131.059 107.321 131.991 108.524 132 109.787C132.01 111.324 130.654 112.951 127.998 114.228L75.2174 139.428C70.3777 141.754 63.0889 141.997 58.9489 140.01Z"
        fill="#4B7CDD" />
    <path
        d="M58.7754 98.2824L3.83922 71.6429C-0.364182 69.6352 0.161243 66.1094 5.00683 63.7588L57.6078 38.2946C62.4533 35.9441 69.7509 35.6992 73.896 37.707L128.832 64.3465C133.035 66.3542 132.51 69.88 127.664 72.2306L75.0636 97.6948C70.218 100.045 62.9204 100.29 58.7754 98.2824Z"
        fill="#ADC2EB" />
    <path
        d="M58.9489 62.9041L4.07934 36.5374C2.1833 35.64 1.00701 34.4361 1.00004 33.1712C0.991562 31.6354 2.48544 29.7981 5.13944 28.5223L57.7798 2.92318C62.6196 0.596702 69.9083 0.354359 74.0483 2.34156L129.164 29.3191C131.059 30.2158 131.991 31.4183 132 32.6819C132.01 34.2187 130.654 35.8457 127.998 37.1225L75.2174 62.3225C70.3777 64.649 63.0889 64.8913 58.9489 62.9041Z"
        fill="white" stroke="black" />
    <defs>
        <linearGradient id="paint0_linear_1169_8053" x1="66.2565" y1="68.043" x2="66.2565" y2="165.915"
            gradientUnits="userSpaceOnUse">
            <stop stop-color="#4B7CDD" />
            <stop offset="1" stop-color="#4B7CDD" stop-opacity="0" />
        </linearGradient>
    </defs>
</svg>