<svg fill="none" height="126" viewBox="0 0 126 126" width="126" xmlns="http://www.w3.org/2000/svg"><g stroke-linecap="round" stroke-linejoin="round"><path d="m69.1289 98.6699h29.2531v-79.4538c0-1.2797-.6124-2.4822-1.6473-3.2349l-3.0469-2.2159c-.6837-.4972-1.5073-.7651-2.3527-.7651h-18.2062c-2.2091 0-4 1.7909-4 4z" fill="#bcbcbc" stroke="#333"/><path d="m67.0391 98.6699h27.1635v-81.6697c0-2.2091-1.7908-4-4-4h-19.1635c-2.2092 0-4 1.7909-4 4z" fill="#bcbcbc" stroke="#333"/><path d="m88.9773 27.627-3.5652-2.0896-3.748 2.0896" stroke="#d9d9d9" stroke-width="2"/></g><rect fill="#d9d9d9" height="16.716" rx="1.56713" width="3.13426" x="72.2617" y="42.252"/><path clip-rule="evenodd" d="m86.8941 34.4167c0-.8655.7016-1.5671 1.5671-1.5671s1.5671.7016 1.5671 1.5671v3.1343c0 .8655-.7016 1.5671-1.5671 1.5671s-1.5671-.7016-1.5671-1.5671zm0 10.4473c0-.8655.7016-1.5671 1.5671-1.5671s1.5671.7016 1.5671 1.5671v3.1343c0 .8655-.7016 1.5671-1.5671 1.5671s-1.5671-.7016-1.5671-1.5671zm1.5671 8.8821c-.8655 0-1.5671.7016-1.5671 1.5671v3.1343c0 .8655.7016 1.5671 1.5671 1.5671s1.5671-.7016 1.5671-1.5671v-3.1343c0-.8655-.7016-1.5671-1.5671-1.5671zm-1.5671 12.0124c0-.8655.7016-1.5671 1.5671-1.5671s1.5671.7016 1.5671 1.5671v3.1343c0 .8655-.7016 1.5671-1.5671 1.5671s-1.5671-.7016-1.5671-1.5671z" fill="#d9d9d9" fill-rule="evenodd"/><path clip-rule="evenodd" d="m80.6245 34.4167c0-.8655.7017-1.5671 1.5672-1.5671s1.5671.7016 1.5671 1.5671v3.1343c0 .8655-.7016 1.5671-1.5671 1.5671s-1.5672-.7016-1.5672-1.5671zm0 10.4473c0-.8655.7017-1.5671 1.5672-1.5671s1.5671.7016 1.5671 1.5671v3.1343c0 .8655-.7016 1.5671-1.5671 1.5671s-1.5672-.7016-1.5672-1.5671zm1.5672 8.8821c-.8655 0-1.5672.7016-1.5672 1.5671v3.1343c0 .8655.7017 1.5671 1.5672 1.5671s1.5671-.7016 1.5671-1.5671v-3.1343c0-.8655-.7016-1.5671-1.5671-1.5671zm-1.5672 12.0124c0-.8655.7017-1.5671 1.5672-1.5671s1.5671.7016 1.5671 1.5671v3.1343c0 .8655-.7016 1.5671-1.5671 1.5671s-1.5672-.7016-1.5672-1.5671z" fill="#d9d9d9" fill-rule="evenodd"/><path d="m15.5114 57.1731c-4.2182 7.3062-1.613 16.7075 4.1136 20.0137 19.674 11.3587 39.0212 22.8472 58.6952 34.2052 5.1553 2.977 14.7653 2.31 18.8156-6.751 4.5222-10.119-.9016-17.8925-5.3162-20.4413 0 0-37.2731-22.1284-56.919-33.4709-5.7266-3.3063-15.171-.8619-19.3892 6.4443z" fill="#e9e9e9" stroke="#333" stroke-linecap="round" stroke-linejoin="round"/><path d="m15.1035 58.131c-3.929 6.8054-1.1414 15.7706 4.5357 19.0482 19.5039 11.2606 35.8824 21.0235 55.3864 32.2838 5.677 3.278 14.8349 1.21 18.764-5.596 3.9291-6.8051 1.1414-15.7703-4.5356-19.048-19.5092-11.2636-35.9103-21.0395-55.3864-32.2841-5.6771-3.2776-14.835-1.2092-18.7641 5.5961z" fill="#e9e9e9" stroke="#333" stroke-linecap="round" stroke-linejoin="round"/><path d="m54.7785 89.2073-.4658.8068 5.5588 3.2094 2.1011-3.6391-.81-.4677-1.6352 2.8323zm6.934-12.01-.4659.8069 4.7489 2.7418-1.6354 2.8324.81.4677 2.1012-3.6394zm-6.4707 4.5873 1.0825-1.875 1.2706.7336c.6195.3577.7231.6917.3988 1.2535l-.1919.3323c-.3334.5775-.6621.6514-1.2894.2892zm1.8251 1.4968c.6664.1843 1.382-.12 1.7519-.7607.233-.4034.2844-.8591.1518-1.3261-.1711-.5841-.5744-1.0595-1.2335-1.44l-1.7867-1.0315-3.1974 5.5381.7942.4585 1.2743-2.2072 1.1913.6877c.6113.353.7114.7483.3459 1.3814l-.7628 1.3212.81.4677.6898-1.1947c.5024-.8703.4878-1.3217-.0928-1.7836zm-6.7913-3.6785 2.4459 1.4122.4202-.7278-2.4459-1.4122.9592-1.6615 2.6842 1.5497.4202-.7279-3.4942-2.0174-3.1975 5.5382 3.6134 2.0861.4202-.7278-2.8033-1.6185zm-2.8295-1.2432-.2192.3797c-.4614.7991-.906.8906-1.6445.4643l-.1746-.1009c-.7387-.4264-.9589-.8702-.324-1.9699l.8588-1.4874c.6394-1.1076 1.1453-1.1216 1.8837-.6953l.1587.0916c.7227.4173.7977.8193.3761 1.5675l.8736.5044c.551-1.1377.2178-2.2477-.8782-2.8804-.532-.3071-1.0727-.3977-1.5888-.2739-.7698.178-1.5045.8087-2.144 1.9163-.6167 1.0681-.8352 1.9969-.626 2.7715.1462.5169.5063.9569.959 1.2182.4764.2751 1.023.3374 1.4827.0544l.1111.0641-.3015.5222.7306.4218 1.6489-2.856-2.1521-1.2425-.4202.7278zm-5.4554-6.7258.8657.4998c.818.4722 1.144.9347.5044 2.0424l-.8404 1.4557c-.6394 1.1075-1.203 1.0566-2.021.5843l-.8657-.4998zm-1.8403 5.3514c1.5168.8758 2.7428.054 3.6792-1.5679.9501-1.6456.9953-3.1174-.4978-3.9794l-1.7153-.9904-3.1974 5.5381zm-4.1689-5.635 2.446 1.4121.4202-.7278-2.4459-1.4122.9592-1.6615 2.6841 1.5497.4202-.7279-3.4942-2.0174-3.1975 5.5381 3.6135 2.0863.4202-.7279-2.8033-1.6184zm-2.8856-5.8223-.8099-.4676-3.1974 5.5381 3.6529 2.1091.4203-.7279-2.8431-1.6414zm-9.5743 1.8567-2.1012 3.6393 5.5588 3.2094.466-.8071-4.7489-2.7417 1.6352-2.8323zm5.2987-9.1777-2.1012 3.6394.81.4676 1.6353-2.8324 4.7488 2.7417.4659-.8069z" fill="#333"/><ellipse cx="80.9222" cy="96.4974" fill="#bcbcbc" rx="5.85842" ry="5.8646" stroke="#333" stroke-linecap="round" stroke-linejoin="round" transform="matrix(.5 -.8660254 .8660254 .5 -43.1081 118.329381)"/></svg>