<svg width="23" height="17" viewBox="0 0 23 17" fill="none" xmlns="http://www.w3.org/2000/svg">
<path fill-rule="evenodd" clip-rule="evenodd" d="M15.7986 14.1937L16.7448 16.1439C18.2365 15.9517 21.4438 14.8755 22.3389 12.1082C23.0848 8.84115 22.6745 1.84588 15.0665 0.000976562C15.752 0.589723 16.5321 1.51034 17.1428 2.68989C15.558 1.68277 13.5214 1.07715 11.2998 1.07715C9.07854 1.07715 7.04221 1.68256 5.45757 2.68938C6.06824 1.51026 6.84803 0.589961 7.53337 0.00136532C-0.0746355 1.84627 -0.484871 8.84154 0.261012 12.1086C1.15607 14.8759 4.36337 15.9521 5.85513 16.1443L6.80128 14.1941C5.75683 13.5227 4.9728 12.6221 4.58173 11.5936C6.02887 13.039 8.49764 13.9911 11.3 13.9911C14.1017 13.9911 16.57 13.0394 18.0173 11.5945C17.6262 12.6225 16.8425 13.5226 15.7986 14.1937ZM14.5287 9.68711C15.4202 9.68711 16.143 8.96437 16.143 8.07282C16.143 7.18127 15.4202 6.45852 14.5287 6.45852C13.6371 6.45852 12.9144 7.18127 12.9144 8.07282C12.9144 8.96437 13.6371 9.68711 14.5287 9.68711ZM8.07136 9.68798C8.96291 9.68798 9.68565 8.96523 9.68565 8.07368C9.68565 7.18213 8.96291 6.45939 8.07136 6.45939C7.17981 6.45939 6.45707 7.18213 6.45707 8.07368C6.45707 8.96523 7.17981 9.68798 8.07136 9.68798Z" fill="#363C40"/>
</svg>
