<svg width="22" height="18" viewBox="0 0 22 18" fill="none" xmlns="http://www.w3.org/2000/svg">
<path d="M2.86234 4.20299C2.87579 4.07147 2.85859 3.93862 2.81209 3.81486C2.7656 3.6911 2.69106 3.57979 2.59434 3.48966L0.602341 1.03366V0.666992H6.78634L11.5677 11.3977L15.7703 0.666992H21.6663V1.03366L19.9637 2.70699C19.8915 2.76406 19.8358 2.8394 19.8025 2.9252C19.7692 3.01101 19.7595 3.10416 19.7743 3.19499V15.475C19.7437 15.6617 19.817 15.8483 19.9637 15.963L21.6263 17.635V18.0003H13.261V17.6337L14.9837 15.9217C15.153 15.7483 15.153 15.6977 15.153 15.4323V5.50699L10.3623 17.9603H9.71434L4.13701 5.50699V13.8537C4.11397 14.0262 4.12979 14.2017 4.18332 14.3673C4.23684 14.533 4.3267 14.6846 4.44634 14.811L6.68634 17.5923V17.959H0.333008V17.5923L2.57301 14.811C2.81301 14.5577 2.91967 14.2017 2.86234 13.8523V4.20299Z" fill="#363C40"/>
</svg>
