<svg width="24" height="19" viewBox="0 0 24 19" fill="none" xmlns="http://www.w3.org/2000/svg">
<path d="M23.9961 2.25363C23.3166 3.22399 22.4941 4.05057 21.5287 4.73337C21.5391 4.87145 21.5443 5.07921 21.5443 5.35664C21.5443 6.6437 21.3513 7.92759 20.9654 9.20832C20.5795 10.489 19.9935 11.7185 19.2074 12.8966C18.4213 14.0747 17.4851 15.1166 16.3989 16.0224C15.3127 16.9282 14.0029 17.6509 12.4697 18.1905C10.9365 18.7302 9.29739 19 7.55238 19C4.80169 19 2.28423 18.2824 0 16.8471C0.354718 16.8864 0.750366 16.906 1.18694 16.906C3.47117 16.906 5.50658 16.2232 7.29316 14.8576C6.22771 14.8373 5.27335 14.5181 4.43008 13.8999C3.58681 13.2817 3.00796 12.4925 2.69352 11.5323C3.02875 11.5817 3.33864 11.6064 3.62319 11.6064C4.05977 11.6064 4.49115 11.5519 4.91733 11.4429C3.78041 11.2149 2.83905 10.6632 2.09323 9.78788C1.34741 8.91252 0.974501 7.89592 0.974501 6.73807V6.67917C1.66445 7.05541 2.40572 7.25809 3.19831 7.28723C2.52785 6.85145 1.99513 6.28266 1.60013 5.58086C1.20513 4.87905 1.00698 4.11708 1.00568 3.29493C1.00568 2.42338 1.22917 1.61706 1.67614 0.875988C2.90401 2.35054 4.3989 3.53055 6.16079 4.41604C7.92269 5.30153 9.80802 5.79368 11.8168 5.89249C11.7362 5.51625 11.696 5.15015 11.696 4.79418C11.696 3.46785 12.1754 2.33723 13.1343 1.40234C14.0932 0.467447 15.2529 0 16.6133 0C18.0348 0 19.2327 0.504817 20.2072 1.51445C21.3143 1.3067 22.355 0.920959 23.3295 0.357236C22.954 1.49482 22.2336 2.37587 21.1681 3.0004C22.1127 2.90159 23.0567 2.65393 24 2.25743L23.9961 2.25363Z" fill="#363C40"/>
</svg>
