<svg width="190" height="42" viewBox="0 0 190 42" fill="none" xmlns="http://www.w3.org/2000/svg">
<path d="M37.9176 32V14.5455H44.3097C45.5483 14.5455 46.5739 14.75 47.3864 15.1591C48.1989 15.5625 48.8068 16.1108 49.2102 16.804C49.6136 17.4915 49.8153 18.267 49.8153 19.1307C49.8153 19.858 49.6818 20.4716 49.4148 20.9716C49.1477 21.4659 48.7898 21.8636 48.3409 22.1648C47.8977 22.4602 47.4091 22.6761 46.875 22.8125V22.983C47.4545 23.0114 48.0199 23.1989 48.571 23.5455C49.1278 23.8864 49.5881 24.3722 49.9517 25.0028C50.3153 25.6335 50.4972 26.4006 50.4972 27.304C50.4972 28.196 50.2869 28.9972 49.8665 29.7074C49.4517 30.4119 48.8097 30.9716 47.9403 31.3864C47.071 31.7955 45.9602 32 44.608 32H37.9176ZM40.5511 29.7415H44.3523C45.6136 29.7415 46.517 29.4972 47.0625 29.0085C47.608 28.5199 47.8807 27.9091 47.8807 27.1761C47.8807 26.625 47.7415 26.1193 47.4631 25.6591C47.1847 25.1989 46.7869 24.8324 46.2699 24.5597C45.7585 24.2869 45.1506 24.1506 44.446 24.1506H40.5511V29.7415ZM40.5511 22.0966H44.0795C44.6705 22.0966 45.2017 21.983 45.6733 21.7557C46.1506 21.5284 46.5284 21.2102 46.8068 20.8011C47.0909 20.3864 47.233 19.8977 47.233 19.3352C47.233 18.6136 46.9801 18.0085 46.4744 17.5199C45.9688 17.0312 45.1932 16.7869 44.1477 16.7869H40.5511V22.0966ZM53.3202 32V18.9091H55.8685V32H53.3202ZM54.6071 16.8892C54.1639 16.8892 53.7833 16.7415 53.4651 16.446C53.1526 16.1449 52.9963 15.7869 52.9963 15.3722C52.9963 14.9517 53.1526 14.5937 53.4651 14.2983C53.7833 13.9972 54.1639 13.8466 54.6071 13.8466C55.0503 13.8466 55.4281 13.9972 55.7406 14.2983C56.0588 14.5937 56.2179 14.9517 56.2179 15.3722C56.2179 15.7869 56.0588 16.1449 55.7406 16.446C55.4281 16.7415 55.0503 16.8892 54.6071 16.8892ZM65.3116 18.9091V20.9545H58.161V18.9091H65.3116ZM60.0786 15.7727H62.6269V28.1562C62.6269 28.6506 62.7008 29.0227 62.8485 29.2727C62.9962 29.517 63.1866 29.6847 63.4195 29.7756C63.6581 29.8608 63.9167 29.9034 64.1951 29.9034C64.3996 29.9034 64.5786 29.8892 64.732 29.8608C64.8854 29.8324 65.0047 29.8097 65.09 29.7926L65.5502 31.8977C65.4025 31.9545 65.1922 32.0114 64.9195 32.0682C64.6468 32.1307 64.3059 32.1648 63.8968 32.1705C63.2263 32.1818 62.6013 32.0625 62.0218 31.8125C61.4422 31.5625 60.9735 31.1761 60.6155 30.6534C60.2576 30.1307 60.0786 29.4744 60.0786 28.6847V15.7727ZM68.5202 32V14.5455H74.9123C76.1509 14.5455 77.1765 14.75 77.989 15.1591C78.8015 15.5625 79.4094 16.1108 79.8129 16.804C80.2163 17.4915 80.418 18.267 80.418 19.1307C80.418 19.858 80.2844 20.4716 80.0174 20.9716C79.7504 21.4659 79.3924 21.8636 78.9435 22.1648C78.5004 22.4602 78.0117 22.6761 77.4776 22.8125V22.983C78.0572 23.0114 78.6225 23.1989 79.1736 23.5455C79.7305 23.8864 80.1907 24.3722 80.5543 25.0028C80.918 25.6335 81.0998 26.4006 81.0998 27.304C81.0998 28.196 80.8896 28.9972 80.4691 29.7074C80.0543 30.4119 79.4123 30.9716 78.543 31.3864C77.6736 31.7955 76.5629 32 75.2106 32H68.5202ZM71.1538 29.7415H74.9549C76.2163 29.7415 77.1197 29.4972 77.6651 29.0085C78.2106 28.5199 78.4833 27.9091 78.4833 27.1761C78.4833 26.625 78.3441 26.1193 78.0657 25.6591C77.7873 25.1989 77.3896 24.8324 76.8725 24.5597C76.3611 24.2869 75.7532 24.1506 75.0486 24.1506H71.1538V29.7415ZM71.1538 22.0966H74.6822C75.2731 22.0966 75.8043 21.983 76.2759 21.7557C76.7532 21.5284 77.131 21.2102 77.4094 20.8011C77.6935 20.3864 77.8356 19.8977 77.8356 19.3352C77.8356 18.6136 77.5827 18.0085 77.0771 17.5199C76.5714 17.0312 75.7958 16.7869 74.7504 16.7869H71.1538V22.0966ZM89.437 32.2642C88.2098 32.2642 87.1387 31.983 86.224 31.4205C85.3092 30.858 84.599 30.071 84.0933 29.0597C83.5876 28.0483 83.3348 26.8665 83.3348 25.5142C83.3348 24.1562 83.5876 22.9687 84.0933 21.9517C84.599 20.9347 85.3092 20.1449 86.224 19.5824C87.1387 19.0199 88.2098 18.7386 89.437 18.7386C90.6643 18.7386 91.7353 19.0199 92.6501 19.5824C93.5649 20.1449 94.2751 20.9347 94.7808 21.9517C95.2865 22.9687 95.5393 24.1562 95.5393 25.5142C95.5393 26.8665 95.2865 28.0483 94.7808 29.0597C94.2751 30.071 93.5649 30.858 92.6501 31.4205C91.7353 31.983 90.6643 32.2642 89.437 32.2642ZM89.4455 30.125C90.241 30.125 90.9001 29.9148 91.4228 29.4943C91.9455 29.0739 92.3319 28.5142 92.5819 27.8153C92.8376 27.1165 92.9654 26.3466 92.9654 25.5057C92.9654 24.6705 92.8376 23.9034 92.5819 23.2045C92.3319 22.5 91.9455 21.9347 91.4228 21.5085C90.9001 21.0824 90.241 20.8693 89.4455 20.8693C88.6444 20.8693 87.9796 21.0824 87.4512 21.5085C86.9285 21.9347 86.5393 22.5 86.2836 23.2045C86.0336 23.9034 85.9086 24.6705 85.9086 25.5057C85.9086 26.3466 86.0336 27.1165 86.2836 27.8153C86.5393 28.5142 86.9285 29.0739 87.4512 29.4943C87.9796 29.9148 88.6444 30.125 89.4455 30.125ZM99.7835 18.9091L102.673 24.0057L105.587 18.9091H108.374L104.292 25.4545L108.408 32H105.622L102.673 27.108L99.7324 32H96.9369L101.011 25.4545L96.988 18.9091H99.7835Z" fill="#252525"/>
<path d="M0 30.6807V23.7143L5.79893 21.2941V10.4454L11.5632 8V25.8151L0 30.6807ZM26 30.7395V23.7815L20.2011 21.3529V10.5042L14.4367 8.07563V25.874L26 30.7395ZM13.0173 28.2521L1.48868 33.1429L13.0087 38L24.5719 33.1176L13.0173 28.2521Z" fill="#252525"/>
</svg>
