<svg width="32" height="32" viewBox="0 0 32 32" fill="none" xmlns="http://www.w3.org/2000/svg">
<circle cx="16" cy="16" r="16" fill="#F2F2F2"/>
<path d="M11.5264 9.46053L16.0001 7L20.4737 9.46053L16.0001 11.9211L11.5264 9.46053Z" fill="white"/>
<path d="M11.5264 9.46053L16.0001 7L20.4737 9.46053M11.5264 9.46053L16.0001 11.9211M11.5264 9.46053V14.3816L16.0001 16.8421M20.4737 9.46053L16.0001 11.9211M20.4737 9.46053V14.3816L16.0001 16.8421M16.0001 11.9211V16.8421" stroke="#333333" stroke-linejoin="round"/>
<path d="M7.05273 16.6187L11.5264 14.1582L16.0001 16.6187L11.5264 19.0793L7.05273 16.6187Z" fill="white"/>
<path d="M7.05273 16.6187L11.5264 14.1582L16.0001 16.6187M7.05273 16.6187L11.5264 19.0793M7.05273 16.6187V21.5398L11.5264 24.0003M16.0001 16.6187L11.5264 19.0793M16.0001 16.6187V21.5398L11.5264 24.0003M11.5264 19.0793V24.0003" stroke="#333333" stroke-linejoin="round"/>
<path d="M16 16.6187L20.4737 14.1582L24.9474 16.6187L20.4737 19.0793L16 16.6187Z" fill="white"/>
<path d="M16 16.6187L20.4737 14.1582L24.9474 16.6187M16 16.6187L20.4737 19.0793M16 16.6187V21.5398L20.4737 24.0003M24.9474 16.6187L20.4737 19.0793M24.9474 16.6187V21.5398L20.4737 24.0003M20.4737 19.0793V24.0003" stroke="#333333" stroke-linejoin="round"/>
</svg>
