<svg width="32" height="32" viewBox="0 0 32 32" fill="none" xmlns="http://www.w3.org/2000/svg">
<circle cx="16" cy="16" r="16" fill="#F2F2F2"/>
<path d="M16 8C12.837 8 9.67403 9.37313 8.4888 10.1361C8.17663 10.3371 8 10.6892 8 11.0659L8 17.9C8 20.6978 13.1132 26 16 26C18.8869 26 24 20.6978 24 17.9V11.0659C24 10.6892 23.8234 10.3371 23.5112 10.1361C22.326 9.37313 19.163 8 16 8Z" fill="white" stroke="#333333"/>
<path d="M26.5001 18.3399C26.5001 17.6172 24.8196 17.0312 22.8922 17.0312C20.9649 17.0312 19.5 17.7766 19.5 18.4994C19.5 20.3004 19.5 22.188 19.5 23.9994C19.5 24.607 21.0726 25.4994 23 25.4994C24.9274 25.4994 26.5 24.607 26.5 23.9994C26.5 22.1892 26.5001 20.1356 26.5001 18.3399Z" fill="white" stroke="#333333"/>
<path d="M26.5 21C26.5 21.7877 24.9274 22.5003 23 22.5003C21.0726 22.5003 19.5 21.788 19.5 21.0003" stroke="#333333"/>
<path d="M26.5 18.5C26.5 19.2877 24.9274 20.0003 23 20.0003C21.0726 20.0003 19.5 19.288 19.5 18.5003" stroke="#333333"/>
<path d="M13 16.5L15.3333 19L20 14" stroke="#333333" stroke-linecap="round" stroke-linejoin="round"/>
</svg>
