<svg width="48" height="48" viewBox="0 0 48 48" fill="none" xmlns="http://www.w3.org/2000/svg">
<path fill-rule="evenodd" clip-rule="evenodd" d="M30 6H13C10.7909 6 9 7.79086 9 10V38C9 40.2091 10.7909 42 13 42H35C37.2091 42 39 40.2091 39 38V14H32.5C31.1193 14 30 12.8807 30 11.5V6ZM40 13.5V14V38C40 40.7614 37.7614 43 35 43H13C10.2386 43 8 40.7614 8 38V10C8 7.23858 10.2386 5 13 5H30H30.5L31 5.44737L39.4412 13L40 13.5ZM37.9415 13L31 6.78921V11.5C31 12.3284 31.6716 13 32.5 13H37.9415ZM15 18H33V19H15V18ZM33 23H15V24H33V23ZM15 28H33V29H15V28ZM33 33H15V34H33V33Z" fill="#333333"/>
</svg>
