<svg width="48" height="48" viewBox="0 0 48 48" fill="none" xmlns="http://www.w3.org/2000/svg">
    <circle cx="7.5" cy="7.5" r="7" transform="matrix(-1 0 0 1 37 12)" stroke="#000" />
    <path
        d="M16.5 38C16.5 31.6487 21.6487 26.5 28 26.5H32C38.3513 26.5 43.5 31.6487 43.5 38C43.5 39.933 41.933 41.5 40 41.5H20C18.067 41.5 16.5 39.933 16.5 38Z"
        stroke="#000" />
    <path fill-rule="evenodd" clip-rule="evenodd"
        d="M13 16C13 20.4183 16.5817 24 21 24C21.7877 24 22.5489 23.8861 23.2679 23.674C23.4664 23.9698 23.6854 24.2508 23.9229 24.5147C23.0065 24.8293 22.0232 25 21 25C16.0294 25 12 20.9706 12 16C12 11.0294 16.0294 7 21 7C24.5385 7 27.6001 9.04211 29.0705 12.0121C28.7106 12.0324 28.3575 12.0781 28.0129 12.1474C26.6519 9.67515 24.0216 8 21 8C16.5817 8 13 11.5817 13 16Z"
        fill="#000" />
    <path fill-rule="evenodd" clip-rule="evenodd"
        d="M23.4995 24C23.7729 24.3641 24.0788 24.7025 24.4127 25.0109C24.2285 25.0037 24.0433 25 23.8571 25H19.1429C11.8399 25 6 30.6398 6 37.5C6 39.3897 7.61859 41 9.71429 41H17.3542C18.0593 41.6224 18.9856 42 20 42H9.71429C7.11066 42 5 39.9853 5 37.5C5 30.0442 11.332 24 19.1429 24H23.4995Z"
        fill="#000" />
    <path d="M27 21C27 22.1046 28.1193 23 29.5 23C30.8807 23 32 22.1046 32 21" stroke="#000" />
    <path d="M18.0013 18C18.0013 19.6569 19.3444 21 21.0013 21C21.6146 21 22.185 20.8159 22.6602 20.5" stroke="#000" />
</svg>