<svg width="48" height="48" viewBox="0 0 48 48" fill="none" xmlns="http://www.w3.org/2000/svg">
<path fill-rule="evenodd" clip-rule="evenodd" d="M8.0001 9.04155C8.00575 8.46245 8.30242 7.86011 8.94236 7.25938C9.58942 6.65196 10.5528 6.08192 11.7848 5.59273C14.2461 4.6155 17.6805 4 21.4993 4C25.3182 4 28.7526 4.6155 31.2138 5.59273C32.4459 6.08192 33.4092 6.65196 34.0563 7.25938C34.7025 7.86595 34.9987 8.47416 34.9987 9.05842L34.9987 9.46908C34.9877 10.0576 34.7079 10.662 34.122 11.2585C33.5218 11.8695 32.6231 12.4462 31.458 12.9429C29.1295 13.9356 25.8276 14.5704 22.0105 14.5704C18.1934 14.5704 14.6287 13.9357 12.0357 12.9363C10.7374 12.4359 9.70802 11.8538 9.01222 11.2352C8.31683 10.6169 8.00237 10.0081 8.00001 9.43933V9.37831L8.0001 9.04155ZM7.00063 8.99998C7.02015 8.07275 7.50312 7.23887 8.25794 6.53029C9.02769 5.8077 10.1145 5.18 11.4158 4.66332C14.0213 3.6288 17.5866 3 21.4993 3C25.4121 3 28.9773 3.6288 31.5829 4.66332C32.8842 5.18 33.971 5.8077 34.7407 6.53029C35.4955 7.23886 35.9785 8.07274 35.998 8.99995H35.9986L35.999 9.43286C35.999 9.44784 35.9989 9.46279 35.9987 9.47773L35.9987 13.0294L35.999 16.8898L35.9988 16.9258L35.9989 22.1035L35.999 23.9348L35.9989 23.9595L35.9989 27.0517C35.6722 27.021 35.3385 27.0032 34.9988 27.0004L34.9988 26.2873C34.9461 26.346 34.8916 26.4039 34.8354 26.4611C34.6455 26.6544 34.4346 26.8412 34.2043 27.0213C32.2391 27.1415 30.1089 27.7848 28 29.3035V29.5152C26.2037 29.873 24.1796 30.0723 22.0105 30.0723C18.0959 30.0723 14.4054 29.4232 11.6761 28.3713C10.3132 27.846 9.16462 27.2106 8.34778 26.4844C8.22521 26.3754 8.10901 26.2634 8.00004 26.1483L8 30.2781L8.00004 30.2893C8.00417 30.8652 8.32663 31.5203 9.02931 32.2064C9.73102 32.8916 10.765 33.5591 12.0617 34.1447C14.6527 35.3148 18.2093 36.1203 22.0105 36.1203C24.2056 36.1203 26.2317 35.8517 28 35.4008V36.4313C26.2043 36.867 24.1806 37.1203 22.0105 37.1203C18.08 37.1203 14.3814 36.2896 11.6501 35.0561C10.2856 34.4399 9.14163 33.7137 8.33069 32.9219C8.21438 32.8084 8.10391 32.6924 8.00003 32.5742L8 37.1567C8 37.7352 8.32207 38.3944 9.02931 39.085C9.73102 39.7701 10.765 40.4376 12.0617 41.0232C14.6527 42.1934 18.2093 42.9988 22.0105 42.9988C25.263 42.9988 28.1444 42.4091 30.3658 41.5106C30.6615 41.7587 30.9685 41.9896 31.2878 42.2049C28.8594 43.2905 25.6397 43.9988 22.0105 43.9988C18.08 43.9988 14.3814 43.1681 11.6501 41.9346C10.2856 41.3184 9.14163 40.5923 8.33069 39.8004C7.52529 39.014 7 38.113 7 37.1566L7.00004 30.2926L7 30.2781L7 23.9394L7 23.9348L7 23.7412L7.00001 16.8966L7 16.8899L7.00001 16.4812L7.00001 9.44123L7 9.4329L7.00001 9.37857L7.00001 9.05842L7.0001 9.03686L7.00011 8.99998H7.00063ZM34.8354 19.4162C34.8915 19.359 34.946 19.3011 34.9987 19.2426L34.9987 19.989L34.9988 23.9639C34.9899 24.5546 34.7102 25.1615 34.122 25.7604C33.5218 26.3714 32.6231 26.9481 31.458 27.4448C29.1295 28.4375 25.8276 29.0723 22.0105 29.0723C18.1934 29.0723 14.6287 28.4376 12.0357 27.4382C10.7374 26.9378 9.70802 26.3557 9.01222 25.7371C8.31958 25.1213 8.00486 24.5149 8.00006 23.948L8.0001 19.5144L8.0001 19.1035C8.10905 19.2185 8.22523 19.3305 8.34778 19.4395C9.16462 20.1657 10.3132 20.8011 11.6761 21.3264C14.4054 22.3783 18.0959 23.0274 22.0105 23.0274C25.9249 23.0274 29.3673 22.3783 31.8502 21.3198C33.0908 20.7908 34.1145 20.15 34.8354 19.4162ZM8.00001 11.6464L8.00001 11.9571H8.00011L8.00001 16.4781L8.00001 16.7207H8.00012L8.00012 16.909C8.00708 17.4742 8.32202 18.0785 9.01222 18.6922C9.70802 19.3108 10.7374 19.8929 12.0357 20.3933C14.6287 21.3926 18.1934 22.0274 22.0105 22.0274C25.8276 22.0274 29.1295 21.3926 31.458 20.3999C32.6231 19.9031 33.5218 19.3265 34.122 18.7154C34.7079 18.119 34.9877 17.5145 34.9987 16.926L34.9987 16.7207H34.9988L34.9987 13.0233L34.9986 11.9571H34.9987L34.9987 11.7855C34.946 11.8441 34.8915 11.902 34.8354 11.9592C34.1145 12.693 33.0908 13.3339 31.8502 13.8628C29.3673 14.9213 25.9249 15.5704 22.0105 15.5704C18.0959 15.5704 14.4054 14.9213 11.6761 13.8694C10.3132 13.3441 9.16462 12.7087 8.34778 11.9825C8.2252 11.8735 8.10899 11.7614 8.00001 11.6464Z" fill="#333333"/>
<path d="M28 38.4908V29.8157C28 29.4941 28.1548 29.189 28.4226 29.011C33.767 25.4578 39.1684 27.3651 41.6031 29.0168C41.8595 29.1909 42 29.4851 42 29.795V38.4753C42 38.6771 41.9395 38.8748 41.8226 39.0393C40.1733 41.3607 38.2034 43.0064 35.5 44C35.3033 44.0723 35.088 44.0766 34.8882 44.0133C31.9681 43.0886 29.8654 41.5593 28.162 39.0309C28.0546 38.8716 28 38.6829 28 38.4908Z" stroke="#333333" stroke-linejoin="round"/>
<path d="M32 34.7143L34.5455 37L39 33" stroke="#333333"/>
</svg>
