<svg width="32" height="32" viewBox="0 0 32 32" fill="none" xmlns="http://www.w3.org/2000/svg">
    <circle cx="16" cy="16" r="16" fill="#F2F2F2" />
    <path
        d="M18.0206 13.6724C19.0697 12.8985 19.7502 11.6537 19.7502 10.25C19.7502 7.90279 17.8474 6 15.5002 6C13.153 6 11.2502 7.90279 11.2502 10.25C11.2502 11.6376 11.9152 12.8699 12.9439 13.6456C10.1108 14.1487 7.81573 16.6929 7.10144 19.5657C6.59849 21.5884 8.02355 23 10.0973 23H19.2778H20.7186C22.7924 23 24.4105 21.5884 23.9076 19.5657C23.4294 17.6424 22.1734 15.8665 20.5355 14.7516C19.7675 14.2289 18.9156 13.8515 18.0206 13.6724Z"
        fill="white" stroke="#333333" stroke-linejoin="round" />
    <path
        d="M25.5001 17.3409C25.5001 16.6181 23.8196 16.0322 21.8922 16.0322C19.9649 16.0322 18.5 16.7776 18.5 17.5004C18.5 19.3014 18.5 21.189 18.5 23.0004C18.5 23.608 20.0726 24.5004 22 24.5004C23.9274 24.5004 25.5 23.608 25.5 23.0004C25.5 21.1902 25.5001 19.1366 25.5001 17.3409Z"
        fill="white" stroke="#333333" />
    <path d="M25.4998 20C25.4998 20.7877 23.9271 21.5003 21.9998 21.5003C20.0724 21.5003 18.4998 20.788 18.4998 20.0003"
        stroke="#333333" />
    <path d="M25.5 17.5C25.5 18.2877 23.9274 19.0003 22 19.0003C20.0726 19.0003 18.5 18.288 18.5 17.5003"
        stroke="#333333" />
</svg>