<svg width="32" height="32" viewBox="0 0 32 32" fill="none" xmlns="http://www.w3.org/2000/svg">
    <circle cx="16" cy="16" r="16" fill="#F2F2F2" />
    <path
        d="M16 8C12.837 8 9.67403 9.37313 8.4888 10.1361C8.17663 10.3371 8 10.6892 8 11.0659L8 17.9C8 20.6978 13.1132 26 16 26C18.8869 26 24 20.6978 24 17.9V11.0659C24 10.6892 23.8234 10.3371 23.5112 10.1361C22.326 9.37313 19.163 8 16 8Z"
        fill="white" stroke="black" />
    <path
        d="M15.5 16.5L15.5 19.5C15.5 19.7761 15.7239 20 16 20C16.2761 20 16.5 19.7761 16.5 19.5V16.5H19.5C19.7761 16.5 20 16.2761 20 16C20 15.7239 19.7761 15.5 19.5 15.5L16.5 15.5V12.5C16.5 12.2239 16.2761 12 16 12C15.7239 12 15.5 12.2239 15.5 12.5L15.5 15.5L12.5 15.5C12.2239 15.5 12 15.7239 12 16C12 16.2761 12.2239 16.5 12.5 16.5H15.5Z"
        fill="black" />
</svg>