<svg width="32" height="32" viewBox="0 0 32 32" fill="none" xmlns="http://www.w3.org/2000/svg">
    <circle cx="16" cy="16" r="16" fill="#F2F2F2" />
    <path
        d="M7.62943 23.4244L8.0678 23.6649L7.62943 23.4244C7.25101 24.1142 7.74759 25.045 8.61637 25L13.5291 24.9862L13.5452 24.9861L13.5612 24.9851C13.5682 24.9846 13.5789 24.9854 13.5926 24.9903L13.7599 24.5191L13.5926 24.9903C14.5228 25.3205 15.5232 25.5 16.5641 25.5C21.5028 25.5 25.5 21.467 25.5 16.5C25.5 11.533 21.5028 7.5 16.5641 7.5C11.6254 7.5 7.62822 11.533 7.62822 16.5C7.62822 18.1394 8.06387 19.6779 8.82548 21.003C8.84756 21.0414 8.84368 21.0807 8.83199 21.1025C8.82084 21.1234 8.80707 21.1447 8.77699 21.1914L8.77628 21.1925C8.7503 21.2328 8.70979 21.2956 8.67414 21.3677L7.77113 23.1927L8.21485 23.4123L7.77113 23.1927C7.76374 23.2077 7.75202 23.2273 7.72551 23.2682C7.72303 23.272 7.72034 23.2761 7.71744 23.2805C7.69472 23.3154 7.66008 23.3685 7.62943 23.4244Z"
        fill="white" stroke="#333333" />
    <path d="M20.5 17C20.5 19.3791 18.7091 21 16.5 21C14.2909 21 12.5 19.3791 12.5 17" stroke="#333333"
        stroke-linecap="round" stroke-linejoin="round" />
    <rect x="5" y="13" width="1" height="5" rx="0.5" fill="#333333" />
    <rect x="27" y="13" width="1" height="5" rx="0.5" fill="#333333" />
</svg>