<svg width="80" height="80" viewBox="0 0 80 80" fill="none" xmlns="http://www.w3.org/2000/svg">
<rect x="14" y="12" width="52" height="54" rx="6" fill="white" stroke="#333333" stroke-width="2" stroke-linecap="round" stroke-linejoin="round"/>
<path d="M55.3211 29.9022C55.7279 29.7642 56.0012 29.3819 56 28.9524C55.9988 28.5228 55.7235 28.142 55.3159 28.0063L40.4352 23.0512C40.2316 22.9834 40.0117 22.9829 39.8078 23.0497L24.6886 28.0048C24.2787 28.1392 24.0012 28.5211 24 28.9524C23.9988 29.3837 24.2744 29.7672 24.6835 29.9037L39.8027 34.9486C40.0097 35.0177 40.2337 35.0171 40.4403 34.9471L55.3211 29.9022Z" fill="#D9D9D9" stroke="#333333" stroke-width="2" stroke-linecap="round" stroke-linejoin="round"/>
<path d="M55 36L40.1192 41L25 36" stroke="#333333" stroke-width="2" stroke-linecap="round" stroke-linejoin="round"/>
<path d="M55 43L40.1192 48L25 43" stroke="#333333" stroke-width="2" stroke-linecap="round" stroke-linejoin="round"/>
<path d="M55 50L40.1192 55L25 50" stroke="#333333" stroke-width="2" stroke-linecap="round" stroke-linejoin="round"/>
</svg>
