<svg width="32" height="32" viewBox="0 0 32 32" fill="none" xmlns="http://www.w3.org/2000/svg">
    <circle cx="16" cy="16" r="16" fill="#F2F2F2" />
    <path
        d="M14.0653 23.9781L14.0424 24.5H14.5648H17.4999H18.0223L17.9994 23.9781L17.7854 19.0964L21.7825 21.7366L22.2319 22.0335L22.4945 21.5633L23.9688 18.9244L24.2193 18.4762L23.7645 18.2377L19.4964 16L23.7645 13.7623L24.2193 13.5238L23.9688 13.0756L22.4945 10.4367L22.2319 9.96651L21.7825 10.2634L17.7854 12.9036L17.9994 8.0219L18.0223 7.5H17.4999H14.5648H14.0424L14.0653 8.0219L14.2793 12.9036L10.2822 10.2634L9.83283 9.96651L9.57015 10.4367L8.09585 13.0756L7.84541 13.5238L8.30018 13.7623L12.5683 16L8.30018 18.2377L7.84541 18.4762L8.09585 18.9244L9.57015 21.5633L9.83283 22.0335L10.2822 21.7366L14.2793 19.0964L14.0653 23.9781Z"
        fill="white" stroke="black" />
</svg>