<svg width="32" height="32" viewBox="0 0 32 32" fill="none" xmlns="http://www.w3.org/2000/svg">
    <circle cx="16" cy="16" r="16" fill="#F2F2F2" />
    <rect width="22" height="22" rx="11" transform="matrix(-1 0 0 1 27 5)" fill="white" stroke="#333333"
        stroke-linecap="round" stroke-linejoin="round" />
    <path
        d="M14.2805 14.798L12.4529 12.3928C12.1398 11.8715 11.4464 11.6929 10.9041 11.9939C10.3546 12.2988 10.1724 12.978 10.5 13.5004L14.4772 19.3621L12.5887 18.4915C11.2701 18.0867 10.4843 18.5608 10.0804 19.1149C9.90005 19.3622 10.0411 19.6838 10.3252 19.8128C11.715 20.4437 15.5605 22.1849 16.0829 22.3733C17.2258 23.2004 18.5806 26.0004 18.5806 26.0004M14.2805 14.798L15.1198 16.1955M14.2805 14.798L14.677 14.5779C15.1654 14.3068 15.6388 14.3528 16.039 14.6041M16.039 14.6041C16.2968 14.7659 16.5242 15.0129 16.7058 15.3153M16.039 14.6041L16.1717 14.4259C16.4209 14.1384 17.0334 13.7778 17.6574 14.372M17.6574 14.372L17.8954 14.6551M17.6574 14.372C17.6664 14.274 17.8521 13.8321 18.1747 13.6531C18.5017 13.4151 19.3347 13.1787 20.0509 14.1364C20.6381 14.882 21.7142 17.3854 21.4395 19.4799C21.2717 20.7595 24 23.5004 24 23.5004"
        stroke="#333333" stroke-linecap="round" stroke-linejoin="round" />
</svg>