<svg width="32" height="32" viewBox="0 0 32 32" fill="none" xmlns="http://www.w3.org/2000/svg">
<circle cx="16" cy="16" r="16" fill="#F2F2F2"/>
<path d="M16 24C19.3137 24 22 23.0321 22 21.8381V12H10V21.8381C10 23.0321 12.6863 24 16 24Z" fill="white" stroke="black"/>
<path d="M22 11C22 12.3807 19.3137 13.5 16 13.5C12.6863 13.5 10 12.3807 10 11C10 9.61929 12.6863 8.5 16 8.5C19.3137 8.5 22 9.61929 22 11Z" fill="white" stroke="black"/>
<path d="M22 11V16.2304C22 17.76 19.3137 19 16 19C12.6863 19 10 17.76 10 16.2304V11" stroke="black"/>
</svg>
