<?xml version="1.0" encoding="utf-8"?>
<!-- Generator: Adobe Illustrator 24.2.1, SVG Export Plug-In . SVG Version: 6.00 Build 0)  -->
<svg version="1.1" id="图层_1" xmlns="http://www.w3.org/2000/svg" xmlns:xlink="http://www.w3.org/1999/xlink" x="0px" y="0px"
	 viewBox="0 0 32 32" style="enable-background:new 0 0 32 32;" xml:space="preserve">
<style type="text/css">
	.st0{fill:none;}
	.st1{fill-rule:evenodd;clip-rule:evenodd;fill:#333333;}
</style>
<rect y="4" class="st0" width="32" height="24"/>
<g>
	<path class="st1" d="M32,4.4C32,4.2,31.8,4,31.5,4c-0.1,0-0.1,0-0.2,0l-5.8,2.3l0,0C25.2,6.5,25,6.8,25,7.1v17.4l0,0
		c0,0.3,0.2,0.6,0.5,0.7l5.9,2.7l0,0c0.2,0.1,0.5,0,0.6-0.2c0-0.1,0-0.1,0-0.2L32,4.4L32,4.4z"/>
	<path class="st1" d="M6.5,6.4L0.6,4C0.6,4,0.5,4,0.5,4C0.2,4,0,4.2,0,4.4v23.1c0,0.1,0,0.1,0,0.2C0.2,28,0.4,28.1,0.7,28l5.9-2.7
		C6.8,25.1,7,24.8,7,24.5V7.1C7,6.8,6.8,6.5,6.5,6.4z"/>
	<path class="st1" d="M21.9,12.1L16.5,9c-0.3-0.2-0.7-0.2-1,0l-5.4,3.1c-0.3,0.2-0.5,0.5-0.5,0.9v6.1c0,0.4,0.2,0.7,0.5,0.9l5.4,3.1
		c0.3,0.2,0.7,0.2,1,0l5.4-3.1c0.3-0.2,0.5-0.5,0.5-0.9V13C22.4,12.6,22.2,12.3,21.9,12.1z"/>
</g>
</svg>
