<svg width="80" height="80" viewBox="0 0 80 80" fill="none" xmlns="http://www.w3.org/2000/svg">
    <rect width="80" height="80" rx="8" fill="white" />
    <path
        d="M22.5 25C22.5 22.5147 24.5147 20.5 27 20.5H49C51.4853 20.5 53.5 22.5147 53.5 25V53C53.5 55.4853 51.4853 57.5 49 57.5H27C24.5147 57.5 22.5 55.4853 22.5 53V25Z"
        stroke="#000" />
    <circle cx="8.83333" cy="8.83333" r="8.33333" transform="matrix(-1 0 0 1 46.6641 26)" stroke="#000" />
    <circle cx="2.94444" cy="2.94444" r="2.94444" transform="matrix(-1 0 0 1 40.7773 31.8906)" stroke="#000" />
    <path d="M38.4961 43H37.4961V52H38.4961V43Z" fill="#000" />
    <path d="M37.9961 46H34.9961V47H37.9961V46Z" fill="#000" />
    <path d="M37.9961 49H34.9961V50H37.9961V49Z" fill="#000" />
    <path
        d="M58 51C58 55.4183 54.4183 59 50 59C45.5817 59 42 55.4183 42 51C42 46.5817 45.5817 43 50 43C54.4183 43 58 46.5817 58 51Z"
        fill="white" stroke="#000" stroke-linecap="round" stroke-linejoin="round" />
    <path
        d="M50 47C48.8053 47 47.7329 47.5238 47 48.3542C46.3776 49.0593 46 49.9856 46 51C46 53.2091 47.7909 55 50 55C52.2091 55 54 53.2091 54 51C54 49.9755 53.6149 49.041 52.9815 48.3333L52 50.3333"
        stroke="#000" stroke-linecap="round" stroke-linejoin="round" />
</svg>