<svg width="80" height="80" viewBox="0 0 80 80" fill="none" xmlns="http://www.w3.org/2000/svg">
    <rect width="80" height="80" rx="8" fill="white" />
    <ellipse cx="34.3647" cy="25.6693" rx="14.3647" ry="5.66935" stroke="#000" />
    <path
        d="M48.7293 25.6719V32.7586C48.7293 35.8897 42.298 38.4279 34.3647 38.4279C26.4313 38.4279 20 35.8897 20 32.7586V25.6719"
        stroke="#000" />
    <path
        d="M48.7293 32.2812V39.3679C48.7293 42.499 42.298 45.0373 34.3647 45.0373C26.4313 45.0373 20 42.499 20 39.3679V32.2812"
        stroke="#000" />
    <path
        d="M48.7293 39.8438V46.9304C48.7293 50.0615 42.298 52.5998 34.3647 52.5998C26.4313 52.5998 20 50.0615 20 46.9304V39.8438"
        stroke="#000" />
    <path
        d="M48.7293 45.742V53.8287C48.7293 56.9598 42.298 59.498 34.3647 59.498C26.4313 59.498 20 56.9598 20 53.8287V45.742"
        stroke="#000" />
    <path
        d="M60.0007 40.5C60.0007 40.5 60.0007 40.1327 60.0007 39.9439C60.0007 37.7657 55.5864 36 50.141 36C44.6956 36 40.2813 37.7657 40.2813 39.9439C40.2813 40.1327 40.2813 40.5 40.2813 40.5L40.2812 55C40.2812 57.1782 45.0556 59.5 50.501 59.5C55.9464 59.5 60.001 57.1782 60.001 55L60.0007 40.5Z"
        fill="white" stroke="#000" />
    <path
        d="M60.0007 42L60.001 45.5C60.001 47.6782 55.9464 49.5 50.501 49.5C45.0556 49.5 40.2812 47.6782 40.2812 45.5L40.2813 42"
        stroke="#000" />
    <path
        d="M60.0007 47L60.001 50.5C60.001 52.6782 55.9464 54.5 50.501 54.5C45.0556 54.5 40.2812 52.6782 40.2812 50.5L40.2813 47"
        stroke="#000" />
    <ellipse cx="50.141" cy="39.9439" rx="9.85974" ry="3.94389" stroke="#000" />
</svg>