<svg width="80" height="80" viewBox="0 0 80 80" fill="none" xmlns="http://www.w3.org/2000/svg">
    <rect width="80" height="80" rx="8" fill="white" />
    <path
        d="M21.5 26C21.5 23.5147 23.5147 21.5 26 21.5H50C52.4853 21.5 54.5 23.5147 54.5 26V53C54.5 55.4853 52.4853 57.5 50 57.5H26C23.5147 57.5 21.5 55.4853 21.5 53V26Z"
        stroke="#333333" />
    <path
        d="M31.5 46C31.5 41.8018 34.519 38.5 38.125 38.5H42.875C46.481 38.5 49.5 41.8018 49.5 46V47.3333C49.5 48.586 48.6077 49.5 47.625 49.5H33.375C32.3923 49.5 31.5 48.586 31.5 47.3333V46Z"
        stroke="#333333" />
    <circle cx="5.5" cy="5.5" r="5" transform="matrix(-1 0 0 1 46 28)" stroke="#333333" />
    <circle cx="5" cy="5" r="4.5" transform="matrix(-1 0 0 1 40 30)" fill="white" stroke="#333333" />
    <path
        d="M26.5 47.25C26.5 42.9376 29.761 39.5 33.7143 39.5H36.2857C40.239 39.5 43.5 42.9376 43.5 47.25C43.5 48.5248 42.5415 49.5 41.4286 49.5H28.5714C27.4585 49.5 26.5 48.5248 26.5 47.25Z"
        fill="white" stroke="#333333" />
    <path
        d="M59 51C59 55.4183 55.4183 59 51 59C46.5817 59 43 55.4183 43 51C43 46.5817 46.5817 43 51 43C55.4183 43 59 46.5817 59 51Z"
        fill="white" stroke="#333333" stroke-linecap="round" stroke-linejoin="round" />
    <path d="M48 51.1643L50.1643 53.3286L54.4929 49" stroke="#333333" stroke-linecap="round" stroke-linejoin="round" />
</svg>