<svg width="48" height="48" viewBox="0 0 48 48" fill="none" xmlns="http://www.w3.org/2000/svg">
    <rect x="3.86694" y="14.9014" width="41.2648" height="30.0991" rx="4" fill="#D9D9D9" stroke="#000"
        stroke-linecap="round" stroke-linejoin="round" />
    <path
        d="M31.884 27.249C32.6869 26.4612 33.664 26.0674 34.8153 26.0674H45.1315V34.2931H34.8153C33.7549 34.2931 32.9444 34.081 32.3839 33.6568C31.8234 33.2327 31.422 32.7631 31.1796 32.248C30.8766 31.6421 30.71 30.9452 30.6797 30.1575C30.6797 29.0062 31.0811 28.0367 31.884 27.249Z"
        fill="#D9D9D9" stroke="#000" stroke-linecap="round" stroke-linejoin="round" />
    <path
        d="M32.7705 30.1564C32.7705 29.5807 32.9674 29.096 33.3613 28.7021C33.7552 28.3083 34.2399 28.1113 34.8156 28.1113C35.3912 28.1113 35.876 28.3083 36.2698 28.7021C36.6637 29.096 36.8606 29.5807 36.8606 30.1564C36.8606 30.732 36.6637 31.2244 36.2698 31.6334C35.876 32.0424 35.3912 32.2469 34.8156 32.2469C34.2399 32.2469 33.7552 32.0424 33.3613 31.6334C32.9674 31.2244 32.7705 30.732 32.7705 30.1564Z"
        fill="#D9D9D9" stroke="#000" stroke-linecap="round" stroke-linejoin="round" />
    <path
        d="M15.5186 12.959H40.2775L37.1144 7.07035C35.3724 3.85482 32.0992 4.37127 29.0978 5.95628C28.2616 6.38069 27.0982 6.98193 25.6075 7.76001C24.1169 8.5381 22.6081 9.31618 21.0811 10.0943C19.336 11.0138 17.4818 11.9687 15.5186 12.959Z"
        fill="#D9D9D9" stroke="#000" stroke-linecap="round" stroke-linejoin="round" />
    <path
        d="M24.2138 27.8579C24.5572 25.6135 22.8093 24.4068 20.4191 23.6019L21.1944 20.5614L19.3014 20.1002L18.5465 23.0605C18.0488 22.9393 17.5378 22.8249 17.0299 22.7116L17.79 19.7317L15.8981 19.2705L15.1221 22.3099C14.7103 22.2182 14.306 22.1275 13.9134 22.0321L11.3049 21.3853L10.8013 23.362C10.8013 23.362 12.2058 23.6767 12.1762 23.6962C12.9429 23.8834 13.0814 24.3793 13.0583 24.7726L12.1752 28.2363L10.934 33.1015C10.8402 33.3292 10.6024 33.6708 10.0666 33.5411C10.0855 33.568 8.69067 33.2054 8.69067 33.2054L7.75098 35.3238L10.2145 35.9242C10.6728 36.0365 11.1219 36.1541 11.564 36.2648L10.7807 39.34L12.6715 39.8012L13.4474 36.7587C13.9639 36.8957 14.4653 37.0223 14.956 37.1414L14.1827 40.1698L16.0757 40.6311L16.8591 37.5616C20.0871 38.1588 22.5144 37.918 23.5362 35.0636C24.3595 32.7655 23.4952 31.4398 21.7968 30.5752C23.0336 30.2964 23.9652 29.501 24.2138 27.8579ZM19.8886 33.7875C19.3036 36.0857 15.3455 34.8433 14.0623 34.5318L15.1018 30.4577C16.3849 30.7708 20.5 31.3906 19.8886 33.7875ZM20.4741 27.8247C19.9403 29.9152 16.6461 28.8531 15.5774 28.5927L16.5198 24.8976C17.5884 25.158 21.03 25.6439 20.4741 27.8247Z"
        fill="white" />
    <path
        d="M12.1752 28.2363L13.0583 24.7726C13.0814 24.3793 12.9429 23.8834 12.1762 23.6962C12.2058 23.6767 10.8013 23.362 10.8013 23.362L11.3049 21.3853L13.9134 22.0321C14.306 22.1275 14.7103 22.2182 15.1221 22.3099L15.8981 19.2705L17.79 19.7317L17.0299 22.7116C17.5378 22.8249 18.0488 22.9393 18.5465 23.0605L19.3014 20.1002L21.1944 20.5614L20.4191 23.6019C22.8093 24.4068 24.5572 25.6135 24.2138 27.8579C23.9652 29.501 23.0336 30.2964 21.7968 30.5752C23.4952 31.4398 24.3595 32.7655 23.5362 35.0636C22.5144 37.918 20.0871 38.1588 16.8591 37.5616L16.0757 40.6311L14.1827 40.1698L14.956 37.1414C14.4653 37.0223 13.9639 36.8957 13.4474 36.7587L12.6715 39.8012L10.7807 39.34L11.564 36.2648C11.1219 36.1541 10.6728 36.0365 10.2145 35.9242L7.75098 35.3238L8.69067 33.2054C8.69067 33.2054 10.0855 33.568 10.0666 33.5411C10.6024 33.6708 10.8402 33.3292 10.934 33.1015L12.1752 28.2363ZM12.1752 28.2363C12.2281 28.2494 12.0997 28.2068 12.1752 28.2363ZM19.8886 33.7875C19.3036 36.0857 15.3455 34.8433 14.0623 34.5318L15.1018 30.4577C16.3849 30.7708 20.5 31.3906 19.8886 33.7875ZM20.4741 27.8247C19.9403 29.9152 16.6461 28.8531 15.5774 28.5927L16.5198 24.8976C17.5884 25.158 21.03 25.6439 20.4741 27.8247Z"
        stroke="#000" stroke-linecap="round" stroke-linejoin="round" />
</svg>