<svg width="48" height="48" viewBox="0 0 48 48" fill="none" xmlns="http://www.w3.org/2000/svg">
    <g clip-path="url(#clip0_1169_8155)">
        <path
            d="M8.99146 5C8.99146 2.79086 10.7823 1 12.9915 1H29.952C32.1611 1 33.9519 2.79086 33.9519 5V40.077C33.9519 42.2861 32.1611 44.077 29.9519 44.077H12.9915C10.7823 44.077 8.99146 42.2861 8.99146 40.077V5Z"
            fill="#D9D9D9" stroke="#333333" stroke-linecap="round" stroke-linejoin="round" />
        <path
            d="M10.9124 6.84278C10.9124 4.63364 12.7032 2.84277 14.9124 2.84277H28.0328C30.2419 2.84277 32.0328 4.63363 32.0328 6.84277V37.7235C32.0328 39.9327 30.2419 41.7235 28.0328 41.7235H14.9124C12.7032 41.7235 10.9124 39.9327 10.9124 37.7235V6.84278Z"
            fill="#D9D9D9" />
        <path
            d="M15.0305 8.62402C15.0305 6.41488 16.8214 4.62402 19.0305 4.62402H35.991C38.2002 4.62402 39.991 6.41488 39.991 8.62402V43.701C39.991 45.9101 38.2001 47.701 35.991 47.701H19.0305C16.8214 47.701 15.0305 45.9101 15.0305 43.701V8.62402Z"
            fill="#D9D9D9" stroke="#333333" stroke-linecap="round" stroke-linejoin="round" />
        <path
            d="M16.9514 10.4658C16.9514 8.25668 18.7423 6.46582 20.9514 6.46582H34.0718C36.281 6.46582 38.0718 8.25668 38.0718 10.4658V41.3466C38.0718 43.5557 36.281 45.3466 34.0718 45.3466H20.9514C18.7423 45.3466 16.9514 43.5557 16.9514 41.3466V10.4658Z"
            fill="#D9D9D9" />
        <circle cx="27.5109" cy="24.58" r="6.93347" fill="#D9D9D9" stroke="#333333" stroke-linecap="round"
            stroke-linejoin="round" />
        <path fill-rule="evenodd" clip-rule="evenodd"
            d="M24.9962 27.6472L30.6982 27.6472L30.6982 26.4299L24.9962 26.4299L24.9962 27.6472ZM24.9958 22.7319L30.6979 22.7319L30.6979 21.5146L24.9958 21.5146L24.9958 22.7319ZM22.9462 25.1893L29.6734 25.1893L29.6734 23.972L23.5549 23.972L22.9462 25.1893ZM28.2316 23.9725L27.7157 24.6585C27.6327 24.7689 27.4211 24.7689 27.3381 24.6585L26.8221 23.9725L28.2316 23.9725ZM26.1173 23.9725L25.6014 24.6585C25.5184 24.7689 25.3068 24.7689 25.2238 24.6585L24.7078 23.9725L26.1173 23.9725Z"
            fill="white" />
        <rect x="23.7793" y="7.86426" width="6.62329" height="0.946185" rx="0.473092" fill="#333333" />
    </g>
    <defs>
        <clipPath id="clip0_1169_8155">
            <rect width="48" height="48" fill="white" />
        </clipPath>
    </defs>
</svg>