<svg width="175" height="42" viewBox="0 0 175 42" fill="none" xmlns="http://www.w3.org/2000/svg">
    <path fill-rule="evenodd" clip-rule="evenodd"
        d="M22.7169 29.964L6.0066 29.964L6.0066 26.3966L22.7169 26.3966L22.7169 29.964ZM22.7169 14.5674L6.0066 14.5674L6.0066 11L22.7169 11L22.7169 14.5674ZM19.7135 22.2637H-0.000999943L1.78278 18.6963L19.7135 18.6963V22.2637ZM13.9762 20.7088L15.4883 18.6983L11.3576 18.6983L12.8697 20.7088C13.113 21.0322 13.7329 21.0322 13.9762 20.7088ZM7.78085 20.7088L9.29294 18.6983L5.1623 18.6983L6.67439 20.7088C6.91766 21.0322 7.53759 21.0322 7.78085 20.7088ZM80.3629 15.6793V26.1754H81.9804V15.6793H80.3629ZM80.3698 13.6088C80.5982 13.8229 80.8701 13.93 81.1854 13.93C81.5006 13.93 81.7702 13.8229 81.9941 13.6088C82.2226 13.3947 82.3368 13.1373 82.3368 12.8366C82.3368 12.5359 82.2226 12.2786 81.9941 12.0644C81.7702 11.8503 81.5006 11.7433 81.1854 11.7433C80.8701 11.7433 80.5982 11.8503 80.3698 12.0644C80.1459 12.2786 80.0339 12.5359 80.0339 12.8366C80.0339 13.1373 80.1459 13.3947 80.3698 13.6088ZM33.4248 12.1806H35.4535L40.2238 23.7974H40.3883L45.1585 12.1806H47.1872V26.1754H45.5971V15.5426H45.4601L41.0736 26.1754H39.5384L35.152 15.5426H35.0149V26.1754H33.4248V12.1806ZM54.6527 26.3941C53.7023 26.3941 52.8684 26.1686 52.1511 25.7176C51.4383 25.2666 50.8808 24.6356 50.4787 23.8247C50.0812 23.0138 49.8825 22.0663 49.8825 20.982C49.8825 19.8887 50.0812 18.9343 50.4787 18.1188C50.8808 17.3034 51.4383 16.6702 52.1511 16.2192C52.8684 15.7681 53.7023 15.5426 54.6527 15.5426C55.6031 15.5426 56.4347 15.7681 57.1475 16.2192C57.8648 16.6702 58.4223 17.3034 58.8198 18.1188C59.2219 18.9343 59.4229 19.8887 59.4229 20.982C59.4229 22.0663 59.2219 23.0138 58.8198 23.8247C58.4223 24.6356 57.8648 25.2666 57.1475 25.7176C56.4347 26.1686 55.6031 26.3941 54.6527 26.3941ZM54.6527 24.9454C55.3746 24.9454 55.9686 24.7609 56.4347 24.3919C56.9007 24.0229 57.2457 23.5377 57.4696 22.9364C57.6935 22.3351 57.8054 21.6836 57.8054 20.982C57.8054 20.2805 57.6935 19.6267 57.4696 19.0209C57.2457 18.415 56.9007 17.9252 56.4347 17.5517C55.9686 17.1781 55.3746 16.9913 54.6527 16.9913C53.9308 16.9913 53.3368 17.1781 52.8707 17.5517C52.4047 17.9252 52.0597 18.415 51.8358 19.0209C51.6119 19.6267 51.5 20.2805 51.5 20.982C51.5 21.6836 51.6119 22.3351 51.8358 22.9364C52.0597 23.5377 52.4047 24.0229 52.8707 24.3919C53.3368 24.7609 53.9308 24.9454 54.6527 24.9454ZM61.892 15.6793V26.1754H63.5095V19.5334C63.5095 19.0596 63.6237 18.6382 63.8522 18.2692C64.0852 17.8956 64.4005 17.6041 64.798 17.3945C65.2001 17.1804 65.657 17.0733 66.1687 17.0733C66.3835 17.0733 66.5868 17.0893 66.7787 17.1212C66.9752 17.1485 67.1009 17.169 67.1557 17.1827V15.5426C67.0643 15.5335 66.9295 15.5267 66.7513 15.5221C66.5731 15.5176 66.4246 15.5153 66.3058 15.5153C65.6753 15.5153 65.1087 15.677 64.6061 16.0005C64.1035 16.3239 63.7562 16.7453 63.5643 17.2647H63.4547V15.6793H61.892ZM70.6905 19.8614V26.1754H69.073V15.6793H70.6357V17.3193H70.7728C71.0195 16.7863 71.3942 16.3581 71.8968 16.0347C72.3994 15.7066 73.0482 15.5426 73.8433 15.5426C74.5561 15.5426 75.1797 15.6884 75.7143 15.98C76.2489 16.267 76.6647 16.7043 76.9617 17.292C77.2587 17.8751 77.4072 18.6131 77.4072 19.506V26.1754H75.7897V19.6154C75.7897 18.7908 75.575 18.1485 75.1455 17.6883C74.716 17.2237 74.1266 16.9913 73.3772 16.9913C72.8609 16.9913 72.3994 17.1029 71.9928 17.3262C71.5907 17.5494 71.2731 17.8751 71.0401 18.3033C70.807 18.7316 70.6905 19.2509 70.6905 19.8614ZM86.5605 19.8614V26.1754H84.943V15.6793H86.5056V17.3193H86.6427C86.8894 16.7863 87.2641 16.3581 87.7667 16.0347C88.2693 15.7066 88.9182 15.5426 89.7132 15.5426C90.426 15.5426 91.0497 15.6884 91.5843 15.98C92.1189 16.267 92.5347 16.7043 92.8317 17.292C93.1287 17.8751 93.2772 18.6131 93.2772 19.506V26.1754H91.6597V19.6154C91.6597 18.7908 91.4449 18.1485 91.0154 17.6883C90.5859 17.2237 89.9965 16.9913 89.2471 16.9913C88.7308 16.9913 88.2693 17.1029 87.8627 17.3262C87.4606 17.5494 87.143 17.8751 86.91 18.3033C86.677 18.7316 86.5605 19.2509 86.5605 19.8614ZM101.88 12.1806V26.1754H103.58V21.6381L105.335 19.67L110.215 26.1754H112.271L106.376 18.4947L112.271 12.1806H110.05L103.745 19.1234H103.58V12.1806H101.88ZM117.892 26.3941C116.878 26.3941 116.003 26.1709 115.268 25.7244C114.536 25.2734 113.972 24.6448 113.575 23.8384C113.182 23.0275 112.985 22.0845 112.985 21.0094C112.985 19.9343 113.182 18.9867 113.575 18.1667C113.972 17.3421 114.525 16.6998 115.233 16.2397C115.946 15.775 116.778 15.5426 117.728 15.5426C118.276 15.5426 118.818 15.6338 119.352 15.816C119.887 15.9982 120.374 16.2943 120.812 16.7043C121.251 17.1098 121.6 17.6473 121.861 18.317C122.121 18.9867 122.251 19.8113 122.251 20.7907V21.474H114.606C114.629 22.1724 114.765 22.7714 115.014 23.2712C115.293 23.8179 115.679 24.2347 116.172 24.5218C116.666 24.8042 117.239 24.9454 117.892 24.9454C118.317 24.9454 118.701 24.8862 119.044 24.7678C119.391 24.6448 119.69 24.4625 119.942 24.2211C120.193 23.9751 120.387 23.6699 120.524 23.3054L122.087 23.7427C121.923 24.2712 121.646 24.7359 121.258 25.1368C120.869 25.5331 120.39 25.8429 119.818 26.0661C119.247 26.2848 118.605 26.3941 117.892 26.3941ZM114.98 18.6997C114.764 19.133 114.641 19.5932 114.61 20.08H120.607C120.607 19.4878 120.488 18.9594 120.25 18.4947C120.017 18.03 119.684 17.6633 119.25 17.3945C118.82 17.1257 118.313 16.9913 117.728 16.9913C117.084 16.9913 116.526 17.1508 116.056 17.4697C115.59 17.784 115.231 18.194 114.98 18.6997ZM124.7 30.0432C124.915 30.0887 125.159 30.1115 125.433 30.1115C125.922 30.1115 126.361 30.0249 126.749 29.8518C127.142 29.6787 127.487 29.4122 127.784 29.0523C128.081 28.697 128.33 28.2482 128.531 27.7061L133 15.6793H131.245L128.339 24.0434H128.23L125.324 15.6793H123.569L127.462 26.2301L127.161 27.0501C126.964 27.5831 126.747 27.9681 126.509 28.205C126.276 28.4464 126.009 28.5808 125.708 28.6081C125.406 28.6355 125.059 28.599 124.666 28.4988L124.255 29.9202C124.337 29.9612 124.485 30.0022 124.7 30.0432Z"
        fill="#000" />
</svg>