<svg width="175" height="42" viewBox="0 0 175 42" fill="none" xmlns="http://www.w3.org/2000/svg">
    <path
        d="M32 14.4492H34.0877L37.7174 23.1709H37.851L41.4808 14.4492H43.5684V25.6691H41.9317V17.55H41.8259L38.4634 25.6527H37.105L33.7425 17.5446H33.6367V25.6691H32V14.4492Z"
        fill="#333333" />
    <path
        d="M45.9358 25.6691V17.2542H47.6004V25.6691H45.9358ZM46.7765 15.9558C46.487 15.9558 46.2383 15.8608 46.0305 15.6709C45.8263 15.4774 45.7243 15.2473 45.7243 14.9806C45.7243 14.7104 45.8263 14.4803 46.0305 14.2904C46.2383 14.0968 46.487 14 46.7765 14C47.0659 14 47.3128 14.0968 47.5169 14.2904C47.7247 14.4803 47.8286 14.7104 47.8286 14.9806C47.8286 15.2473 47.7247 15.4774 47.5169 15.6709C47.3128 15.8608 47.0659 15.9558 46.7765 15.9558Z"
        fill="#333333" />
    <path
        d="M51.1536 17.2542L53.0408 20.5303L54.9448 17.2542H56.7652L54.0986 21.4617L56.7875 25.6691H54.967L53.0408 22.5245L51.1202 25.6691H49.2942L51.9552 21.4617L49.3276 17.2542H51.1536Z"
        fill="#333333" />
    <path
        d="M58.4743 25.6691V17.2542H60.1389V25.6691H58.4743ZM59.3149 15.9558C59.0254 15.9558 58.7768 15.8608 58.5689 15.6709C58.3648 15.4774 58.2628 15.2473 58.2628 14.9806C58.2628 14.7104 58.3648 14.4803 58.5689 14.2904C58.7768 14.0968 59.0254 14 59.3149 14C59.6044 14 59.8512 14.0968 60.0554 14.2904C60.2632 14.4803 60.3671 14.7104 60.3671 14.9806C60.3671 15.2473 60.2632 15.4774 60.0554 15.6709C59.8512 15.8608 59.6044 15.9558 59.3149 15.9558Z"
        fill="#333333" />
    <path
        d="M64.0428 20.6728V25.6691H62.3782V17.2542H63.976V18.6238H64.0818C64.2785 18.1782 64.5865 17.8203 65.0059 17.55C65.429 17.2798 65.9616 17.1446 66.6037 17.1446C67.1863 17.1446 67.6967 17.2652 68.1346 17.5062C68.5725 17.7436 68.9121 18.0979 69.1534 18.569C69.3946 19.0402 69.5152 19.6227 69.5152 20.3167V25.6691H67.8507V20.5139C67.8507 19.9039 67.6892 19.4273 67.3663 19.084C67.0435 18.737 66.5999 18.5635 66.0358 18.5635C65.6498 18.5635 65.3065 18.6457 65.0059 18.8101C64.709 18.9744 64.4733 19.2155 64.2989 19.5332C64.1282 19.8473 64.0428 20.2272 64.0428 20.6728Z"
        fill="#333333" />
    <path
        d="M76.0301 14.4492H78.1178L81.7475 23.1709H81.8811L85.5109 14.4492H87.5985V25.6691H85.9618V17.55H85.856L82.4935 25.6527H81.1352L77.7726 17.5446H77.6669V25.6691H76.0301V14.4492Z"
        fill="#333333" />
    <path
        d="M93.6514 25.8389C92.8089 25.8389 92.0833 25.6618 91.4746 25.3075C90.8697 24.9496 90.402 24.4474 90.0717 23.8009C89.7451 23.1508 89.5818 22.3893 89.5818 21.5164C89.5818 20.6545 89.7451 19.8948 90.0717 19.2374C90.402 18.58 90.8623 18.0668 91.4524 17.698C92.0462 17.3291 92.7402 17.1446 93.5345 17.1446C94.0169 17.1446 94.4846 17.2232 94.9374 17.3802C95.3902 17.5373 95.7966 17.7838 96.1566 18.1198C96.5166 18.4558 96.8005 18.8923 97.0083 19.4291C97.2162 19.9624 97.3201 20.6107 97.3201 21.374V21.9547H90.5227V20.7275H95.6889C95.6889 20.2966 95.5998 19.9149 95.4217 19.5825C95.2436 19.2465 94.993 18.9817 94.6701 18.7882C94.351 18.5946 93.9761 18.4978 93.5456 18.4978C93.078 18.4978 92.6697 18.611 92.3208 18.8375C91.9757 19.0603 91.7085 19.3524 91.5192 19.714C91.3336 20.0719 91.2408 20.4609 91.2408 20.8809V21.8397C91.2408 22.4021 91.341 22.8806 91.5414 23.275C91.7456 23.6695 92.0295 23.9708 92.3932 24.179C92.7569 24.3835 93.1819 24.4858 93.6681 24.4858C93.9835 24.4858 94.2712 24.4419 94.531 24.3543C94.7908 24.263 95.0153 24.1278 95.2046 23.9489C95.3939 23.7699 95.5386 23.5489 95.6388 23.286L97.2143 23.5654C97.0881 24.0219 96.8617 24.4218 96.5351 24.7652C96.2122 25.1048 95.8058 25.3696 95.3159 25.5595C94.8297 25.7458 94.2749 25.8389 93.6514 25.8389Z"
        fill="#333333" />
    <path
        d="M105.575 19.3086L104.066 19.5716C104.003 19.3817 103.903 19.2009 103.765 19.0292C103.632 18.8576 103.45 18.7169 103.22 18.6074C102.99 18.4978 102.702 18.443 102.357 18.443C101.886 18.443 101.492 18.5471 101.177 18.7553C100.861 18.9598 100.703 19.2246 100.703 19.5497C100.703 19.8309 100.809 20.0573 101.021 20.229C101.232 20.4007 101.574 20.5413 102.045 20.6508L103.404 20.9576C104.19 21.1366 104.777 21.4123 105.163 21.7849C105.549 22.1574 105.742 22.6413 105.742 23.2367C105.742 23.7407 105.593 24.1899 105.296 24.5844C105.003 24.9752 104.593 25.282 104.066 25.5047C103.543 25.7275 102.936 25.8389 102.246 25.8389C101.288 25.8389 100.507 25.6381 99.9018 25.2363C99.2969 24.8309 98.9257 24.2557 98.7884 23.5106L100.397 23.2695C100.497 23.6822 100.703 23.9945 101.015 24.2064C101.327 24.4145 101.733 24.5186 102.234 24.5186C102.78 24.5186 103.216 24.4072 103.543 24.1844C103.869 23.958 104.033 23.6823 104.033 23.3572C104.033 23.0942 103.932 22.8733 103.732 22.6943C103.535 22.5153 103.233 22.3802 102.825 22.2889L101.377 21.9766C100.579 21.7977 99.989 21.5128 99.6068 21.122C99.2282 20.7312 99.0389 20.2363 99.0389 19.6373C99.0389 19.1406 99.18 18.706 99.462 18.3335C99.7441 17.9609 100.134 17.6706 100.631 17.4624C101.128 17.2505 101.698 17.1446 102.34 17.1446C103.264 17.1446 103.992 17.3419 104.523 17.7363C105.053 18.1271 105.404 18.6512 105.575 19.3086Z"
        fill="#333333" />
    <path
        d="M113.98 19.3086L112.471 19.5716C112.408 19.3817 112.308 19.2009 112.17 19.0292C112.037 18.8576 111.855 18.7169 111.625 18.6074C111.395 18.4978 111.107 18.443 110.762 18.443C110.29 18.443 109.897 18.5471 109.582 18.7553C109.266 18.9598 109.108 19.2246 109.108 19.5497C109.108 19.8309 109.214 20.0573 109.426 20.229C109.637 20.4007 109.979 20.5413 110.45 20.6508L111.808 20.9576C112.595 21.1366 113.182 21.4123 113.568 21.7849C113.954 22.1574 114.147 22.6413 114.147 23.2367C114.147 23.7407 113.998 24.1899 113.701 24.5844C113.408 24.9752 112.998 25.282 112.471 25.5047C111.948 25.7275 111.341 25.8389 110.65 25.8389C109.693 25.8389 108.912 25.6381 108.307 25.2363C107.702 24.8309 107.331 24.2557 107.193 23.5106L108.802 23.2695C108.902 23.6822 109.108 23.9945 109.42 24.2064C109.732 24.4145 110.138 24.5186 110.639 24.5186C111.185 24.5186 111.621 24.4072 111.948 24.1844C112.274 23.958 112.438 23.6823 112.438 23.3572C112.438 23.0942 112.337 22.8733 112.137 22.6943C111.94 22.5153 111.638 22.3802 111.229 22.2889L109.782 21.9766C108.984 21.7977 108.394 21.5128 108.012 21.122C107.633 20.7312 107.444 20.2363 107.444 19.6373C107.444 19.1406 107.585 18.706 107.867 18.3335C108.149 17.9609 108.539 17.6706 109.036 17.4624C109.533 17.2505 110.103 17.1446 110.745 17.1446C111.669 17.1446 112.397 17.3419 112.927 17.7363C113.458 18.1271 113.809 18.6512 113.98 19.3086Z"
        fill="#333333" />
    <path
        d="M119.662 25.8389C118.82 25.8389 118.094 25.6618 117.485 25.3075C116.881 24.9496 116.413 24.4474 116.083 23.8009C115.756 23.1508 115.593 22.3893 115.593 21.5164C115.593 20.6545 115.756 19.8948 116.083 19.2374C116.413 18.58 116.873 18.0668 117.463 17.698C118.057 17.3291 118.751 17.1446 119.545 17.1446C120.028 17.1446 120.495 17.2232 120.948 17.3802C121.401 17.5373 121.807 17.7838 122.167 18.1198C122.527 18.4558 122.811 18.8923 123.019 19.4291C123.227 19.9624 123.331 20.6107 123.331 21.374V21.9547H116.534V20.7275H121.7C121.7 20.2966 121.611 19.9149 121.433 19.5825C121.254 19.2465 121.004 18.9817 120.681 18.7882C120.362 18.5946 119.987 18.4978 119.556 18.4978C119.089 18.4978 118.681 18.611 118.332 18.8375C117.987 19.0603 117.719 19.3524 117.53 19.714C117.344 20.0719 117.252 20.4609 117.252 20.8809V21.8397C117.252 22.4021 117.352 22.8806 117.552 23.275C117.756 23.6695 118.04 23.9708 118.404 24.179C118.768 24.3835 119.193 24.4858 119.679 24.4858C119.994 24.4858 120.282 24.4419 120.542 24.3543C120.802 24.263 121.026 24.1278 121.215 23.9489C121.405 23.7699 121.549 23.5489 121.65 23.286L123.225 23.5654C123.099 24.0219 122.873 24.4218 122.546 24.7652C122.223 25.1048 121.817 25.3696 121.327 25.5595C120.841 25.7458 120.286 25.8389 119.662 25.8389Z"
        fill="#333333" />
    <path
        d="M126.842 20.6728V25.6691H125.178V17.2542H126.776V18.6238H126.881C127.078 18.1782 127.386 17.8203 127.805 17.55C128.229 17.2798 128.761 17.1446 129.403 17.1446C129.986 17.1446 130.496 17.2652 130.934 17.5062C131.372 17.7436 131.712 18.0979 131.953 18.569C132.194 19.0402 132.315 19.6227 132.315 20.3167V25.6691H130.65V20.5139C130.65 19.9039 130.489 19.4273 130.166 19.084C129.843 18.737 129.4 18.5635 128.835 18.5635C128.449 18.5635 128.106 18.6457 127.805 18.8101C127.509 18.9744 127.273 19.2155 127.098 19.5332C126.928 19.8473 126.842 20.2272 126.842 20.6728Z"
        fill="#333333" />
    <path
        d="M138.132 29C137.453 29 136.869 28.9123 136.379 28.737C135.893 28.5617 135.495 28.3298 135.187 28.0413C134.879 27.7527 134.649 27.4368 134.497 27.0935L135.928 26.5128C136.028 26.6735 136.162 26.8433 136.329 27.0223C136.499 27.2049 136.73 27.3601 137.019 27.4879C137.312 27.6158 137.689 27.6797 138.149 27.6797C138.78 27.6797 139.302 27.5281 139.713 27.225C140.125 26.9255 140.331 26.447 140.331 25.7896V24.1351H140.226C140.125 24.3141 139.981 24.5131 139.791 24.7323C139.606 24.9514 139.35 25.1413 139.023 25.302C138.697 25.4627 138.272 25.5431 137.748 25.5431C137.073 25.5431 136.464 25.3879 135.922 25.0774C135.384 24.7633 134.957 24.3013 134.642 23.6914C134.33 23.0778 134.174 22.3236 134.174 21.4288C134.174 20.534 134.328 19.767 134.636 19.1278C134.948 18.4887 135.375 17.9993 135.917 17.6596C136.459 17.3163 137.073 17.1446 137.759 17.1446C138.29 17.1446 138.719 17.2323 139.045 17.4076C139.372 17.5793 139.626 17.7801 139.808 18.0102C139.994 18.2403 140.137 18.443 140.237 18.6183H140.359V17.2542H141.99V25.8554C141.99 26.5785 141.82 27.172 141.478 27.6359C141.137 28.0997 140.675 28.443 140.092 28.6658C139.513 28.8886 138.86 29 138.132 29ZM138.116 24.1844C138.595 24.1844 138.999 24.0749 139.329 23.8557C139.663 23.6329 139.916 23.3152 140.086 22.9025C140.261 22.4861 140.348 21.9876 140.348 21.4069C140.348 20.8408 140.263 20.3422 140.092 19.9112C139.921 19.4803 139.671 19.1443 139.34 18.9032C139.01 18.6585 138.602 18.5362 138.116 18.5362C137.615 18.5362 137.197 18.664 136.863 18.9196C136.529 19.1717 136.277 19.515 136.106 19.9496C135.939 20.3842 135.855 20.87 135.855 21.4069C135.855 21.9584 135.941 22.4423 136.112 22.8587C136.282 23.275 136.535 23.6001 136.869 23.8338C137.206 24.0676 137.622 24.1844 138.116 24.1844Z"
        fill="#333333" />
    <path
        d="M147.908 25.8389C147.066 25.8389 146.34 25.6618 145.732 25.3075C145.127 24.9496 144.659 24.4474 144.329 23.8009C144.002 23.1508 143.839 22.3893 143.839 21.5164C143.839 20.6545 144.002 19.8948 144.329 19.2374C144.659 18.58 145.119 18.0668 145.709 17.698C146.303 17.3291 146.997 17.1446 147.791 17.1446C148.274 17.1446 148.741 17.2232 149.194 17.3802C149.647 17.5373 150.053 17.7838 150.413 18.1198C150.773 18.4558 151.057 18.8923 151.265 19.4291C151.473 19.9624 151.577 20.6107 151.577 21.374V21.9547H144.78V20.7275H149.946C149.946 20.2966 149.857 19.9149 149.679 19.5825C149.5 19.2465 149.25 18.9817 148.927 18.7882C148.608 18.5946 148.233 18.4978 147.802 18.4978C147.335 18.4978 146.927 18.611 146.578 18.8375C146.233 19.0603 145.965 19.3524 145.776 19.714C145.59 20.0719 145.498 20.4609 145.498 20.8809V21.8397C145.498 22.4021 145.598 22.8806 145.798 23.275C146.002 23.6695 146.286 23.9708 146.65 24.179C147.014 24.3835 147.439 24.4858 147.925 24.4858C148.24 24.4858 148.528 24.4419 148.788 24.3543C149.048 24.263 149.272 24.1278 149.461 23.9489C149.651 23.7699 149.796 23.5489 149.896 23.286L151.471 23.5654C151.345 24.0219 151.119 24.4218 150.792 24.7652C150.469 25.1048 150.063 25.3696 149.573 25.5595C149.087 25.7458 148.532 25.8389 147.908 25.8389Z"
        fill="#333333" />
    <path
        d="M153.424 25.6691V17.2542H155.033V18.5909H155.122C155.278 18.1381 155.552 17.782 155.946 17.5226C156.343 17.2597 156.792 17.1282 157.293 17.1282C157.397 17.1282 157.519 17.1318 157.66 17.1392C157.805 17.1465 157.918 17.1556 158 17.1665V18.7334C157.933 18.7151 157.814 18.695 157.644 18.6731C157.473 18.6476 157.302 18.6348 157.132 18.6348C156.738 18.6348 156.387 18.7169 156.079 18.8813C155.775 19.042 155.534 19.2666 155.356 19.5551C155.177 19.84 155.088 20.1651 155.088 20.5303V25.6691H153.424Z"
        fill="#333333" />
    <path fill-rule="evenodd" clip-rule="evenodd"
        d="M23.6808 13.0001C23.8538 13.0001 23.9946 13.1285 23.9999 13.2889L24 13.2981V28.7019C24 28.7461 23.9894 28.7898 23.9691 28.8298C23.8949 28.9756 23.7105 29.0392 23.5533 28.9751L23.5439 28.9711L19.4517 27.1552C19.2611 27.0706 19.1381 26.8931 19.1331 26.6967L19.1329 26.6841V15.0534C19.1329 14.8452 19.2654 14.6574 19.4691 14.5749L19.4812 14.5702L23.5607 13.022C23.5988 13.0075 23.6397 13.0001 23.6808 13.0001ZM1.31915 13C1.36035 13 1.40115 13.0074 1.43931 13.0219L5.51884 14.5701C5.72938 14.65 5.86711 14.8411 5.86711 15.0533V26.684C5.86711 26.8854 5.74301 27.0687 5.54827 27.1552L1.45613 28.971C1.29692 29.0416 1.10653 28.9784 1.03089 28.8297C1.01055 28.7898 1 28.746 1 28.7018V13.298C1 13.1334 1.14289 13 1.31915 13ZM12.867 16.3647L16.6404 18.3991C16.8626 18.5189 16.9994 18.7403 16.9994 18.9799V23.0489C16.9994 23.2884 16.8626 23.5098 16.6404 23.6296L12.867 25.6641C12.6448 25.7839 12.3711 25.7839 12.1489 25.6641L8.37558 23.6296C8.1534 23.5098 8.01654 23.2884 8.01654 23.0489V18.9799C8.01654 18.7403 8.1534 18.5189 8.37558 18.3991L12.1489 16.3647C12.3711 16.2449 12.6448 16.2449 12.867 16.3647Z"
        fill="#333333" />
</svg>