<svg width="48" height="48" viewBox="0 0 48 48" fill="none" xmlns="http://www.w3.org/2000/svg">
    <rect x="5" y="14.5" width="38" height="28.5" rx="4" fill="#D9D9D9" stroke="#000" stroke-linecap="round"
        stroke-linejoin="round" />
    <path fill-rule="evenodd" clip-rule="evenodd"
        d="M34.622 21.1495C34.7863 21.1495 34.9201 21.2715 34.9251 21.4238L34.9252 21.4326V36.0662C34.9252 36.1082 34.9152 36.1498 34.8959 36.1877C34.8254 36.3262 34.6502 36.3867 34.5008 36.3257L34.4919 36.3219L30.6044 34.5969C30.4232 34.5165 30.3064 34.3478 30.3016 34.1613L30.3014 34.1493V23.1001C30.3014 22.9024 30.4273 22.724 30.6208 22.6456L30.6323 22.6411L34.5079 21.1703C34.5441 21.1566 34.5829 21.1495 34.622 21.1495ZM13.3784 21.1494C13.4175 21.1494 13.4563 21.1565 13.4925 21.1702L17.3681 22.641C17.5681 22.7169 17.699 22.8984 17.699 23.1001V34.1493C17.699 34.3405 17.5811 34.5147 17.3961 34.5968L13.5085 36.3218C13.3573 36.389 13.1764 36.3289 13.1045 36.1876C13.0852 36.1497 13.0752 36.1082 13.0752 36.0661V21.4326C13.0752 21.2762 13.2109 21.1494 13.3784 21.1494ZM24.3489 24.3459L27.9336 26.2786C28.1446 26.3924 28.2746 26.6027 28.2746 26.8304V30.6958C28.2746 30.9234 28.1446 31.1338 27.9336 31.2476L24.3489 33.1803C24.1378 33.2941 23.8778 33.2941 23.6667 33.1803L20.082 31.2476C19.8709 31.1338 19.7409 30.9234 19.7409 30.6958V26.8304C19.7409 26.6027 19.8709 26.3924 20.082 26.2786L23.6667 24.3459C23.8778 24.2321 24.1378 24.2321 24.3489 24.3459Z"
        fill="white" stroke="#000" stroke-linecap="round" stroke-linejoin="round" />
    <path
        d="M15.4502 12.6H38.7252L35.7517 7.17724C34.1141 4.21611 31.0371 4.6917 28.2156 6.15131C27.4295 6.54214 26.3358 7.09581 24.9345 7.81233C23.5332 8.52886 22.1148 9.24538 20.6794 9.9619C19.0389 10.8087 17.2958 11.6881 15.4502 12.6Z"
        fill="#D9D9D9" stroke="#000" stroke-linecap="round" stroke-linejoin="round" />
</svg>