<svg width="175" height="42" viewBox="0 0 175 42" fill="none" xmlns="http://www.w3.org/2000/svg">
    <path fill-rule="evenodd" clip-rule="evenodd"
        d="M5.54163 9H5.74874H119.251H119.422L119.558 9.10532L123.832 12.4296L124.025 12.5798V12.8243V28.4961V28.7032L123.878 28.8497L119.604 33.1238L119.458 33.2703H119.251H5.74874H5.54163L5.39519 33.1238L1.12106 28.8497L0.974609 28.7032V28.4961V13.7741V13.567L1.12106 13.4206L5.39519 9.14645L5.54163 9ZM5.95585 10L1.97461 13.9812V28.289L5.95585 32.2703H119.044L123.025 28.289V13.0689L119.079 10H5.95585ZM123.72 32.0189L122.344 33.389L121.674 32.7159L123.05 31.3457L123.72 32.0189ZM10.5463 13.8627C10.7886 13.6246 11.118 13.4902 11.4621 13.4902H15.3214C15.6744 13.4902 16.0114 13.6315 16.255 13.8804L18.5058 16.1802C18.9854 16.6702 18.9701 17.4483 18.471 17.9197C17.97 18.393 17.1722 18.3775 16.6908 17.8855L14.8005 15.9542H11.969L10.3526 17.5422V24.33L11.9546 25.8433H14.996L16.708 24.1613C17.1993 23.6786 17.9973 23.6786 18.4886 24.1613C18.978 24.6421 18.978 25.4203 18.4886 25.9012L16.4186 27.9348C16.1763 28.1729 15.8469 28.3072 15.5028 28.3072H11.4617C11.1264 28.3072 10.8047 28.1797 10.5639 27.9522L8.23365 25.7509C7.98036 25.5116 7.83789 25.182 7.83789 24.8383V17.0476C7.83789 16.7125 7.97334 16.3905 8.21557 16.1525L10.5463 13.8627ZM82.664 13.8617C83.1669 13.3703 83.9895 13.3658 84.498 13.852L88.7598 17.926C89.0048 18.1601 89.1414 18.4779 89.1414 18.808V27.0984C89.1414 27.76 88.5846 28.3072 87.884 28.3072C87.1834 28.3072 86.6266 27.76 86.6266 27.0984V22.1335H80.6383V27.0984C80.6383 27.76 80.0816 28.3072 79.381 28.3072C78.6804 28.3072 78.1236 27.76 78.1236 27.0984V18.8077C78.1236 18.4824 78.2563 18.1688 78.4951 17.9354L82.664 13.8617ZM86.6266 19.2769L83.5951 16.399L80.6383 19.2882V19.7159H86.6266V19.2769ZM25.4322 13.4902C25.0148 13.4902 24.6204 13.6338 24.3372 13.8809L21.7088 16.1737C21.4358 16.4118 21.2901 16.7243 21.2901 17.0421V25.022C21.2901 25.3479 21.4435 25.6681 21.7296 25.9081L24.1453 27.9343C24.4272 28.1708 24.8128 28.3072 25.2195 28.3072H29.9684C30.3752 28.3072 30.7607 28.1708 31.0426 27.9343L33.4583 25.9081C33.7444 25.6681 33.8978 25.3479 33.8978 25.022V17.0421C33.8978 16.7243 33.7521 16.4118 33.4791 16.1737L30.8507 13.8809C30.5675 13.6338 30.1731 13.4902 29.7557 13.4902H25.4322ZM25.9788 15.9376H29.2096L31.1085 17.5304V24.342L29.2265 25.8598H25.9619L24.0799 24.342V17.5304L25.9788 15.9376ZM51.0214 13.4902C50.2364 13.4902 49.6292 14.0695 49.6294 14.7496V27.0479C49.6292 27.728 50.2364 28.3072 51.0214 28.3072H57.9619C58.3328 28.3072 58.6859 28.1733 58.9454 27.9389L61.1885 25.9127C61.4522 25.6745 61.597 25.3532 61.597 25.022V17.0421C61.597 16.7192 61.4594 16.4055 61.2076 16.169L58.7671 13.8762C58.5063 13.6311 58.145 13.4902 57.7645 13.4902H51.0214ZM52.3366 25.8598L52.3365 15.9376H57.2052L58.8902 17.5206V24.5298L57.4179 25.8598H52.3366ZM107.888 13.4902C107.173 13.4902 106.618 14.0262 106.618 14.659V27.1384C106.618 27.7712 107.173 28.3072 107.888 28.3072H114.295C114.633 28.3072 114.955 28.1833 115.192 27.966L117.262 26.0664C117.503 25.8455 117.636 25.5472 117.636 25.2392V16.8082C117.636 16.5079 117.51 16.2167 117.28 15.9973L115.027 13.8478C114.789 13.6206 114.459 13.4902 114.113 13.4902H107.888ZM109.087 15.7609H113.603L115.166 17.2526V24.7822L113.799 26.0365H109.088L109.087 15.7609ZM93.1304 13.4902C92.2632 13.4902 91.6166 14.0788 91.6166 14.7409V27.3072C91.6166 27.6271 91.77 27.8737 91.9824 28.0456C92.1996 28.2212 92.4654 28.3072 92.6555 28.3072C92.8999 28.3072 93.2104 28.3041 93.4608 28.1786C93.5806 28.1186 93.6843 28.0312 93.7598 27.9003C93.836 27.7681 93.8902 27.5795 93.8902 27.3072L93.8902 24.0331H97.0027L101.341 27.9424C101.919 28.4295 102.866 28.4288 103.444 27.9404C104.003 27.4674 104.003 26.7158 103.444 26.2429L103.436 26.2359L100.785 23.7334L100.962 23.5976C101.02 23.5529 101.074 23.5044 101.123 23.4523L103.064 21.2005L103.07 21.1944C103.279 20.9718 103.388 20.7012 103.388 20.4276V16.9321C103.388 16.6259 103.251 16.3241 102.992 16.0897L102.984 16.082L100.835 13.8949C100.551 13.6398 100.149 13.4902 99.7214 13.4902H93.1304ZM93.8902 21.5961V15.9213H99.0906L100.711 17.3882V20.0242L99.2315 21.5961H93.8902ZM38.5167 13.4902C37.8237 13.4902 37.2819 14.0162 37.2819 14.6412V27.1228C37.2819 27.7663 37.8397 28.3072 38.5523 28.3072H47.0649C47.7579 28.3072 48.2997 27.7812 48.2997 27.1563C48.2997 26.5313 47.7579 26.0053 47.0649 26.0053H39.7514V14.6412C39.7514 14.0162 39.2096 13.4902 38.5167 13.4902ZM68.4506 13.4902C68.1027 13.4902 67.7719 13.6177 67.5303 13.8402L65.1996 15.9869C64.9585 16.209 64.8263 16.5066 64.8263 16.8134V25.067C64.8263 25.3816 64.9653 25.6863 65.2176 25.9098L67.5479 27.9735C67.788 28.1862 68.1112 28.3072 68.4501 28.3072H72.4912C72.8391 28.3072 73.1699 28.1798 73.4115 27.9573L75.4814 26.0507C75.965 25.6054 75.965 24.8903 75.4814 24.445C74.9889 23.9913 74.1845 23.9913 73.692 24.445L71.9808 26.021H68.9465L67.341 24.5992V17.2684L68.9609 15.7764H71.7854L73.6748 17.5863C74.1571 18.0483 74.9614 18.0633 75.4639 17.6183C75.9575 17.1812 75.9719 16.4662 75.4986 16.0128L73.2478 13.8568C73.0051 13.6243 72.6667 13.4902 72.3099 13.4902H68.4506Z"
        fill="#0E0E0E" />
</svg>