<svg width="48" height="48" viewBox="0 0 48 48" fill="none" xmlns="http://www.w3.org/2000/svg">
    <path fill-rule="evenodd" clip-rule="evenodd"
        d="M20.0544 1.86032C19.1853 1.86032 18.3661 1 17.497 1H12.484C10.9865 1 9.77246 2.21463 9.77246 3.71308V5.72735C9.77246 5.7387 9.78166 5.74789 9.793 5.74789C10.156 5.74789 10.4504 6.05159 10.4504 6.42617V13.2089C10.4504 13.5834 10.156 13.8871 9.793 13.8871C9.78166 13.8871 9.77246 13.8963 9.77246 13.9077V44.7485C9.77246 46.2469 10.9865 47.4615 12.484 47.4615H34.5154C36.013 47.4615 37.227 46.2469 37.227 44.7485V3.71308C37.227 2.21463 36.013 1 34.5154 1H29.502C28.6329 1 27.8137 1.86032 26.9446 1.86032H20.0544Z"
        fill="#D9D9D9" />
    <path
        d="M20.0544 1.36032C19.7783 1.36032 19.5544 1.58418 19.5544 1.86032C19.5544 2.13646 19.7783 2.36032 20.0544 2.36032V1.36032ZM17.497 0.5H12.484V1.5H17.497V0.5ZM12.484 0.5C10.7101 0.5 9.27246 1.93874 9.27246 3.71308H10.2725C10.2725 2.49051 11.2629 1.5 12.484 1.5V0.5ZM9.27246 3.71308V5.72735H10.2725V3.71308H9.27246ZM9.27246 5.72735C9.27246 6.01484 9.50552 6.24789 9.793 6.24789V5.24789C10.0578 5.24789 10.2725 5.46255 10.2725 5.72735H9.27246ZM9.793 6.24789C9.86524 6.24789 9.95035 6.31284 9.95035 6.42617H10.9504C10.9504 5.79035 10.4469 5.24789 9.793 5.24789V6.24789ZM9.95035 6.42617V13.2089H10.9504V6.42617H9.95035ZM9.95035 13.2089C9.95035 13.3222 9.86524 13.3871 9.793 13.3871V14.3871C10.4469 14.3871 10.9504 13.8447 10.9504 13.2089H9.95035ZM9.793 13.3871C9.50556 13.3871 9.27246 13.6202 9.27246 13.9077H10.2725C10.2725 14.1725 10.0578 14.3871 9.793 14.3871V13.3871ZM9.27246 13.9077V44.7485H10.2725V13.9077H9.27246ZM9.27246 44.7485C9.27246 46.5228 10.7101 47.9615 12.484 47.9615V46.9615C11.2629 46.9615 10.2725 45.971 10.2725 44.7485H9.27246ZM12.484 47.9615H34.5154V46.9615H12.484V47.9615ZM34.5154 47.9615C36.2894 47.9615 37.727 46.5228 37.727 44.7485H36.727C36.727 45.971 35.7366 46.9615 34.5154 46.9615V47.9615ZM37.727 44.7485V3.71308H36.727V44.7485H37.727ZM37.727 3.71308C37.727 1.93874 36.2894 0.5 34.5154 0.5V1.5C35.7366 1.5 36.727 2.49051 36.727 3.71308H37.727ZM34.5154 0.5H29.502V1.5H34.5154V0.5ZM26.9446 1.36032H20.0544V2.36032H26.9446V1.36032ZM29.502 0.5C28.9247 0.5 28.3908 0.78361 27.9963 0.984667C27.5467 1.21377 27.2364 1.36032 26.9446 1.36032V2.36032C27.5219 2.36032 28.0557 2.07671 28.4503 1.87565C28.8999 1.64655 29.2102 1.5 29.502 1.5V0.5ZM17.497 1.5C17.7888 1.5 18.0991 1.64655 18.5487 1.87565C18.9433 2.07671 19.4771 2.36032 20.0544 2.36032V1.36032C19.7626 1.36032 19.4523 1.21377 19.0027 0.984667C18.6082 0.78361 18.0743 0.5 17.497 0.5V1.5Z"
        fill="#000" />
    <rect x="12.7285" y="5.64648" width="13.0968" height="8.73119" rx="2" fill="#D9D9D9" stroke="#000"
        stroke-width="0.6" stroke-linecap="round" stroke-linejoin="round" />
    <rect x="27.5117" y="6.49121" width="6.33566" height="1.26713" fill="#D9D9D9" />
    <rect x="27.5117" y="9.44727" width="6.33566" height="1.26713" fill="#D9D9D9" />
    <rect x="27.5117" y="12.4043" width="6.33566" height="1.26713" fill="#D9D9D9" />
    <rect x="12.7285" y="3.1123" width="7.6028" height="0.844755" fill="#D9D9D9" />
    <path
        d="M12.7285 20.0637C12.7285 18.9751 13.7468 17.8955 15.0029 17.8955H16.3675C17.6235 17.8955 18.6418 18.9751 18.6418 20.0637V21.6406C18.6418 22.7292 17.6235 23.8088 16.3675 23.8088H15.0029C13.7468 23.8088 12.7285 22.7292 12.7285 21.6406V20.0637Z"
        fill="#D9D9D9" stroke="#000" stroke-width="0.6" stroke-linecap="round" stroke-linejoin="round" />
    <path d="M16.2373 19.585V22.0424H15.8653V19.9569H15.8509L15.2629 20.3409V19.9857L15.8761 19.585H16.2373Z"
        fill="#000" />
    <path
        d="M20.3311 20.0637C20.3311 18.9751 21.3493 17.8955 22.6054 17.8955H23.97C25.2261 17.8955 26.2443 18.9751 26.2443 20.0637V21.6406C26.2443 22.7292 25.2261 23.8088 23.97 23.8088H22.6054C21.3493 23.8088 20.3311 22.7292 20.3311 21.6406V20.0637Z"
        fill="#D9D9D9" stroke="#000" stroke-width="0.6" stroke-linecap="round" stroke-linejoin="round" />
    <path
        d="M22.4458 22.076V21.8072L23.2773 20.9457C23.3661 20.8521 23.4393 20.7701 23.4969 20.6997C23.5553 20.6285 23.5989 20.5609 23.6277 20.4969C23.6565 20.4329 23.6709 20.3649 23.6709 20.2929C23.6709 20.2113 23.6517 20.1409 23.6133 20.0817C23.5749 20.0217 23.5225 19.9757 23.4561 19.9437C23.3897 19.9109 23.3149 19.8945 23.2317 19.8945C23.1437 19.8945 23.0669 19.9125 23.0013 19.9485C22.9357 19.9845 22.8853 20.0353 22.8501 20.1009C22.8149 20.1665 22.7973 20.2433 22.7973 20.3313H22.4434C22.4434 20.1817 22.4778 20.0509 22.5466 19.9389C22.6154 19.8269 22.7097 19.7402 22.8297 19.6786C22.9497 19.6162 23.0861 19.585 23.2389 19.585C23.3933 19.585 23.5293 19.6158 23.6469 19.6774C23.7653 19.7382 23.8577 19.8213 23.9241 19.9269C23.9905 20.0317 24.0237 20.1501 24.0237 20.2821C24.0237 20.3733 24.0065 20.4625 23.9721 20.5497C23.9385 20.6369 23.8797 20.7341 23.7957 20.8413C23.7117 20.9477 23.5949 21.0769 23.4453 21.2289L22.9569 21.74V21.758H24.0633V22.076H22.4458Z"
        fill="#000" />
    <path
        d="M27.9346 20.0637C27.9346 18.9751 28.9528 17.8955 30.2089 17.8955H31.5735C32.8296 17.8955 33.8479 18.9751 33.8479 20.0637V21.6406C33.8479 22.7292 32.8296 23.8088 31.5735 23.8088H30.2089C28.9528 23.8088 27.9346 22.7292 27.9346 21.6406V20.0637Z"
        fill="#D9D9D9" stroke="#000" stroke-width="0.6" stroke-linecap="round" stroke-linejoin="round" />
    <path
        d="M30.9144 22.1096C30.7496 22.1096 30.6024 22.0812 30.4729 22.0244C30.3441 21.9676 30.2421 21.8888 30.1669 21.788C30.0925 21.6864 30.0525 21.5689 30.0469 21.4353H30.4237C30.4285 21.5081 30.4529 21.5713 30.4969 21.6249C30.5416 21.6776 30.6 21.7184 30.672 21.7472C30.744 21.776 30.824 21.7904 30.912 21.7904C31.0088 21.7904 31.0944 21.7736 31.1688 21.74C31.244 21.7064 31.3028 21.6597 31.3452 21.5997C31.3876 21.5389 31.4088 21.4689 31.4088 21.3897C31.4088 21.3073 31.3876 21.2349 31.3452 21.1725C31.3036 21.1093 31.2424 21.0597 31.1616 21.0237C31.0816 20.9877 30.9848 20.9697 30.8712 20.9697H30.6636V20.6673H30.8712C30.9624 20.6673 31.0424 20.6509 31.1112 20.6181C31.1808 20.5853 31.2352 20.5397 31.2744 20.4813C31.3136 20.4221 31.3332 20.3529 31.3332 20.2737C31.3332 20.1977 31.316 20.1317 31.2816 20.0757C31.248 20.0189 31.2 19.9745 31.1376 19.9425C31.076 19.9105 31.0032 19.8945 30.9192 19.8945C30.8392 19.8945 30.7644 19.9093 30.6948 19.9389C30.626 19.9677 30.57 20.0093 30.5268 20.0637C30.4837 20.1173 30.4605 20.1817 30.4573 20.2569H30.0985C30.1025 20.1241 30.1417 20.0073 30.2161 19.9065C30.2913 19.8057 30.3905 19.727 30.5137 19.6702C30.6368 19.6134 30.7736 19.585 30.924 19.585C31.0816 19.585 31.2176 19.6158 31.332 19.6774C31.4472 19.7382 31.536 19.8193 31.5984 19.9209C31.6616 20.0225 31.6928 20.1337 31.692 20.2545C31.6928 20.3921 31.6544 20.5089 31.5768 20.6049C31.5 20.7009 31.3976 20.7653 31.2696 20.7981V20.8173C31.4328 20.8421 31.5592 20.9069 31.6488 21.0117C31.7392 21.1165 31.784 21.2465 31.7832 21.4017C31.784 21.5369 31.7464 21.6581 31.6704 21.7652C31.5952 21.8724 31.4924 21.9568 31.362 22.0184C31.2316 22.0792 31.0824 22.1096 30.9144 22.1096Z"
        fill="#000" />
    <path
        d="M12.7676 27.2502C12.7676 26.1616 13.7858 25.082 15.0419 25.082H16.4065C17.6626 25.082 18.6809 26.1616 18.6809 27.2502V28.8271C18.6809 29.9157 17.6626 30.9953 16.4065 30.9953H15.0419C13.7858 30.9953 12.7676 29.9157 12.7676 28.8271V27.2502Z"
        fill="#D9D9D9" stroke="#000" stroke-width="0.6" stroke-linecap="round" stroke-linejoin="round" />
    <path
        d="M14.6416 28.7685V28.4685L15.7035 26.791H15.9399V27.2326H15.7899L15.0304 28.4349V28.4541H16.4859V28.7685H14.6416ZM15.8067 29.2485V28.6773L15.8091 28.5405V26.791H16.1607V29.2485H15.8067Z"
        fill="#000" />
    <path
        d="M20.3311 27.2502C20.3311 26.1616 21.3493 25.082 22.6054 25.082H23.97C25.2261 25.082 26.2443 26.1616 26.2443 27.2502V28.8271C26.2443 29.9157 25.2261 30.9953 23.97 30.9953H22.6054C21.3493 30.9953 20.3311 29.9157 20.3311 28.8271V27.2502Z"
        fill="#D9D9D9" stroke="#000" stroke-width="0.6" stroke-linecap="round" stroke-linejoin="round" />
    <path
        d="M23.0679 29.2821C22.9175 29.2821 22.7823 29.2533 22.6623 29.1957C22.5431 29.1373 22.4479 29.0573 22.3767 28.9557C22.3055 28.8541 22.2675 28.7381 22.2627 28.6077H22.6227C22.6315 28.7133 22.6783 28.8001 22.7631 28.8681C22.8479 28.9361 22.9495 28.9701 23.0679 28.9701C23.1622 28.9701 23.2458 28.9485 23.3186 28.9053C23.3922 28.8613 23.4498 28.8009 23.4914 28.7241C23.5338 28.6473 23.555 28.5597 23.555 28.4613C23.555 28.3613 23.5334 28.2721 23.4902 28.1937C23.447 28.1153 23.3874 28.0537 23.3114 28.009C23.2362 27.9642 23.1498 27.9414 23.0523 27.9406C22.9779 27.9406 22.9031 27.9534 22.8279 27.979C22.7527 28.0046 22.6919 28.0381 22.6455 28.0797L22.3059 28.0294L22.4439 26.791H23.795V27.109H22.7523L22.6743 27.7966H22.6887C22.7367 27.7502 22.8003 27.7114 22.8795 27.6802C22.9595 27.649 23.0451 27.6334 23.1362 27.6334C23.2858 27.6334 23.419 27.669 23.5358 27.7402C23.6534 27.8114 23.7458 27.9086 23.813 28.0317C23.881 28.1541 23.9146 28.2949 23.9138 28.4541C23.9146 28.6133 23.8786 28.7553 23.8058 28.8801C23.7338 29.0049 23.6338 29.1033 23.5058 29.1753C23.3786 29.2465 23.2326 29.2821 23.0679 29.2821Z"
        fill="#000" />
    <path
        d="M27.9346 27.2502C27.9346 26.1616 28.9528 25.082 30.2089 25.082H31.5735C32.8296 25.082 33.8479 26.1616 33.8479 27.2502V28.8271C33.8479 29.9157 32.8296 30.9953 31.5735 30.9953H30.2089C28.9528 30.9953 27.9346 29.9157 27.9346 28.8271V27.2502Z"
        fill="#D9D9D9" stroke="#000" stroke-width="0.6" stroke-linecap="round" stroke-linejoin="round" />
    <path
        d="M30.7176 29.2825C30.608 29.2809 30.5001 29.2609 30.3937 29.2225C30.2881 29.1841 30.1921 29.1201 30.1057 29.0305C30.0193 28.9409 29.9501 28.8205 29.8981 28.6693C29.8469 28.5181 29.8213 28.3293 29.8213 28.1029C29.8213 27.8886 29.8425 27.6982 29.8849 27.5318C29.9281 27.3654 29.9901 27.225 30.0709 27.1106C30.1517 26.9954 30.2493 26.9078 30.3637 26.8478C30.4781 26.7878 30.6064 26.7578 30.7488 26.7578C30.8952 26.7578 31.0252 26.7866 31.1388 26.8442C31.2524 26.9018 31.3444 26.9814 31.4148 27.083C31.486 27.1846 31.5312 27.3002 31.5504 27.4298H31.1844C31.1596 27.3274 31.1104 27.2438 31.0368 27.179C30.9632 27.1142 30.8672 27.0818 30.7488 27.0818C30.5688 27.0818 30.4285 27.1602 30.3277 27.317C30.2277 27.4738 30.1773 27.6918 30.1765 27.9709H30.1945C30.2369 27.9014 30.2889 27.8422 30.3505 27.7934C30.4129 27.7438 30.4825 27.7058 30.5592 27.6794C30.6368 27.6522 30.7184 27.6386 30.804 27.6386C30.9464 27.6386 31.0752 27.6734 31.1904 27.743C31.3064 27.8118 31.3988 27.907 31.4676 28.0285C31.5364 28.1501 31.5708 28.2893 31.5708 28.4461C31.5708 28.6029 31.5352 28.7449 31.464 28.8721C31.3936 28.9993 31.2944 29.1001 31.1664 29.1745C31.0384 29.2481 30.8888 29.2841 30.7176 29.2825ZM30.7164 28.9705C30.8108 28.9705 30.8952 28.9473 30.9696 28.9009C31.044 28.8545 31.1028 28.7921 31.146 28.7137C31.1892 28.6353 31.2108 28.5477 31.2108 28.4509C31.2108 28.3565 31.1896 28.2705 31.1472 28.1929C31.1056 28.1153 31.048 28.0537 30.9744 28.0081C30.9016 27.9625 30.8184 27.9397 30.7248 27.9397C30.6536 27.9397 30.5876 27.9533 30.5269 27.9805C30.4669 28.0077 30.4141 28.0453 30.3685 28.0933C30.3229 28.1413 30.2869 28.1965 30.2605 28.2589C30.2349 28.3205 30.2221 28.3857 30.2221 28.4545C30.2221 28.5465 30.2433 28.6317 30.2857 28.7101C30.3289 28.7885 30.3877 28.8517 30.4621 28.8997C30.5373 28.9469 30.622 28.9705 30.7164 28.9705Z"
        fill="#000" />
    <path
        d="M12.7285 34.4241C12.7285 33.3355 13.7468 32.2559 15.0029 32.2559H16.3675C17.6235 32.2559 18.6418 33.3355 18.6418 34.4241V36.0009C18.6418 37.0895 17.6235 38.1691 16.3675 38.1691H15.0029C13.7468 38.1691 12.7285 37.0895 12.7285 36.0009V34.4241Z"
        fill="#D9D9D9" stroke="#000" stroke-width="0.6" stroke-linecap="round" stroke-linejoin="round" />
    <path d="M15.0088 36.4028L16.0816 34.2813V34.2633H14.8408V33.9453H16.4655V34.2741L15.3964 36.4028H15.0088Z"
        fill="#000" />
    <path
        d="M20.3311 34.4241C20.3311 33.3355 21.3493 32.2559 22.6054 32.2559H23.97C25.2261 32.2559 26.2443 33.3355 26.2443 34.4241V36.0009C26.2443 37.0895 25.2261 38.1691 23.97 38.1691H22.6054C21.3493 38.1691 20.3311 37.0895 20.3311 36.0009V34.4241Z"
        fill="#D9D9D9" stroke="#000" stroke-width="0.6" stroke-linecap="round" stroke-linejoin="round" />
    <path
        d="M23.3181 36.47C23.1461 36.47 22.9942 36.4404 22.8622 36.3812C22.731 36.322 22.6282 36.2404 22.5538 36.1364C22.4794 36.0324 22.4426 35.914 22.4434 35.7812C22.4426 35.6772 22.4638 35.5816 22.507 35.4944C22.551 35.4064 22.6106 35.3332 22.6858 35.2748C22.761 35.2156 22.845 35.178 22.9378 35.162V35.1476C22.8154 35.1181 22.7174 35.0525 22.6438 34.9509C22.5702 34.8493 22.5338 34.7325 22.5346 34.6005C22.5338 34.4749 22.567 34.3629 22.6342 34.2645C22.7022 34.1653 22.7954 34.0873 22.9138 34.0305C23.0322 33.9737 23.1669 33.9453 23.3181 33.9453C23.4677 33.9453 23.6013 33.9741 23.7189 34.0317C23.8373 34.0885 23.9305 34.1665 23.9985 34.2657C24.0665 34.3641 24.1009 34.4757 24.1017 34.6005C24.1009 34.7325 24.0633 34.8493 23.9889 34.9509C23.9145 35.0525 23.8177 35.1181 23.6985 35.1476V35.162C23.7905 35.178 23.8733 35.2156 23.9469 35.2748C24.0213 35.3332 24.0805 35.4064 24.1245 35.4944C24.1693 35.5816 24.1921 35.6772 24.1929 35.7812C24.1921 35.914 24.1545 36.0324 24.0801 36.1364C24.0057 36.2404 23.9025 36.322 23.7705 36.3812C23.6393 36.4404 23.4885 36.47 23.3181 36.47ZM23.3181 36.1664C23.4197 36.1664 23.5077 36.1496 23.5821 36.116C23.6565 36.0816 23.7141 36.034 23.7549 35.9732C23.7957 35.9116 23.8165 35.8396 23.8173 35.7572C23.8165 35.6716 23.7941 35.596 23.7501 35.5304C23.7069 35.4648 23.6481 35.4132 23.5737 35.3756C23.4993 35.338 23.4141 35.3192 23.3181 35.3192C23.2213 35.3192 23.1353 35.338 23.0601 35.3756C22.985 35.4132 22.9258 35.4648 22.8826 35.5304C22.8394 35.596 22.8182 35.6716 22.819 35.7572C22.8182 35.8396 22.8378 35.9116 22.8778 35.9732C22.9186 36.034 22.9766 36.0816 23.0517 36.116C23.1269 36.1496 23.2157 36.1664 23.3181 36.1664ZM23.3181 35.0229C23.3997 35.0229 23.4721 35.0065 23.5353 34.9737C23.5985 34.9409 23.6481 34.8953 23.6841 34.8369C23.7209 34.7785 23.7397 34.7101 23.7405 34.6317C23.7397 34.5549 23.7213 34.4877 23.6853 34.4301C23.6501 34.3725 23.6009 34.3281 23.5377 34.2969C23.4745 34.2649 23.4013 34.2489 23.3181 34.2489C23.2333 34.2489 23.1589 34.2649 23.0949 34.2969C23.0318 34.3281 22.9826 34.3725 22.9474 34.4301C22.9122 34.4877 22.895 34.5549 22.8958 34.6317C22.895 34.7101 22.9126 34.7785 22.9486 34.8369C22.9846 34.8953 23.0341 34.9409 23.0973 34.9737C23.1613 35.0065 23.2349 35.0229 23.3181 35.0229Z"
        fill="#000" />
    <path
        d="M27.9346 34.4241C27.9346 33.3355 28.9528 32.2559 30.2089 32.2559H31.5735C32.8296 32.2559 33.8479 33.3355 33.8479 34.4241V36.0009C33.8479 37.0895 32.8296 38.1691 31.5735 38.1691H30.2089C28.9528 38.1691 27.9346 37.0895 27.9346 36.0009V34.4241Z"
        fill="#D9D9D9" stroke="#000" stroke-width="0.6" stroke-linecap="round" stroke-linejoin="round" />
    <path
        d="M30.9 33.9454C31.0096 33.9462 31.1176 33.9662 31.224 34.0054C31.3304 34.0446 31.4264 34.1086 31.512 34.1973C31.5984 34.2861 31.6672 34.4061 31.7184 34.5573C31.7704 34.7077 31.7968 34.8949 31.7976 35.1189C31.7976 35.3341 31.776 35.5257 31.7328 35.6937C31.6896 35.8609 31.6276 36.0021 31.5468 36.1172C31.4668 36.2324 31.3696 36.32 31.2552 36.38C31.1408 36.44 31.012 36.47 30.8688 36.47C30.7224 36.47 30.5924 36.4412 30.4789 36.3836C30.3653 36.326 30.2729 36.2464 30.2017 36.1448C30.1305 36.0425 30.0861 35.9249 30.0685 35.7921H30.4345C30.4585 35.8977 30.5073 35.9833 30.5808 36.0489C30.6552 36.1136 30.7512 36.146 30.8688 36.146C31.0488 36.146 31.1892 36.0677 31.29 35.9109C31.3908 35.7533 31.4416 35.5333 31.4424 35.2509H31.4232C31.3816 35.3197 31.3296 35.3789 31.2672 35.4285C31.2056 35.4781 31.1364 35.5165 31.0596 35.5437C30.9828 35.5709 30.9008 35.5845 30.8136 35.5845C30.672 35.5845 30.5432 35.5497 30.4273 35.4801C30.3113 35.4105 30.2189 35.3149 30.1501 35.1933C30.0813 35.0717 30.0469 34.9329 30.0469 34.7769C30.0469 34.6217 30.0821 34.4809 30.1525 34.3545C30.2237 34.2281 30.3229 34.1282 30.4501 34.0546C30.578 33.9802 30.728 33.9438 30.9 33.9454ZM30.9012 34.2573C30.8076 34.2573 30.7232 34.2805 30.648 34.3269C30.5736 34.3725 30.5149 34.4345 30.4717 34.5129C30.4285 34.5905 30.4069 34.6769 30.4069 34.7721C30.4069 34.8673 30.4277 34.9537 30.4693 35.0313C30.5117 35.1081 30.5692 35.1693 30.642 35.2149C30.7156 35.2597 30.7996 35.2821 30.894 35.2821C30.9644 35.2821 31.03 35.2685 31.0908 35.2413C31.1516 35.2141 31.2048 35.1765 31.2504 35.1285C31.296 35.0797 31.3316 35.0245 31.3572 34.9629C31.3828 34.9013 31.3956 34.8365 31.3956 34.7685C31.3956 34.6781 31.374 34.5941 31.3308 34.5165C31.2884 34.4389 31.23 34.3765 31.1556 34.3293C31.0812 34.2813 30.9964 34.2573 30.9012 34.2573Z"
        fill="#000" />
    <path
        d="M12.7678 41.9192C12.7678 40.8306 13.7861 39.751 15.0422 39.751H16.4068C17.6629 39.751 18.6811 40.8306 18.6811 41.9192V43.4961C18.6811 44.5847 17.6629 45.6643 16.4068 45.6643H15.0422C13.7861 45.6643 12.7678 44.5847 12.7678 43.4961V41.9192Z"
        fill="#D9D9D9" stroke="#000" stroke-width="0.6" stroke-linecap="round" stroke-linejoin="round" />
    <path fill-rule="evenodd" clip-rule="evenodd"
        d="M15.4082 42.8155L14.7021 42.1094L14.9795 41.832L15.6856 42.5381L16.3917 41.832L16.669 42.1094L15.9629 42.8155L16.669 43.5215L16.3917 43.7989L15.6856 43.0928L14.9795 43.7989L14.7021 43.5215L15.4082 42.8155Z"
        fill="#000" />
    <path
        d="M20.3311 42.0276C20.3311 40.939 21.3493 39.8594 22.6054 39.8594H23.97C25.2261 39.8594 26.2443 40.939 26.2443 42.0276V43.6045C26.2443 44.6931 25.2261 45.7727 23.97 45.7727H22.6054C21.3493 45.7727 20.3311 44.6931 20.3311 43.6045V42.0276Z"
        fill="#D9D9D9" stroke="#000" stroke-width="0.6" stroke-linecap="round" stroke-linejoin="round" />
    <path
        d="M23.3445 44.0807C23.1549 44.0799 22.9929 44.0299 22.8585 43.9307C22.7241 43.8315 22.6213 43.6871 22.5502 43.4975C22.479 43.3079 22.4434 43.0795 22.4434 42.8124C22.4434 42.546 22.479 42.3184 22.5502 42.1296C22.6221 41.9408 22.7253 41.7968 22.8597 41.6976C22.9949 41.5984 23.1565 41.5488 23.3445 41.5488C23.5325 41.5488 23.6937 41.5988 23.8281 41.6988C23.9625 41.798 24.0653 41.942 24.1365 42.1308C24.2085 42.3188 24.2445 42.546 24.2445 42.8124C24.2445 43.0803 24.2089 43.3091 24.1377 43.4987C24.0665 43.6875 23.9637 43.8319 23.8293 43.9319C23.6949 44.0311 23.5333 44.0807 23.3445 44.0807ZM23.3445 43.7603C23.5109 43.7603 23.6409 43.6791 23.7345 43.5167C23.8289 43.3543 23.8761 43.1195 23.8761 42.8124C23.8761 42.6084 23.8545 42.436 23.8113 42.2952C23.7689 42.1536 23.7077 42.0464 23.6277 41.9736C23.5485 41.9 23.4541 41.8632 23.3445 41.8632C23.1789 41.8632 23.0489 41.9448 22.9545 42.108C22.8601 42.2712 22.8125 42.506 22.8117 42.8124C22.8117 43.0172 22.8329 43.1903 22.8753 43.3319C22.9185 43.4727 22.9797 43.5795 23.0589 43.6523C23.1381 43.7243 23.2333 43.7603 23.3445 43.7603Z"
        fill="#000" />
    <path
        d="M27.9346 41.9192C27.9346 40.8306 28.9528 39.751 30.2089 39.751H31.5735C32.8296 39.751 33.8479 40.8306 33.8479 41.9192V43.4961C33.8479 44.5847 32.8296 45.6643 31.5735 45.6643H30.2089C28.9528 45.6643 27.9346 44.5847 27.9346 43.4961V41.9192Z"
        fill="#D9D9D9" stroke="#000" stroke-width="0.6" stroke-linecap="round" stroke-linejoin="round" />
    <path fill-rule="evenodd" clip-rule="evenodd"
        d="M32.4984 42.1184L30.6708 43.7175L29.6963 42.7431L29.9736 42.4657L30.6886 43.1808L32.2401 41.8232L32.4984 42.1184Z"
        fill="#000" />
</svg>