<svg width="48" height="48" viewBox="0 0 48 48" fill="none" xmlns="http://www.w3.org/2000/svg">
    <path
        d="M1 21.0131V14.1219C1 13.65 1.48183 13.2899 1.72275 13.1689L13.1165 6.18041C13.5926 5.85367 14.0801 6.04427 14.2643 6.18041L46.2773 26.0794C46.9575 26.515 47 26.8054 47 26.8962V33.4926C47 33.783 46.8724 33.9463 46.6599 34.0825L34.756 41.7561C34.1183 42.1191 33.679 42.0132 33.3956 41.8468L1.34011 21.6938C1.04251 21.5122 0.999985 21.1946 1 21.0131Z"
        fill="#D9D9D9" stroke="#000" stroke-width="0.6" stroke-linecap="round" stroke-linejoin="round" />
    <path d="M34 35V42" stroke="#000" stroke-width="0.6" />
    <path
        d="M47 26.8815C47 27.0484 46.9198 27.2017 46.7873 27.2849C45.4916 28.0991 38.3858 32.555 34.8888 34.7482C34.245 35.1229 33.8016 35.0136 33.5155 34.8419L1.15804 14.4176C1.00192 14.3202 0.955097 14.0993 1.04627 13.9301C1.20167 13.6417 1.49473 13.4301 1.66608 13.3421L13.0741 6.18477C13.5509 5.85014 14.039 6.04534 14.2234 6.18477L46.2764 26.0449C46.9574 26.4911 47 26.7885 47 26.8815Z"
        fill="#D5D5D5" stroke="#000" stroke-width="0.6" stroke-linecap="round" stroke-linejoin="round" />
    <path
        d="M33 29.6778L33.395 29.4381L35.0074 30.743C35.1532 30.861 35.2446 30.9822 35.2816 31.1065C35.3194 31.2303 35.3058 31.3507 35.2409 31.4677C35.1752 31.584 35.062 31.691 34.9013 31.7885C34.7534 31.8782 34.5971 31.94 34.4325 31.9739C34.2687 32.0072 34.1082 32.0086 33.9509 31.9783C33.7938 31.9467 33.6512 31.8792 33.5232 31.7755L33.9169 31.5366C33.9798 31.5876 34.0509 31.6215 34.1301 31.6384C34.2102 31.6548 34.2927 31.6556 34.3776 31.6408C34.4627 31.6248 34.5437 31.5935 34.6206 31.5468C34.7044 31.496 34.7602 31.4407 34.788 31.3808C34.8159 31.3199 34.8152 31.2558 34.7861 31.1886C34.7569 31.1214 34.699 31.0527 34.6124 30.9826L33 29.6778Z"
        fill="#000" />
    <path
        d="M36.4534 30.8028L36.0328 31.058L34.7038 28.6441L35.1617 28.3663L38.3811 29.6333L37.9604 29.8886L35.3567 28.8329L35.3362 28.8454L36.4534 30.8028ZM35.6334 30.0393L36.998 29.2114L37.2867 29.4451L35.9221 30.2729L35.6334 30.0393Z"
        fill="#000" />
    <path
        d="M39.5962 28.8961L38.7459 29.412L36.4717 27.5715L37.349 27.0393C37.6063 26.8832 37.8729 26.786 38.1486 26.7476C38.4236 26.7087 38.695 26.7279 38.9629 26.8055C39.2309 26.8819 39.4829 27.0157 39.7191 27.2068C39.956 27.3985 40.1095 27.5936 40.1798 27.7921C40.2509 27.9901 40.2382 28.1832 40.1419 28.3717C40.0449 28.5595 39.863 28.7343 39.5962 28.8961ZM38.8424 28.9289L39.2746 28.6667C39.4747 28.5453 39.6084 28.4181 39.6758 28.285C39.7424 28.1512 39.7465 28.0141 39.6879 27.8735C39.6287 27.7323 39.5091 27.5889 39.3292 27.4433C39.1508 27.2989 38.9665 27.1964 38.7763 27.1357C38.5869 27.0745 38.3955 27.057 38.202 27.0832C38.0085 27.1094 37.8159 27.1806 37.6244 27.2968L37.1678 27.5738L38.8424 28.9289Z"
        fill="#000" />
    <path
        d="M41.3379 27.8395L39.0637 25.9991L40.7104 25L41.0058 25.239L39.7554 25.9977L40.4483 26.5584L41.6128 25.8519L41.9071 26.0901L40.7425 26.7966L41.4388 27.36L42.7046 26.5921L43 26.8311L41.3379 27.8395Z"
        fill="#000" />
    <path
        d="M16.4775 21.5991L4.69099 14.2919C4.15163 13.896 4.46076 13.5025 4.68274 13.3553L13.1743 8.02623C13.7558 7.67242 14.3296 7.82495 14.5438 7.94544L26.384 15.1029C27.0946 15.5774 26.8483 15.9679 26.6364 16.1039L17.7866 21.5858C17.352 22.0184 16.7328 21.7749 16.4775 21.5991Z"
        fill="#000" />
    <path
        d="M25.7824 24.9692L23.2868 23.4438L23.2867 22.5447L28.3678 20.1887C28.5994 20.0478 28.8279 20.1085 28.9132 20.1565L31.3749 20.7478L31.3749 21.8711L26.3039 24.964C26.1308 25.1363 25.8841 25.0393 25.7824 24.9692Z"
        fill="#D9D9D9" stroke="#000" stroke-width="0.4" stroke-linecap="round" stroke-linejoin="round" />
    <path
        d="M25.7828 24.0711L23.4351 22.6827C23.2203 22.525 23.3434 22.3683 23.4318 22.3096L28.3681 19.2905C28.5997 19.1496 28.8283 19.2104 28.9136 19.2584L31.1506 20.5233C31.4336 20.7124 31.3355 20.8679 31.2511 20.9221L26.3042 24.0658C26.1311 24.2381 25.8844 24.1411 25.7828 24.0711Z"
        fill="white" stroke="#000" stroke-width="0.4" />
    <path
        d="M26.8414 31.9309L25.2399 31.0192C25.0968 30.9543 25.0546 31.0694 25.0513 31.135L25 34.7198C24.998 34.8878 25.0965 34.9905 25.146 35.0209L26.7855 35.9726C26.9647 36.064 26.8808 35.9025 26.8829 35.8404L26.9937 32.2107C27.029 32.064 26.9069 31.963 26.8414 31.9309Z"
        fill="#D4D4D4" stroke="#000" stroke-width="0.6" />
    <path
        d="M39.5005 35C39.3382 34.8068 39.395 34.5408 39.6273 34.4059L43.1937 32.0769C43.4259 31.942 43.7457 31.9892 43.908 32.1824C44.0702 32.3756 44.0135 32.6416 43.7812 32.7765L40.2148 35.1055C39.9825 35.2404 39.6627 35.1932 39.5005 35Z"
        fill="#000" />
</svg>