<svg width="175" height="42" viewBox="0 0 175 42" fill="none" xmlns="http://www.w3.org/2000/svg">
    <path fill-rule="evenodd" clip-rule="evenodd"
        d="M37.728 14.2528C37.976 14.1107 38.1011 13.8431 38.0997 13.4484C38.1286 13.1322 37.9952 12.8228 37.7454 12.6266C37.4594 12.4438 37.123 12.3558 36.7834 12.3745H35.9024V14.4659H36.6472C37.0194 14.4866 37.3911 14.4137 37.728 14.2528ZM35.9024 11.484H36.6857C36.985 11.501 37.2816 11.4175 37.5282 11.247C37.7399 11.0779 37.8554 10.8153 37.838 10.5449C37.8646 10.2772 37.7395 10.0169 37.5149 9.86974C37.2 9.72032 36.8512 9.65386 36.5029 9.67723H35.9029V11.484H35.9024ZM39.0155 12.3727C39.2941 12.6188 39.4371 12.9938 39.4371 13.4966C39.4371 14.1932 39.1906 14.6896 38.7001 14.9825C38.2097 15.2749 37.5222 15.4229 36.639 15.4252H34.626V8.73535H36.3773C38.2216 8.73535 39.1447 9.30323 39.1461 10.4385C39.1603 10.7947 39.0315 11.1407 38.7881 11.4006C38.5512 11.6481 38.2432 11.8163 37.9068 11.8814C38.3138 11.9423 38.6974 12.1119 39.0155 12.3727Z"
        fill="#2F2F2F" />
    <path fill-rule="evenodd" clip-rule="evenodd"
        d="M41.7763 14.4768C41.8313 14.5424 41.9147 14.5767 41.9995 14.5694C42.0985 14.5694 42.1966 14.5534 42.2901 14.5208L42.5518 15.393C42.2727 15.5085 41.9729 15.5677 41.6709 15.5658C41.34 15.5874 41.0164 15.4664 40.7812 15.2331C40.5567 14.9599 40.4457 14.6116 40.4714 14.2596V8.24987L41.7103 8.11328V14.1725C41.703 14.2784 41.7254 14.3838 41.7763 14.4768Z"
        fill="#2F2F2F" />
    <path fill-rule="evenodd" clip-rule="evenodd"
        d="M44.2477 12.8542C44.2477 13.4606 44.3403 13.9088 44.5232 14.2013C44.701 14.4845 45.0186 14.6495 45.3523 14.6321C45.6873 14.6495 46.004 14.4818 46.1782 14.1953C46.3625 13.9056 46.455 13.4606 46.455 12.8602C46.455 12.2602 46.3625 11.8161 46.1782 11.5287C46.0031 11.2482 45.6905 11.0837 45.3605 11.0997C44.6222 11.096 44.2546 11.6809 44.2559 12.8547H44.2477V12.8542ZM47.1343 10.8765C47.5578 11.355 47.7686 12.0141 47.7673 12.8547C47.7778 13.3428 47.6788 13.8277 47.4785 14.2728C47.2998 14.6651 47.0101 14.9965 46.6453 15.2252C46.2584 15.4589 45.8115 15.5763 45.3601 15.5639C44.6034 15.5639 44.0126 15.3256 43.5881 14.8439C43.1623 14.3631 42.9451 13.7012 42.9451 12.8542C42.9346 12.3675 43.034 11.8848 43.2357 11.4416C43.4149 11.0502 43.705 10.7206 44.0703 10.4933C44.4608 10.2596 44.9091 10.1422 45.3637 10.1541C46.1218 10.1546 46.7108 10.3934 47.1343 10.8765Z"
        fill="#2F2F2F" />
    <path fill-rule="evenodd" clip-rule="evenodd"
        d="M51.8942 10.2974C52.1733 10.4014 52.4304 10.5549 52.6541 10.7516L52.0926 11.5078C51.9423 11.3896 51.7768 11.2933 51.5995 11.2232C51.4294 11.16 51.2488 11.1283 51.0669 11.1302C50.2973 11.1302 49.9128 11.715 49.9128 12.8838C49.9128 13.4764 50.0127 13.9036 50.2125 14.1648C50.4165 14.4247 50.735 14.5686 51.0646 14.5498C51.2383 14.5526 51.4111 14.5219 51.5733 14.4595C51.7539 14.3789 51.9235 14.2762 52.0793 14.1534L52.6564 14.9655C52.1921 15.3519 51.6059 15.5614 51.0023 15.5559C50.5545 15.5669 50.1126 15.455 49.7244 15.2327C49.3605 15.015 49.0704 14.6933 48.8912 14.3087C48.6881 13.866 48.5887 13.382 48.6006 12.8948C48.5905 12.4007 48.6899 11.9107 48.8912 11.4592C49.0681 11.0637 49.3568 10.7291 49.7226 10.4972C50.103 10.2616 50.5435 10.1424 50.9903 10.153C51.2974 10.1484 51.6036 10.1974 51.8942 10.2974Z"
        fill="#2F2F2F" />
    <path fill-rule="evenodd" clip-rule="evenodd"
        d="M58.0278 15.4176H56.6074L54.8451 12.6212L56.5574 10.297H57.8646L56.1614 12.5525L58.0278 15.4176ZM53.5576 15.4176V8.24596L54.7965 8.10938V15.4217L53.5576 15.4176Z"
        fill="#2F2F2F" />
    <path fill-rule="evenodd" clip-rule="evenodd"
        d="M62.1589 10.7592L61.6758 11.504C61.3105 11.234 60.8714 11.0823 60.4176 11.069C60.21 11.0566 60.0033 11.1057 59.8227 11.2093C59.6925 11.2881 59.6133 11.4302 59.6146 11.5823C59.611 11.6859 59.6417 11.7881 59.7017 11.8729C59.787 11.9701 59.8961 12.0448 60.0171 12.0902C60.2357 12.1814 60.4598 12.2575 60.6885 12.3171C61.1404 12.4147 61.5635 12.6164 61.9237 12.906C62.2001 13.1742 62.3463 13.5486 62.3243 13.9336C62.3408 14.4117 62.1071 14.8645 61.7069 15.1267C61.2514 15.4278 60.7133 15.579 60.1669 15.5598C59.7737 15.5662 59.3827 15.5007 59.0128 15.3673C58.6838 15.2486 58.3799 15.068 58.1182 14.8361L58.7456 14.1298C59.1306 14.4561 59.6165 14.6376 60.1211 14.6417C60.3548 14.6527 60.5863 14.5955 60.7893 14.4786C60.9443 14.3878 61.0401 14.2219 61.0391 14.0418C61.0456 13.9148 61.0139 13.7883 60.9484 13.6802C60.8618 13.5729 60.7486 13.4904 60.6198 13.4418C60.3782 13.3424 60.1307 13.2589 59.8786 13.1916C59.4473 13.099 59.049 12.8932 58.7245 12.5948C58.4766 12.3372 58.3441 11.9903 58.3565 11.6332C58.3519 11.3564 58.4385 11.086 58.6026 10.8637C58.7818 10.6253 59.0229 10.4415 59.2993 10.3306C59.6256 10.1968 59.9758 10.1317 60.3287 10.1381C60.9924 10.1267 61.6386 10.3467 62.1589 10.7592Z"
        fill="#2F2F2F" />
    <path fill-rule="evenodd" clip-rule="evenodd"
        d="M65.6516 15.4618C65.4303 15.5255 65.2011 15.558 64.9705 15.558C64.5415 15.5846 64.1222 15.4279 63.816 15.1272C63.5525 14.8485 63.431 14.4323 63.431 13.8842V11.1901H62.6289V10.2876H63.431V9.15598L64.6699 9.00977V10.2876H65.8593L65.7364 11.1804H64.6699V13.8512C64.6529 14.0409 64.6988 14.2307 64.7991 14.392C64.9018 14.5098 65.0549 14.5717 65.2112 14.5579C65.4284 14.5511 65.6393 14.4846 65.8208 14.3654L66.2576 15.1698C66.0738 15.3 65.8689 15.399 65.6516 15.4618Z"
        fill="#2F2F2F" />
    <path fill-rule="evenodd" clip-rule="evenodd"
        d="M69.9993 10.2239L69.7857 11.4229C69.6367 11.3853 69.4832 11.3656 69.3296 11.3652C69.0537 11.3537 68.7883 11.4747 68.6155 11.6906C68.4052 11.9894 68.2631 12.3313 68.1998 12.6911V15.4123H66.9609V10.2876H68.0367L68.1522 11.296C68.2475 10.9692 68.4317 10.6758 68.6834 10.4471C68.9066 10.2542 69.1926 10.1492 69.4882 10.1524C69.661 10.152 69.8333 10.1762 69.9993 10.2239Z"
        fill="#2F2F2F" />
    <path fill-rule="evenodd" clip-rule="evenodd"
        d="M73.647 12.3719C73.647 11.474 73.3143 11.0248 72.6497 11.0248C72.3724 11.0129 72.107 11.1371 71.9379 11.3576C71.7665 11.5808 71.667 11.9346 71.6336 12.4273H73.6466V12.3719H73.647ZM74.8474 13.2322H71.634C71.678 13.7285 71.8114 14.0824 72.0186 14.2964C72.2519 14.5164 72.5649 14.6319 72.8848 14.6159C73.1025 14.6163 73.3184 14.5787 73.5233 14.504C73.7502 14.4156 73.9642 14.3005 74.1622 14.1598L74.6742 14.8661C74.143 15.3112 73.4719 15.5545 72.7785 15.5532C71.9975 15.5532 71.3957 15.3153 70.9735 14.8391C70.5514 14.3633 70.3397 13.7116 70.3383 12.8843C70.331 12.4007 70.4231 11.9213 70.6096 11.4758C70.7714 11.0812 71.0428 10.742 71.3929 10.4982C71.7523 10.2566 72.1781 10.1324 72.6107 10.1443C73.328 10.1443 73.8835 10.3712 74.2772 10.8254C74.6714 11.2796 74.868 11.914 74.868 12.7284C74.88 12.7935 74.8735 12.9613 74.8474 13.2322Z"
        fill="#2F2F2F" />
    <path fill-rule="evenodd" clip-rule="evenodd"
        d="M78.5782 14.0244V12.9817H78.0644C77.2664 12.9817 76.8668 13.2782 76.8654 13.8727C76.8507 14.0812 76.9163 14.2879 77.0483 14.4497C77.1904 14.5936 77.3888 14.6683 77.5909 14.6537C78.0154 14.6546 78.4031 14.4094 78.5837 14.0244H78.5782ZM79.89 14.4923C79.9624 14.595 80.065 14.6725 80.1851 14.7119L79.923 15.5351C79.6736 15.5204 79.4307 15.4489 79.213 15.327C79.0168 15.1986 78.8688 15.0093 78.7913 14.788C78.6291 15.0355 78.404 15.2344 78.1391 15.365C77.8646 15.4947 77.5644 15.5603 77.2619 15.5575C76.8154 15.5813 76.3796 15.4241 76.0509 15.1207C75.7498 14.8191 75.5889 14.4057 75.6068 13.9799C75.5788 13.4808 75.8062 13.0018 76.2109 12.708C76.6151 12.4133 77.1904 12.2676 77.9429 12.2653H78.5819V11.9765C78.6085 11.724 78.5259 11.4719 78.355 11.284C78.1414 11.1359 77.8824 11.0676 77.6235 11.0915C77.1592 11.1089 76.7013 11.2001 76.2673 11.3628L75.9785 10.5199C76.5693 10.2843 77.1991 10.1601 77.8352 10.1523C79.1452 10.1523 79.8006 10.739 79.802 11.9128V14.0624C79.791 14.2118 79.8221 14.3599 79.89 14.4923Z"
        fill="#2F2F2F" />
    <mask id="mask0_1169_8257" style="mask-type:luminance" maskUnits="userSpaceOnUse" x="81" y="10" width="8"
        height="6">
        <path d="M81.3008 10.1396H88.0895V15.4074H81.3008V10.1396Z" fill="white" />
    </mask>
    <g mask="url(#mask0_1169_8257)">
        <path fill-rule="evenodd" clip-rule="evenodd"
            d="M87.718 10.5623C87.9769 10.8832 88.1085 11.2879 88.0878 11.6995V15.4056H86.8485V11.8938C86.8485 11.3447 86.661 11.0711 86.2866 11.0725C86.0959 11.0702 85.9121 11.1385 85.7687 11.265C85.5885 11.4318 85.4368 11.6271 85.3186 11.842V15.4074H84.0797V11.8938C84.0797 11.3447 83.8918 11.0711 83.5155 11.0725C83.3225 11.0688 83.1346 11.1375 82.9884 11.265C82.8101 11.4327 82.6588 11.6275 82.5397 11.842V15.4074H81.3008V10.2892H82.3747L82.4709 10.957C82.7931 10.45 83.3518 10.143 83.9523 10.143C84.2259 10.1352 84.4954 10.2131 84.7223 10.3662C84.9459 10.5225 85.1141 10.7466 85.2012 11.0051C85.3763 10.7452 85.6046 10.5252 85.8709 10.3602C86.1326 10.2112 86.4296 10.1356 86.7312 10.1407C87.1061 10.1255 87.4691 10.28 87.718 10.5623Z"
            fill="#2F2F2F" />
    </g>
    <path fill-rule="evenodd" clip-rule="evenodd"
        d="M41.6831 29.2006V20.4707H39.2425V29.0902C39.2425 30.5523 38.4707 31.391 37.1259 31.391C36.2656 31.391 35.8513 31.072 35.453 30.6783L33.8438 32.2706C34.7714 33.1827 35.7271 33.5553 37.1259 33.5553C39.3209 33.5553 41.6831 32.1927 41.6831 29.2006Z"
        fill="#2F2F2F" />
    <path fill-rule="evenodd" clip-rule="evenodd"
        d="M52.5518 24.0966L54.2303 29.0929H50.8157L52.5518 24.0966ZM54.8719 31.1289L54.8848 31.1687L55.6438 33.4453H58.1862L53.4483 20.4707H51.5256L46.8057 33.4453H49.3476L50.1382 31.1289H54.8719Z"
        fill="#2F2F2F" />
    <path fill-rule="evenodd" clip-rule="evenodd"
        d="M70.0413 30.4505C69.5729 31.017 68.9514 31.2806 68.0847 31.2806H66.0974V22.6359H68.0847C68.9514 22.6359 69.5729 22.899 70.0413 23.4655V23.4659C70.524 24.0595 70.6051 24.8451 70.6051 26.903C70.6051 28.9146 70.5272 29.8529 70.0413 30.4505ZM73.0485 27.3948C73.0471 27.2316 73.0462 27.0671 73.0462 26.903C73.0462 26.7375 73.0471 26.5739 73.0485 26.4112C73.059 24.6746 73.0691 23.0342 71.739 21.7041C70.9323 20.897 69.7512 20.4707 68.324 20.4707H63.6562V33.4453H68.324C69.7512 33.4453 70.9323 33.0191 71.739 32.2115C73.0696 30.8809 73.0595 29.1878 73.0485 27.3948Z"
        fill="#2F2F2F" />
    <path fill-rule="evenodd" clip-rule="evenodd"
        d="M87.9916 22.6359V20.4707H79.4844V33.4453H87.9916V31.2806H81.9255V27.9851H87.0905V25.8209H81.9255V22.6359H87.9916Z"
        fill="#2F2F2F" />
    <mask id="mask1_1169_8257" style="mask-type:luminance" maskUnits="userSpaceOnUse" x="0" y="21" width="14"
        height="14">
        <path d="M0 21.6416H13.0065V34.613H0V21.6416Z" fill="#2F2F2F" />
    </mask>
    <g mask="url(#mask1_1169_8257)">
        <path fill-rule="evenodd" clip-rule="evenodd"
            d="M13.0067 26.032L11.0743 24.162L10.7668 23.8636L9.95645 23.0304L8.60482 21.6416H0L13.0067 34.613V26.032Z"
            fill="#2F2F2F" />
    </g>
    <path fill-rule="evenodd" clip-rule="evenodd"
        d="M14.6221 34.6824L27.6246 21.6445H19.0436L17.1732 23.5773L16.8748 23.8849L16.0415 24.6957L14.6221 26.0766V34.6824Z"
        fill="#585858" />
    <path fill-rule="evenodd" clip-rule="evenodd"
        d="M14.6221 7.00586V15.5878L16.5792 17.4807L16.8863 17.7791L17.6971 18.6128L19.0748 20.029H27.6801L14.6221 7.00586Z"
        fill="#7D7D7D" />
    <path fill-rule="evenodd" clip-rule="evenodd"
        d="M12.9944 7L0.000976562 20.0282H8.58333L10.4799 18.0679L10.7783 17.7608L11.612 16.9496L12.9944 15.6044V7Z"
        fill="#EDEDED" />
</svg>