<svg fill="none" height="42" viewBox="0 0 175 42" width="175" xmlns="http://www.w3.org/2000/svg">
    <path
        d="m82.9767 34.985v2.0145h14.0233v-9.0858h-2.0434v7.0713zm0-29.985v2.01461h11.9799v7.07169h2.0434v-9.0863zm-7.2317 15.5853v-4.6813h3.2054c1.5629 0 2.1237.5134 2.1237 1.9161v.8295c0 1.4418-.5411 1.9357-2.1237 1.9357zm5.0882.8294c1.4623-.3753 2.4838-1.7186 2.4838-3.3183 0-1.0073-.4004-1.9161-1.1615-2.6471-.9617-.9088-2.2442-1.363-3.9067-1.363h-4.5073v13.8269h2.0035v-5.5108h3.0051c1.5423 0 2.1635.6321 2.1635 2.2126v3.2987h2.0434v-2.9827c0-2.1729-.5208-3.0023-2.1238-3.2394zm-16.8675.4542h6.1703v-1.8171h-6.1703v-4.1483h6.7713v-1.8172h-8.8149v13.8269h9.1153v-1.8171h-7.0717zm-6.7114.731v.948c0 1.995-.7414 2.6471-2.6042 2.6471h-.4407c-1.8633 0-2.7647-.5928-2.7647-3.3384v-3.7137c0-2.7652.9417-3.3384 2.8045-3.3384h.4004c1.8232 0 2.4041.6717 2.4239 2.5286h2.2038c-.2003-2.726-2.0433-4.4442-4.808-4.4442-1.342 0-2.464.4149-3.3053 1.2047-1.2621 1.1656-1.9632 3.141-1.9632 5.9062 0 2.6667.6012 4.6421 1.843 5.8664.8413.8099 2.0033 1.2444 3.1453 1.2444 1.2018 0 2.304-.4742 2.8646-1.5011h.2802v1.3037h1.843v-7.1305h-5.429v1.8172zm-17.6688-6.6964h2.1838c2.0636 0 3.1856.5134 3.1856 3.2791v3.6343c0 2.7652-1.122 3.2792-3.1856 3.2792h-2.1838zm2.3638 12.0102c3.8266 0 5.2485-2.8641 5.2485-6.9134 0-4.1086-1.5223-6.9135-5.2888-6.9135h-4.3273v13.8269zm-14.043-6.0448h6.1703v-1.8171h-6.1703v-4.1483h6.771v-1.8172h-8.8149v13.8269h9.1156v-1.8171h-7.0717zm-11.8196-7.7826h-2.0432v13.8269h9.2153v-1.8171h-7.1721zm-16.0867 13.8274v9.0863h14.0231v-2.015h-11.9799v-7.0713zm0-22.9137v9.0863h2.0432v-7.07169h11.9799v-2.01461z"
        fill="#000" />
</svg>