<svg fill="none" height="126" viewBox="0 0 126 126" width="126" xmlns="http://www.w3.org/2000/svg">
    <path
        d="m1 50.8689v-9.7592c0-1.2847 1.29886-2.2648 1.94828-2.5943l30.71352-19.0243c1.2835-.8894 2.5976-.3706 3.0942 0l86.296 52.7492c1.833 1.186 1.948 1.9765 1.948 2.2237v10.3769c0 .7906-.344 1.2352-.917 1.6058l-32.0885 19.8893c-1.7191.988-2.9033.7-3.6673.247l-86.41038-53.861c-.80222-.4943-.916859-1.359-.91682-1.8531z"
        fill="#bcbcbc" stroke="#000" stroke-linecap="round" stroke-linejoin="round" />
    <path
        d="m125 74.444c0 .4432-.216.8501-.573 1.0712-3.493 2.1618-22.648 13.9928-32.0747 19.8162-1.7353.9949-2.9306.7048-3.7018.2487l-87.22448-54.23c-.42084-.2587-.547062-.845-.3013-1.2943.4189-.7658 1.20891-1.3275 1.67081-1.5613l30.75207-19.0039c1.2851-.8885 2.6009-.3702 3.0981 0l86.4033 52.7322c1.836 1.1846 1.951 1.9743 1.951 2.2212z"
        fill="#d5d5d5" stroke="#000" stroke-linecap="round" stroke-linejoin="round" />
    <path d="m125 78.869c-3.589 2.2564-22.682 15.3553-32.3681 21.433-1.7831 1.039-3.0113.736-3.8037.26l-87.8282-56.562"
        stroke="#000" stroke-width=".5" />
    <path
        d="m4.31553 38.6497 29.18447-18.1582c1.2755-.8906 2.5813-.3711 3.0748 0l86.1692 52.257c.35.2279.338.7701-.016.9908-3.875 2.4188-21.73 13.5811-29.788 18.6012-1.6972.9814-2.8663.6952-3.6205.2454l-84.69428-52.7688c-.09452-.0589-.19268-.1122-.28325-.177-.23441-.1677-.62183-.5541-.02644-.9904z"
        fill="#f0f0f0" />
    <path
        d="m57.7416 71.6736-44.2488-27.4323c-2.0249-1.4865-.8644-2.9636-.031-3.5163l24.6576-14.9338c2.1829-1.3283 4.3369-.7556 5.141-.3033l44.4505 26.8703c2.6675 1.7814 1.7431 3.2476.9475 3.7581l-26.0022 15.5074c-1.6317 1.6241-3.9563.71-4.9146.0499z"
        fill="#000" />
    <path
        d="m58.0236 71.2624-.0099-.0068-.0102-.0064-44.2318-27.4217c-.0318-.0236-.0626-.047-.0924-.0704l24.8985-15.0523c.0006-.0003.0011-.0006.0016-.0009 1.9702-1.1704 3.9044-.6624 4.5907-.2897l43.3885 26.0674c.8842.578 1.2769 1.0737 1.4325 1.4476l-25.5925 15.2659-.053.0317-.0438.0435c-.6807.6776-1.5029.834-2.2974.7392-.809-.0966-1.5542-.4533-1.9808-.7471z"
        fill="#bcbcbc" stroke="#000" />
    <g fill="#d9d9d9">
        <path clip-rule="evenodd"
            d="m42.2126 39.0163c.3828.0311.7335-.1705.7834-.4503s-.22-.5318-.6027-.5628c-.3828-.0311-.7335.1705-.7834.4503-.0499.2797.2199.5317.6027.5628zm-.8178.7501c-.0499.2797-.4006.4813-.7834.4503-.3827-.0311-.6526-.2831-.6027-.5628.0499-.2798.4006-.4814.7834-.4504.3827.0311.6526.2831.6027.5629zm-1.7865 1.0887c-.0499.2798-.4006.4814-.7834.4503-.3827-.0311-.6526-.2831-.6027-.5628.0499-.2798.4006-.4814.7834-.4503.3827.031.6526.283.6027.5628zm-2.6976 1.7674c-.0499.2798-.4006.4814-.7834.4503-.3827-.0311-.6526-.2831-.6027-.5628.0499-.2798.4006-.4814.7834-.4503.3827.031.6526.283.6027.5628zm-2.5882 1.4893c.3828.031.7335-.1706.7834-.4504.0499-.2797-.22-.5317-.6027-.5628-.3828-.031-.7335.1706-.7834.4503-.0499.2798.22.5318.6027.5629zm-1.7148 1.125c.3827.031.7335-.1706.7834-.4504.0498-.2797-.22-.5317-.6028-.5628-.3827-.031-.7334.1706-.7833.4503-.0499.2798.2199.5318.6027.5629z"
            fill-rule="evenodd" />
        <path
            d="m62.8977 64.6903c-.148.8298-1.1882 1.4278-2.3235 1.3356-1.1352-.0921-1.9356-.8395-1.7876-1.6693s1.1882-1.4277 2.3235-1.3356c1.1352.0922 1.9356.8395 1.7876 1.6693z" />
        <path
            d="m55.4368 60.8134c-.148.8298-1.1883 1.4277-2.3235 1.3356-1.1353-.0922-1.9356-.8396-1.7877-1.6693.148-.8298 1.1883-1.4278 2.3235-1.3356 1.1353.0921 1.9356.8395 1.7877 1.6693z" />
        <path
            d="m49.3626 57.497c-.148.8298-1.1883 1.4277-2.3235 1.3356-1.1353-.0922-1.9356-.8396-1.7877-1.6693.148-.8298 1.1883-1.4278 2.3235-1.3356 1.1353.0921 1.9356.8395 1.7877 1.6693z" />
        <path
            d="m70.8977 59.5907c-.148.8298-1.1882 1.4278-2.3235 1.3356-1.1352-.0921-1.9356-.8395-1.7876-1.6693s1.1882-1.4277 2.3235-1.3356c1.1352.0922 1.9356.8395 1.7876 1.6693z" />
        <path
            d="m63.8977 55.8817c-.148.8298-1.1882 1.4278-2.3235 1.3356-1.1352-.0921-1.9356-.8395-1.7876-1.6693s1.1882-1.4277 2.3235-1.3356c1.1352.0922 1.9356.8396 1.7876 1.6693z" />
        <path
            d="m57.3626 52.3954c-.148.8298-1.1883 1.4278-2.3235 1.3356-1.1353-.0921-1.9356-.8395-1.7877-1.6693.148-.8298 1.1883-1.4278 2.3235-1.3356 1.1353.0921 1.9356.8395 1.7877 1.6693z" />
        <path
            d="m78.6868 55.2333c-.148.8298-1.1882 1.4278-2.3235 1.3356s-1.9356-.8395-1.7877-1.6693c.148-.8298 1.1883-1.4278 2.3235-1.3356 1.1353.0921 1.9356.8395 1.7877 1.6693z" />
        <path
            d="m71.5735 51.6532c-.148.8298-1.1882 1.4278-2.3235 1.3356-1.1352-.0921-1.9356-.8395-1.7876-1.6693.1479-.8298 1.1882-1.4277 2.3234-1.3356 1.1353.0922 1.9357.8395 1.7877 1.6693z" />
        <path
            d="m64.8977 48.0009c-.148.8298-1.1882 1.4277-2.3235 1.3356-1.1352-.0922-1.9356-.8396-1.7876-1.6693.148-.8298 1.1882-1.4278 2.3235-1.3356 1.1352.0921 1.9356.8395 1.7876 1.6693z" />
    </g>
    <ellipse cx="8.18838" cy="39.2134" fill="#fff" rx="2.29385" ry="1.6001" stroke="#000" stroke-linecap="round"
        stroke-linejoin="round" stroke-width=".5" />
    <path
        d="m8.9885 39.213c0 .272-.35944.4924-.80284.4924s-.80285-.2204-.80285-.4924c0-.2719.35945-.4923.80285-.4923s.80284.2204.80284.4923z"
        fill="#000" />
    <ellipse cx="35.9267" cy="22.5786" fill="#fff" rx="2.29385" ry="1.6001" stroke="#000" stroke-linecap="round"
        stroke-linejoin="round" stroke-width=".5" />
    <path
        d="m36.7307 22.5802c0 .2719-.3595.4924-.8029.4924s-.8028-.2205-.8028-.4924.3594-.4923.8028-.4923.8029.2204.8029.4923z"
        fill="#000" />
    <ellipse cx="117.809" cy="73.0142" fill="#fff" rx="2.29385" ry="1.6001" stroke="#000" stroke-linecap="round"
        stroke-linejoin="round" stroke-width=".5" />
    <path
        d="m118.614 73.0158c0 .2719-.36.4923-.803.4923-.444 0-.803-.2204-.803-.4923s.359-.4924.803-.4924c.443 0 .803.2205.803.4924z"
        fill="#000" />
    <ellipse cx="90.286" cy="89.7524" fill="#fff" rx="2.29385" ry="1.6001" stroke="#000" stroke-linecap="round"
        stroke-linejoin="round" stroke-width=".5" />
    <path
        d="m91.0901 89.7541c0 .2719-.3595.4923-.8029.4923s-.8028-.2204-.8028-.4923c0-.272.3594-.4924.8028-.4924s.8029.2204.8029.4924z"
        fill="#000" />
    <path d="m40 72.372v-2.372l11 6.628v2.372z" fill="#000" />
    <path d="m66 90.5v-4.5l11 6.5v4.5z" fill="#000" />
    <path
        d="m45.4062 78.663-.231.1475v.274.7098l-1.2254.771-.109-.1716-.2613-.4109-.4177.2503-1.3162.7887-.3394.2034.1199.377.0778.2449-3.5736 2.5551-8.4359-5.0784c-.3244-.1953-.3224-.6663.0036-.8589l10.349-6.1141c.7985-.4717 1.7924-.4627 2.5821.0234l5.7503 3.5393c.3141.1934.3179.6488.0069.8473z"
        fill="#d9d9d9" stroke="#000" />
    <path d="m51.6429 38-19.6429 12.3846 2.4444 1.6154 19.5556-12.8184z" fill="#d9d9d9" />
    <path d="m37.1429 33-13.1429 8.0665 2.4444 1.6153 13.0556-8.5002z" fill="#d9d9d9" />
    <path d="m57.5357 41-20.5357 12.3846 2.5556 1.6154 20.4444-12.8184z" fill="#d9d9d9" />
</svg>