<svg fill="none" height="126" viewBox="0 0 126 126" width="126" xmlns="http://www.w3.org/2000/svg"
    xmlns:xlink="http://www.w3.org/1999/xlink">
    <g stroke="#333" stroke-linecap="round" stroke-linejoin="round">
        <path
            d="m8.93902 35.4285c-6.04361 9.6268-3.06968 21.6113 6.64248 26.7681l76.8203 40.7884c9.7122 5.157 22.4842 1.533 28.5282-8.0934 6.044-9.6268 3.07-21.6112-6.642-26.768l-76.8207-40.7888c-9.7121-5.1568-22.4847-1.5331-28.52828 8.0937z"
            fill="#bcbcbc" />
        <path
            d="m9.34926 32.4774c-5.6014 8.9224-2.27728 20.3314 7.42464 25.4828l76.7394 40.7458c9.7017 5.151 22.1077 2.094 27.7087-6.8281 5.602-8.9224 2.278-20.3315-7.424-25.4828l-76.7397-40.7458c-9.7019-5.1514-22.1076-2.0943-27.70904 6.8281z"
            fill="#e9e9e9" />
        <path
            d="m81.7188 81.3916c-.6904 1.1957-.3898 2.6617.6713 3.2743l6.5496 3.7815c1.0611.6126 2.481.1399 3.1714-1.0558.6903-1.1958.3897-2.6617-.6714-3.2744l-6.5496-3.7814c-1.0611-.6126-2.481-.14-3.1713 1.0558z"
            fill="#fff" />
        <path
            d="m86.2188 73.5967c-.6904 1.1957-.3898 2.6617.6713 3.2743l6.5496 3.7814c1.0611.6127 2.481.14 3.1714-1.0557.6903-1.1958.3897-2.6618-.6714-3.2744l-6.5496-3.7814c-1.0611-.6127-2.481-.14-3.1713 1.0558z"
            fill="#fff" />
        <path
            d="m90.2188 66.6689c-.6904 1.1958-.3898 2.6617.6713 3.2744l6.5496 3.7814c1.0611.6126 2.481.14 3.1713-1.0558.69-1.1957.39-2.6617-.6713-3.2743l-6.5496-3.7815c-1.0611-.6126-2.481-.1399-3.1713 1.0558z"
            fill="#fff" />
        <path
            d="m39.3162 48.8282c2.3472-4.0654.9543-9.264-3.1112-11.6112s-9.264-.9542-11.6112 3.1112c-2.3473 4.0655-.9543 9.264 3.1112 11.6113 4.0655 2.3472 9.264.9542 11.6112-3.1113z"
            fill="#bcbcbc" />
        <path
            d="m38.0857 46.963c2.3472-4.0655.9543-9.264-3.1112-11.6112s-9.264-.9543-11.6112 3.1112-.9543 9.264 3.1112 11.6112 9.264.9543 11.6112-3.1112z"
            fill="#fff" />
    </g>
    <rect fill="#fff" height="33" rx="4" transform="matrix(.866025 .5 .5 -.866025 39.3633 66.752)" width="33" />
    <rect fill="#333" height="27" rx="3" stroke="#bcbcbc" stroke-linecap="round" stroke-linejoin="round"
        transform="matrix(.866025 .5 .5 -.866025 43.4609 65.6543)" width="27" />
    <path d="m60.1562 48.7363h15v2h-15z" fill="#bcbcbc"
        transform="matrix(.8660254 .5 -.5 .8660254 32.427553 -23.548674)" />
    <path d="m54.5586 52.4316h21v2h-21z" fill="#bcbcbc"
        transform="matrix(.8660254 .5 -.5 .8660254 33.525266 -20.254798)" />
    <path d="m52.5586 55.8965h13v2h-13z" fill="#bcbcbc"
        transform="matrix(.8660254 .5 -.5 .8660254 34.989767 -18.790589)" />
    <path d="m50.5586 59.3594h10v2h-10z" fill="#bcbcbc"
        transform="matrix(.8660254 .5 -.5 .8660254 36.453268 -17.326648)" />
    <path d="m48.5586 62.8242h17v2h-17z" fill="#bcbcbc"
        transform="matrix(.8660254 .5 -.5 .8660254 37.917719 -15.862453)" />
</svg>