<svg width="190" height="42" viewBox="0 0 190 42" fill="none" xmlns="http://www.w3.org/2000/svg">
    <path fill-rule="evenodd" clip-rule="evenodd"
        d="M46 10H13C6.92487 10 2 14.9249 2 21C2 27.0751 6.92487 32 13 32H46V10ZM46 8H13C5.8203 8 0 13.8203 0 21C0 28.1797 5.8203 34 13 34H46H93C100.18 34 106 28.1797 106 21C106 13.8203 100.18 8 93 8H46ZM12.3083 25.9058C11.0977 25.8644 9.88032 25.0638 9.14862 24.2133C8.95367 23.9867 9.01237 23.6658 9.26293 23.4892L9.77705 23.1267C9.94181 23.0105 10.1461 22.985 10.335 23.0298C10.6788 23.1114 10.9191 23.3279 11.1671 23.5516L11.1671 23.5516C11.4532 23.8095 11.7497 24.0768 12.2275 24.1569C13.0657 24.2975 13.9332 24.0476 14.0656 23.335C14.0656 22.4443 12.9128 22.2046 11.8995 21.9939C11.5341 21.918 11.1869 21.8458 10.9183 21.7482C10.0387 21.4167 9.19153 20.9752 9.03237 20C8.74023 18.21 10.4805 17.1035 12.0324 17.0093C13.046 16.9478 14.1308 17.1916 14.9282 17.7113C15.0678 17.7981 15.2282 17.9596 15.3664 18.1167C15.5662 18.3439 15.5001 18.6689 15.2423 18.8422C15.1876 18.879 15.1109 18.9396 15.0208 19.0106L15.0208 19.0107L15.0208 19.0107C14.9065 19.1009 14.7707 19.2081 14.6314 19.3049C14.1365 19.6488 13.9828 19.5339 13.7199 19.3374C13.6162 19.2598 13.4955 19.1696 13.3302 19.0899C12.7364 18.8033 11.6885 18.8431 11.4666 19.3049C11.1928 19.8748 12.0658 20.1792 13.0325 20.4082C14.186 20.6739 15.6615 21.1999 15.975 22.3577C16.1692 23.3848 15.8575 24.4478 15.2423 25.066C14.5515 25.7603 13.4779 25.9458 12.3083 25.9058ZM41 21.4291C41 22.3538 40.8166 23.1629 40.4499 23.8564C40.0832 24.5499 39.5645 25.0806 38.8939 25.4483C38.2338 25.8161 37.4794 26 36.6307 26H33.5761C33.2579 26 33 25.751 33 25.4439V17.5561C33 17.249 33.2579 17 33.5761 17H36.2377C37.7466 17 38.9149 17.3835 39.7426 18.1506C40.5809 18.9072 41 20 41 21.4291ZM39.0982 21.4291C39.0982 20.4623 38.8468 19.7767 38.3438 19.2723C37.8513 18.7574 37.1388 18.5 36.2063 18.5H34.8703V24.5H36.4578C37.2646 24.5 37.9037 24.2215 38.3752 23.6646C38.8572 23.0972 39.0982 22.3853 39.0982 21.4291ZM17.4 26C17.1791 26 17 25.8209 17 25.6V17.4C17 17.1791 17.1791 17 17.4 17H23.1502C23.4769 17 23.7418 17.2802 23.7418 17.6258V18.0061C23.7418 18.3517 23.4769 18.6318 23.1502 18.6318H18.9204V20.732H21.831C22.1577 20.732 22.4225 21.0121 22.4225 21.3577V21.738C22.4225 22.0836 22.1577 22.3638 21.831 22.3638H18.9204V24.3682H23.4085C23.7352 24.3682 24 24.6483 24 24.9939V25.3742C24 25.7198 23.7352 26 23.4085 26H17.4ZM25.4 26C25.1791 26 25 25.8209 25 25.6V17.4C25 17.1791 25.1791 17 25.4 17H31.1502C31.477 17 31.7418 17.2802 31.7418 17.6258V18.0061C31.7418 18.3517 31.477 18.6318 31.1502 18.6318H26.9204V20.732H29.831C30.1577 20.732 30.4225 21.0121 30.4225 21.3577V21.738C30.4225 22.0836 30.1577 22.3638 29.831 22.3638H26.9204V24.3682H31.4085C31.7352 24.3682 32 24.6483 32 24.9939V25.3742C32 25.7198 31.7352 26 31.4085 26H25.4ZM83 25.6C83 25.8209 83.1791 26 83.4 26H89.4084C89.7352 26 90 25.7198 90 25.3742V24.9939C90 24.6483 89.7352 24.3682 89.4084 24.3682H84.9204V22.3638H87.831C88.1577 22.3638 88.4225 22.0836 88.4225 21.738V21.3577C88.4225 21.0121 88.1577 20.732 87.831 20.732H84.9204V18.6318H89.1502C89.477 18.6318 89.7418 18.3517 89.7418 18.0061V17.6258C89.7418 17.2802 89.477 17 89.1502 17H83.4C83.1791 17 83 17.1791 83 17.4V25.6ZM54.277 25.9058C53.0664 25.8644 51.8491 25.0638 51.1174 24.2133C50.9224 23.9867 50.9811 23.6658 51.2317 23.4892L51.7458 23.1267C51.9106 23.0105 52.1148 22.985 52.3037 23.0298C52.6476 23.1114 52.8878 23.3279 53.1359 23.5516C53.422 23.8095 53.7184 24.0768 54.1963 24.1569C55.0344 24.2975 55.902 24.0476 56.0344 23.335C56.0344 22.4443 54.8815 22.2046 53.8682 21.9939L53.8682 21.9939L53.8681 21.9939C53.5028 21.9179 53.1556 21.8457 52.8871 21.7482C52.0075 21.4167 51.1603 20.9752 51.0011 20C50.709 18.21 52.4492 17.1035 54.0011 17.0093C55.0147 16.9478 56.0995 17.1916 56.8969 17.7113C57.0366 17.7981 57.1969 17.9596 57.3352 18.1167C57.535 18.3439 57.4689 18.6689 57.2111 18.8422C57.1563 18.879 57.0796 18.9395 56.9897 19.0106L56.9896 19.0106L56.9896 19.0106L56.9896 19.0107L56.9896 19.0107L56.9895 19.0107C56.8752 19.101 56.7395 19.2081 56.6002 19.3049C56.1053 19.6488 55.9515 19.5339 55.6886 19.3374C55.5849 19.2598 55.4642 19.1696 55.299 19.0899C54.7051 18.8033 53.6572 18.8431 53.4354 19.3049C53.1616 19.8748 54.0345 20.1792 55.0012 20.4082C56.1548 20.6739 57.6303 21.1999 57.9438 22.3577C58.138 23.3848 57.8263 24.4478 57.2111 25.066C56.5203 25.7603 55.4467 25.9458 54.277 25.9058ZM61 17C60.6654 17 60 17.1846 60 17.4274V25.5741C60 25.817 60.6654 26 61 26C61.3346 26 62 25.817 62 25.5741V17.4274C62 17.1846 61.3346 17 61 17ZM68.3858 18.8C66.9781 18.8 65.7942 19.9848 65.7942 21.5C65.7942 23.0152 66.8793 24.2 68.287 24.2C68.9924 24.2 69.6352 23.9595 70.107 23.4745V22.3H68.687C68.4661 22.3 68.287 22.1209 68.287 21.9V20.9C68.287 20.6791 68.4661 20.5 68.687 20.5H71.5012C71.7221 20.5 71.9012 20.6791 71.9012 20.9V23.5C71.9012 23.8866 71.7773 24.3185 71.4581 24.6612C70.6637 25.5142 69.5382 26 68.287 26C65.8411 26 64 23.9612 64 21.5C64 19.0388 65.9399 17 68.3858 17C69.689 17 70.8537 17.5832 71.6524 18.4972C71.7975 18.6632 71.7573 18.9142 71.5795 19.0445L70.776 19.6333C70.5974 19.7642 70.3484 19.7225 70.193 19.5648C69.7226 19.0876 69.0839 18.8 68.3858 18.8ZM74.56 17C74.2507 17 74 17.2545 74 17.5684V25.293C74 25.8162 74.4179 26 74.9333 26C75.4488 26 75.8667 25.8162 75.8667 25.293V20.524L78.9699 25.7259C79.0714 25.896 79.253 25.9999 79.4489 25.9999H80.44C80.7493 25.9999 81 25.7454 81 25.4315V17.695C81 17.1718 80.5821 17.0001 80.0667 17.0001C79.5512 17.0001 79.1333 17.1718 79.1333 17.695V22.0025L76.0328 17.2544C75.929 17.0955 75.7538 17 75.566 17H74.56ZM91.5818 17C91.2605 17 91 17.2545 91 17.5684V25.293C91 25.8162 91.4341 26 91.9696 26C92.5052 26 92.9393 25.8162 92.9393 25.293V23.1578H94.6362C94.7844 23.1578 94.9302 23.1478 95.073 23.1285L96.1497 25.5887C96.3581 26.0707 96.8312 26.075 97.3245 25.8714C97.8178 25.6677 98.1445 25.3333 97.9361 24.8514L96.8205 22.2982C97.4166 21.738 97.7875 20.9508 97.7875 20.0789C97.7875 18.3785 96.3766 17 94.6362 17H91.5818ZM92.9393 18.8947V21.2631H94.6362C95.3056 21.2631 95.8482 20.7329 95.8482 20.0789C95.8482 19.4249 95.3056 18.8947 94.6362 18.8947H92.9393Z"
        fill="#000" />
</svg>