<svg fill="none" height="126" viewBox="0 0 126 126" width="126" xmlns="http://www.w3.org/2000/svg"
    xmlns:xlink="http://www.w3.org/1999/xlink">
    <path
        d="m19.5273 52.373c-1.4329-.8272-1.7736-2.9196-.7611-4.6733l9.3333-16.1658c1.0125-1.7538 2.9949-2.5048 4.4278-1.6775z"
        fill="#bcbcbc" stroke="#000" stroke-linecap="round" stroke-linejoin="round" />
    <path
        d="m18.4336 48.2773-7.7942-4.5c-.95662-.5522-1.28437-1.7754-.73209-2.732l7.99999-13.8564c.5523-.9566 1.7755-1.2843 2.7321-.7321l7.7942 4.5z"
        fill="#e9e9e9" stroke="#000" stroke-linecap="round" stroke-linejoin="round" />
    <rect fill="#e9e9e9" height="54" rx="11" stroke="#000" stroke-linecap="round" stroke-linejoin="round"
        transform="matrix(-.8660254 -.5 .5 -.8660254 129.10254 264.592921)" width="101.03" x="100" y="115" />
    <g fill="#252525">
        <path
            d="m44.7697 58.6631 5.6862-9.8488 3.9265 2.2669c.7609.4393 1.3243.9185 1.6901 1.4375.3677.5157.5625 1.0407.5845 1.5749.0238.531-.1049 1.0402-.3863 1.5275-.2369.4104-.5188.7093-.8458.8967-.325.1842-.6745.2817-1.0483.2924-.3685.0095-.739-.0419-1.1115-.1544l-.0555.0962c.3467.2216.6329.5279.8585.9189.231.3898.3555.8272.3734 1.312s-.1203.9821-.4146 1.4919c-.2906.5033-.6807.8808-1.1704 1.1325-.4843.2504-1.061.3385-1.7301.2642-.6673-.0775-1.4163-.356-2.247-.8356zm2.3535-.3404 2.3349 1.3481c.7749.4474 1.4094.6299 1.9037.5477.4942-.0823.8607-.3302 1.0995-.7438.1795-.311.2588-.6457.2377-1.0041s-.146-.7063-.3748-1.0436c-.2253-.3352-.5543-.6278-.9871-.8776l-2.3926-1.3814zm2.4905-4.3136 2.1674 1.2513c.363.2096.7264.3339 1.0901.3729.3672.041.703-.0045 1.0073-.1366.3096-.1333.556-.3586.7393-.676.2351-.4072.2769-.8383.1254-1.2934-.1514-.455-.5482-.8679-1.1904-1.2387l-2.2094-1.2756z" />
        <path
            d="m54.2312 64.1258 4.2647-7.3867 1.5654.9038-4.2647 7.3866zm5.7132-8.07c-.2722-.1572-.4579-.3756-.5571-.6551-.0939-.2808-.0732-.5382.0619-.7722.137-.2373.3496-.3838.6378-.4397.2935-.0571.5764-.007.8487.1502.2722.1571.4552.3761.5491.6568.0992.2796.0803.538-.0567.7752-.1351.2341-.3494.3796-.643.4367-.2882.0559-.5684.0053-.8407-.1519z" />
        <path
            d="m65.862 60.9919-.6664 1.1542-4.3925-2.536.6664-1.1542zm-2.1928-3.6256 1.5654.9038-4.0343 6.9875c-.161.2789-.2369.5151-.2276.7085.0112.1903.0735.3524.187.4863.1188.1327.2637.2484.4347.3472.1257.0725.2403.128.3438.1664.1035.0383.1842.0678.2421.0884l-.4031 1.3511c-.1093-.0203-.2569-.0628-.443-.1275-.1879-.0615-.4084-.1631-.6615-.305-.4156-.2314-.7606-.5204-1.0352-.867s-.4366-.7308-.4862-1.1527.0542-.8557.3115-1.3013z" />
        <path
            d="m63.5683 69.5165 5.6863-9.8488 3.9265 2.2669c.7608.4393 1.3242.9185 1.69 1.4375.3677.5157.5625 1.0407.5845 1.5749.0239.531-.1049 1.0402-.3862 1.5275-.237.4104-.5189.7093-.8458.8967-.3251.1842-.6746.2817-1.0484.2924-.3685.0095-.739-.0419-1.1115-.1544l-.0555.0962c.3467.2216.6329.5279.8586.9189.231.3898.3554.8272.3733 1.312s-.1203.9821-.4146 1.4919c-.2906.5033-.6807.8808-1.1704 1.1325-.4843.2504-1.061.3385-1.7301.2642-.6673-.0775-1.4163-.356-2.2469-.8356zm2.3535-.3404 2.335 1.3481c.7748.4474 1.4093.6299 1.9036.5477.4942-.0823.8607-.3302 1.0995-.7438.1796-.311.2588-.6457.2377-1.0041s-.146-.7063-.3748-1.0436c-.2252-.3352-.5543-.6278-.9871-.8776l-2.3925-1.3814zm2.4905-4.3136 2.1674 1.2513c.363.2096.7264.3339 1.0901.3729.3672.041.703-.0045 1.0073-.1366.3096-.1333.5561-.3586.7393-.676.2351-.4072.2769-.8383.1255-1.2934-.1515-.455-.5483-.8679-1.1905-1.2387l-2.2093-1.2756z" />
        <path
            d="m76.331 77.0839c-.7539-.4353-1.3201-.9738-1.6988-1.6156-.3787-.6419-.5586-1.3378-.5398-2.0878.0189-.75.2486-1.5065.6891-2.2696.4424-.7662.9846-1.3466 1.6265-1.7411.642-.3946 1.3355-.5883 2.0807-.5813.7452.0071 1.4947.2282 2.2486.6635.7539.4352 1.3202.9738 1.6989 1.6156s.5577 1.3393.537 2.0926c-.0207.7532-.2523 1.5129-.6947 2.2791-.4405.7631-.9808 1.3403-1.6209 1.7316s-1.3328.5835-2.078.5764c-.7451-.007-1.4947-.2282-2.2486-.6634zm.7022-1.2041c.4886.2822.962.3973 1.42.3454.4581-.0518.8778-.2306 1.259-.5363.3847-.3036.7141-.6927.988-1.1672.2721-.4713.4435-.9494.5141-1.4345.0759-.4862.0228-.9422-.1595-1.368-.1823-.4259-.5177-.7798-1.0064-1.062-.4921-.2841-.9699-.3996-1.4333-.3466-.4599.0551-.8832.236-1.2697.5429-.3813.3057-.708.6942-.98 1.1655-.274.4744-.448.9532-.5221 1.4362-.0706.485-.0139.9388.1703 1.3615.1876.4246.5274.779 1.0196 1.0631z" />
        <path
            d="m87.0374 73.2176.1145 3.9004 3.4508-1.842 1.712.9884-4.6401 2.2455.3963 5.1532-1.7119-.9884-.2178-3.8062-3.3999 1.7176-1.7172-.9914 4.6349-2.2485-.3388-5.12z" />
    </g>
</svg>