<svg width="60" height="60" viewBox="0 0 60 60" fill="none" xmlns="http://www.w3.org/2000/svg">
<circle cx="30" cy="30" r="30" fill="black"/>
<path fill-rule="evenodd" clip-rule="evenodd" d="M36.4064 44.9885C34.0917 44.8968 31.9203 44.2854 30.0002 43.2709C27.9105 44.3756 25.5283 45.0011 23 45.0011C14.7157 45.0011 8 38.2854 8 30.0011C8 21.7169 14.7157 15.0011 23 15.0011C25.528 15.0011 27.91 15.6265 29.9996 16.731C32.2593 15.5362 34.855 14.9036 37.5931 15.012C45.8709 15.3397 52.3157 22.3158 51.988 30.5936C51.6603 38.8714 44.6842 45.3162 36.4064 44.9885ZM48.4907 30.4551C48.2395 36.8014 42.8911 41.7425 36.5448 41.4912C30.4889 41.2515 25.7061 35.9618 25.5 30.0012H30L36.5 37.0012L43 30.0012H30L22.5 23.0012L15 30.0012H25.5L22.0001 30.0649C22.0001 34.5012 23.8989 38.2529 26.6904 40.8962C25.532 41.2885 24.2908 41.5011 23 41.5011C16.6487 41.5011 11.5 36.3524 11.5 30.0011C11.5 23.6499 16.6487 18.5011 23 18.5011C29.3513 18.5011 34.5 23.6499 34.5 30.0011H38C38 25.7098 36.1979 21.8393 33.3092 19.1052C34.6063 18.6655 36.0044 18.4518 37.4546 18.5092C43.8009 18.7605 48.742 24.1088 48.4907 30.4551Z" fill="url(#paint0_linear)"/>
<defs>
<linearGradient id="paint0_linear" x1="13.5" y1="20.5" x2="43.5" y2="34" gradientUnits="userSpaceOnUse">
<stop stop-color="#F4AF83"/>
<stop offset="1" stop-color="#EF83B7"/>
</linearGradient>
</defs>
</svg>
