<svg width="92" height="92" viewBox="0 0 92 92" fill="none" xmlns="http://www.w3.org/2000/svg">
<rect width="92" height="92" rx="46" fill="#C2E2FF"/>
<path d="M20.1942 35.4856C19.1432 32.8581 21.0783 30 23.9081 30H45.2919C46.9275 30 48.3983 30.9958 49.0058 32.5144L55.8058 49.5144C56.8568 52.1419 54.9217 55 52.0919 55H30.7081C29.0725 55 27.6017 54.0042 26.9942 52.4856L20.1942 35.4856Z" fill="#1F2585"/>
<path opacity="0.7" d="M33.1942 43.4856C32.1432 40.8581 34.0783 38 36.9081 38H58.2919C59.9275 38 61.3983 38.9958 62.0058 40.5144L68.8058 57.5144C69.8568 60.1419 67.9217 63 65.0919 63H43.7081C42.0725 63 40.6017 62.0042 39.9942 60.4856L33.1942 43.4856Z" fill="#1188BF"/>
</svg>
