<svg width="76" height="76" viewBox="0 0 76 76" fill="none" xmlns="http://www.w3.org/2000/svg">
<g filter="url(#filter0_d)">
<circle cx="38" cy="38" r="30" fill="black"/>
<path fill-rule="evenodd" clip-rule="evenodd" d="M49 38H57C57 27.5066 48.4934 19 38 19C27.5066 19 19 27.5066 19 38H27C27 31.9249 31.9249 27 38 27C44.0751 27 49 31.9249 49 38Z" fill="white"/>
<path fill-rule="evenodd" clip-rule="evenodd" d="M49 38H57C57 48.4934 48.4934 57 38 57C27.5066 57 19 48.4934 19 38H27C27 44.0751 31.9249 49 38 49C44.0751 49 49 44.0751 49 38Z" fill="url(#paint0_linear)"/>
</g>
<defs>
<filter id="filter0_d" x="0" y="0" width="76" height="76" filterUnits="userSpaceOnUse" color-interpolation-filters="sRGB">
<feFlood flood-opacity="0" result="BackgroundImageFix"/>
<feColorMatrix in="SourceAlpha" type="matrix" values="0 0 0 0 0 0 0 0 0 0 0 0 0 0 0 0 0 0 127 0" result="hardAlpha"/>
<feOffset/>
<feGaussianBlur stdDeviation="4"/>
<feComposite in2="hardAlpha" operator="out"/>
<feColorMatrix type="matrix" values="0 0 0 0 0 0 0 0 0 0 0 0 0 0 0 0 0 0 0.08 0"/>
<feBlend mode="normal" in2="BackgroundImageFix" result="effect1_dropShadow"/>
<feBlend mode="normal" in="SourceGraphic" in2="effect1_dropShadow" result="shape"/>
</filter>
<linearGradient id="paint0_linear" x1="38" y1="57" x2="38" y2="38" gradientUnits="userSpaceOnUse">
<stop offset="0.00794679" stop-color="white"/>
<stop offset="0.338617" stop-color="#C6C6C6"/>
<stop offset="0.604767" stop-color="#525252"/>
<stop offset="0.854786" stop-color="#070707"/>
</linearGradient>
</defs>
</svg>
