<svg width="618" height="474" viewBox="0 0 618 474" fill="none" xmlns="http://www.w3.org/2000/svg">
<path fill-rule="evenodd" clip-rule="evenodd" d="M609.171 0C613.955 0 617.851 3.80544 617.996 8.55473L618 8.82975V465.168C618 466.479 617.708 467.774 617.146 468.958C615.094 473.276 609.992 475.162 605.642 473.262L605.382 473.143L492.184 419.349C486.909 416.842 483.508 411.582 483.369 405.764L483.364 405.392V60.8296C483.364 54.663 487.029 49.0994 492.664 46.6546L492.998 46.5144L605.848 0.64962C606.903 0.220598 608.032 0 609.171 0ZM8.82857 0C9.96801 0 11.0967 0.220598 12.1523 0.64962L125.002 46.5144C130.826 48.8815 134.636 54.5421 134.636 60.8296V405.392C134.636 411.357 131.203 416.789 125.816 419.349L12.6176 473.143C8.21355 475.236 2.94701 473.362 0.85441 468.958C0.291866 467.774 0 466.479 0 465.168V8.82975C0 3.95321 3.95269 0 8.82857 0ZM318.932 99.6767L423.312 159.948C429.458 163.497 433.244 170.056 433.244 177.154V297.697C433.244 304.794 429.458 311.353 423.312 314.902L318.932 375.173C312.786 378.722 305.214 378.722 299.068 375.173L194.688 314.902C188.542 311.353 184.756 304.794 184.756 297.697V177.154C184.756 170.056 188.542 163.497 194.688 159.948L299.068 99.6767C305.214 96.1278 312.786 96.1278 318.932 99.6767Z" fill="white"/>
</svg>
