<svg width="81" height="80" viewBox="0 0 81 80" fill="none" xmlns="http://www.w3.org/2000/svg">
    <path fill-rule="evenodd" clip-rule="evenodd"
        d="M13.571 24C10.9794 28.5763 9.5 33.8654 9.5 39.5C9.5 45.1346 10.9794 50.4237 13.571 55H68.429C71.0206 50.4237 72.5 45.1346 72.5 39.5C72.5 33.8654 71.0206 28.5763 68.429 24H13.571Z"
        fill="#D9D9D9" />
    <path
        d="M41 70.5C23.8792 70.5 10 56.6208 10 39.5C10 22.3792 23.8792 8.5 41 8.5C58.1208 8.5 72 22.3792 72 39.5C72 56.6208 58.1208 70.5 41 70.5Z"
        stroke="#000" />
    <path
        d="M55.3633 47.0419V47.5419H55.8633H65.5012H66.0012V47.0419V44.5081V44.0081H65.5012H59.3786V41.5373H64.9789H65.4789V41.0373V38.5034V38.0034H64.9789H59.3786V35.5397H65.4733H65.9733V35.0397V32.5059V32.0059H65.4733H55.8633H55.3633V32.5059V47.0419Z"
        fill="white" stroke="black" />
    <path
        d="M42.3162 47.0419V47.5419H42.8162H52.454H52.954V47.0419V44.5081V44.0081H52.454H46.3315V41.5373H51.9318H52.4318V41.0373V38.5034V38.0034H51.9318H46.3315V35.5397H52.4262H52.9262V35.0397V32.5059V32.0059H52.4262H42.8162H42.3162V32.5059V47.0419Z"
        fill="white" stroke="black" />
    <path
        d="M28.4023 47.0419V47.5419H28.9023H31.9177H32.4177V47.0419V42.389H33.8163L36.3773 47.2741L36.5177 47.5419H36.8202H40.1488H40.984L40.5896 46.8058L37.8056 41.6103C38.5032 41.2132 39.058 40.6764 39.4581 40L39.4588 39.9987C39.9206 39.2125 40.1405 38.291 40.1405 37.2542C40.1405 36.223 39.9233 35.3002 39.4702 34.5031C39.0202 33.6987 38.363 33.08 37.5143 32.6497C36.6665 32.2128 35.6651 32.0059 34.5291 32.0059H28.9023H28.4023V32.5059V47.0419ZM33.965 38.919H32.4177V35.5184H33.9511C34.4853 35.5184 34.8886 35.5996 35.1837 35.7353L35.1836 35.7354L35.1904 35.7384C35.4882 35.87 35.686 36.0514 35.813 36.2779L35.813 36.2779L35.8156 36.2825C35.9523 36.5205 36.0346 36.8363 36.0346 37.2542C36.0346 37.6671 35.9525 37.9731 35.8188 38.1992L35.8188 38.1991L35.8161 38.2038C35.6909 38.4207 35.4972 38.5936 35.2049 38.7171C34.9049 38.8439 34.4983 38.919 33.965 38.919Z"
        fill="white" stroke="black" />
    <path
        d="M15.8828 47.0419V47.5419H16.3828H19.3981H19.8981V47.0419V41.5373H25.199H25.699V41.0373V38.5034V38.0034H25.199H19.8981V35.5397H25.8257H26.3257V35.0397V32.5059V32.0059H25.8257H16.3828H15.8828V32.5059V47.0419Z"
        fill="white" stroke="black" />
    <path d="M14.5 24H67.5" stroke="#000" stroke-linecap="round" />
    <path d="M14.5 55H67.5" stroke="#000" stroke-linecap="round" />
</svg>