<svg width="81" height="80" viewBox="0 0 81 80" fill="none" xmlns="http://www.w3.org/2000/svg">
    <path fill-rule="evenodd" clip-rule="evenodd"
        d="M17.1061 61C16.4419 59.4372 16.294 57.5714 16.8103 55.4949C18.9952 46.7077 26.0154 38.9254 34.6814 37.3865C31.5347 35.0139 29.5006 31.2445 29.5006 27C29.5006 20.0674 34.9271 14.4023 41.7643 14.0205C39.3855 10.9653 35.6726 9 31.5006 9C24.3209 9 18.5006 14.8203 18.5006 22C18.5006 26.2445 20.5347 30.0139 23.6814 32.3865C15.0154 33.9254 7.99519 41.7077 5.8103 50.4949C4.27185 56.6823 8.63087 61 14.9741 61H17.1061Z"
        fill="#D9D9D9" />
    <path
        d="M50.2099 37.4684C53.419 35.1012 55.5006 31.2937 55.5006 27C55.5006 19.8203 49.6803 14 42.5006 14C35.3209 14 29.5006 19.8203 29.5006 27C29.5006 31.2445 31.5347 35.0139 34.6814 37.3865C26.0154 38.9254 18.9952 46.7078 16.8103 55.4949C15.2718 61.6823 19.6309 66 25.9741 66H54.0556H58.4628C64.8061 66 69.7557 61.6823 68.2173 55.4949C66.7545 49.6122 62.9126 44.1798 57.9027 40.7696C55.5536 39.1706 52.9478 38.0162 50.2099 37.4684Z"
        fill="white" stroke="#000" stroke-linejoin="round" />
    <circle cx="14.5" cy="14.5" r="14" transform="matrix(-1 0 0 1 75.5 42)" fill="white" stroke="#000" />
    <path
        d="M61 49C58.76 49 56.7493 49.982 55.375 51.5391C54.2081 52.8612 53.5 54.5979 53.5 56.5C53.5 60.6421 56.8579 64 61 64C65.1421 64 68.5 60.6421 68.5 56.5C68.5 54.5791 67.7779 52.8269 66.5903 51.5L64.75 55.25"
        stroke="#000" stroke-linecap="round" stroke-linejoin="round" />
    <path d="M48.5 28C48.5 31.5686 45.8137 34 42.5 34C39.1863 34 36.5 31.5686 36.5 28" stroke="#000"
        stroke-linecap="round" stroke-linejoin="round" />
    <path
        d="M41.7483 14C39.3689 10.9565 35.6632 9 31.5006 9C24.3209 9 18.5006 14.8203 18.5006 22C18.5006 26.2445 20.5347 30.0139 23.6814 32.3865C15.0154 33.9254 7.99519 41.7077 5.8103 50.4949C4.27185 56.6823 8.63087 61 14.9741 61H17.5"
        stroke="#000" stroke-linejoin="round" />
</svg>