<svg width="81" height="80" viewBox="0 0 81 80" fill="none" xmlns="http://www.w3.org/2000/svg">
<ellipse cx="34" cy="18" rx="20.5" ry="8" stroke="#333333"/>
<path d="M54.5 18V28C54.5 32.4183 45.3218 36 34 36C22.6782 36 13.5 32.4183 13.5 28V18" stroke="#333333"/>
<path d="M54.5 27V37C54.5 41.4183 45.3218 45 34 45C22.6782 45 13.5 41.4183 13.5 37V27" stroke="#333333"/>
<path d="M54.5 37V48C54.5 52.4183 45.3218 56 34 56C22.6782 56 13.5 52.4183 13.5 48V37" stroke="#333333"/>
<path d="M54.5 45.9997V57.757C54.5 62.3094 45.3218 65.9997 34 65.9997C22.6782 65.9997 13.5 62.3094 13.5 57.757V45.9997" stroke="#333333"/>
<circle cx="14.5" cy="14.5" r="14" transform="matrix(-1 0 0 1 67.5 40)" fill="white" stroke="#333333"/>
<path fill-rule="evenodd" clip-rule="evenodd" d="M53 46C50.3306 46 48.1667 48.258 48.1667 51.0435V52.2222C47.2462 52.2222 46.5 53.0009 46.5 53.9614V60.2609C46.5 61.2214 47.2462 62 48.1667 62H57.8333C58.7538 62 59.5 61.2214 59.5 60.2609V53.9614C59.5 53.0009 58.7538 52.2222 57.8333 52.2222V51.0435C57.8333 48.258 55.6694 46 53 46ZM55.8333 52.2222V51.0435C55.8333 49.4106 54.5648 48.087 53 48.087C51.4352 48.087 50.1667 49.4106 50.1667 51.0435V52.2222H55.8333Z" fill="#D9D9D9"/>
<path d="M48.1667 52.2222V52.7222H48.6667V52.2222H48.1667ZM57.8333 52.2222H57.3333V52.7222H57.8333V52.2222ZM55.8333 52.2222V52.7222H56.3333V52.2222H55.8333ZM50.1667 52.2222H49.6667V52.7222H50.1667V52.2222ZM48.6667 51.0435C48.6667 48.5139 50.6266 46.5 53 46.5V45.5C50.0346 45.5 47.6667 48.0022 47.6667 51.0435H48.6667ZM48.6667 52.2222V51.0435H47.6667V52.2222H48.6667ZM47 53.9614C47 53.2567 47.5422 52.7222 48.1667 52.7222V51.7222C46.9502 51.7222 46 52.745 46 53.9614H47ZM47 60.2609V53.9614H46V60.2609H47ZM48.1667 61.5C47.5422 61.5 47 60.9655 47 60.2609H46C46 61.4772 46.9502 62.5 48.1667 62.5V61.5ZM57.8333 61.5H48.1667V62.5H57.8333V61.5ZM59 60.2609C59 60.9655 58.4578 61.5 57.8333 61.5V62.5C59.0498 62.5 60 61.4772 60 60.2609H59ZM59 53.9614V60.2609H60V53.9614H59ZM57.8333 52.7222C58.4578 52.7222 59 53.2567 59 53.9614H60C60 52.745 59.0498 51.7222 57.8333 51.7222V52.7222ZM57.3333 51.0435V52.2222H58.3333V51.0435H57.3333ZM53 46.5C55.3734 46.5 57.3333 48.5139 57.3333 51.0435H58.3333C58.3333 48.0022 55.9654 45.5 53 45.5V46.5ZM56.3333 52.2222V51.0435H55.3333V52.2222H56.3333ZM56.3333 51.0435C56.3333 49.1548 54.8608 47.587 53 47.587V48.587C54.2688 48.587 55.3333 49.6665 55.3333 51.0435H56.3333ZM53 47.587C51.1392 47.587 49.6667 49.1548 49.6667 51.0435H50.6667C50.6667 49.6665 51.7312 48.587 53 48.587V47.587ZM49.6667 51.0435V52.2222H50.6667V51.0435H49.6667ZM50.1667 52.7222H55.8333V51.7222H50.1667V52.7222Z" fill="#333333"/>
</svg>
