<svg width="81" height="80" viewBox="0 0 81 80" fill="none" xmlns="http://www.w3.org/2000/svg">
<path d="M55.0921 17.0352L55.0357 35.7764L40.7852 43.9623L40.8517 25.0548L55.0921 17.0352Z" fill="#D9D9D9" stroke="black" stroke-linejoin="round"/>
<path d="M40.7834 25.0546L40.716 43.962L26.1758 35.6799V17.0352L40.7834 25.0546Z" fill="white" stroke="black" stroke-linejoin="round"/>
<path d="M55.0903 16.9597L40.748 25.0636L26.1758 16.9597L40.748 9L55.0903 16.9597Z" fill="white" stroke="black" stroke-linejoin="round"/>
<path d="M40.4163 43.9961L40.3599 62.7373L26.1094 70.9233L26.1759 52.0157L40.4163 43.9961Z" fill="#D9D9D9" stroke="black" stroke-linejoin="round"/>
<path d="M26.1077 52.0155L26.0402 70.923L11.5 62.6409V43.9961L26.1077 52.0155Z" fill="white" stroke="black" stroke-linejoin="round"/>
<path d="M40.4145 43.9206L26.0722 52.0245L11.5 43.9206L26.0722 35.9609L40.4145 43.9206Z" fill="white" stroke="black" stroke-linejoin="round"/>
<path d="M69.4163 43.9961L69.3599 62.7373L55.1094 70.9233L55.1759 52.0157L69.4163 43.9961Z" fill="#D9D9D9" stroke="black" stroke-linejoin="round"/>
<path d="M55.1077 52.0155L55.0402 70.923L40.5 62.6409V43.9961L55.1077 52.0155Z" fill="white" stroke="black" stroke-linejoin="round"/>
<path d="M69.4145 43.9206L55.0722 52.0245L40.5 43.9206L55.0722 35.9609L69.4145 43.9206Z" fill="white" stroke="black" stroke-linejoin="round"/>
</svg>
