<svg width="80" height="80" viewBox="0 0 80 80" fill="none" xmlns="http://www.w3.org/2000/svg">
<circle cx="40" cy="40" r="27" stroke="#333333" stroke-width="2"/>
<path fill-rule="evenodd" clip-rule="evenodd" d="M46.2893 40.6029C49.8891 37.8846 51.3373 33.078 49.5121 28.9023C47.3631 23.9859 41.4902 21.8061 36.3945 24.0334C31.2988 26.2608 28.9101 32.0519 31.059 36.9683C32.9082 41.1986 37.5144 43.4029 42.0103 42.5167L47.911 56.0163L56.501 52.2616L54.6897 48.1177L50.3947 49.9951L49.1872 47.2325L53.4821 45.3552L51.6708 41.2113L47.3759 43.0887L46.2893 40.6029ZM44.2095 31.2201C45.1234 33.311 44.1075 35.7739 41.9404 36.7212C39.7733 37.6684 37.2756 36.7414 36.3617 34.6505C35.4477 32.5596 36.4636 30.0967 38.6308 29.1494C40.7979 28.2022 43.2956 29.1293 44.2095 31.2201Z" fill="#D9D9D9" stroke="#333333" stroke-width="2"/>
<path fill-rule="evenodd" clip-rule="evenodd" d="M34.4999 40.7504C30.7975 38.1737 29.1641 33.4267 30.8261 29.1835C32.7829 24.1875 38.567 21.7817 43.7452 23.8099C48.9233 25.8381 51.5347 31.5323 49.5779 36.5283C47.8941 40.8271 43.3767 43.2082 38.8499 42.497L33.4767 56.2151L24.7477 52.7961L26.3971 48.5851L30.7616 50.2946L31.8612 47.4874L27.4967 45.7779L29.146 41.5669L33.5105 43.2764L34.4999 40.7504ZM36.2145 31.2941C35.3823 33.4188 36.4929 35.8405 38.6951 36.703C40.8973 37.5656 43.3572 36.5424 44.1894 34.4177C45.0217 32.293 43.9111 29.8713 41.7089 29.0088C39.5067 28.1462 37.0468 29.1694 36.2145 31.2941Z" fill="#D9D9D9" stroke="#333333" stroke-width="2"/>
</svg>
