<svg width="80" height="80" viewBox="0 0 80 80" fill="none" xmlns="http://www.w3.org/2000/svg">
<circle cx="40" cy="40" r="27" fill="white" stroke="#333333" stroke-width="2"/>
<path fill-rule="evenodd" clip-rule="evenodd" d="M40.51 43.1076C44.8339 44.3928 49.5625 42.7069 51.841 38.7604C54.5238 34.1137 52.7944 28.0927 47.9782 25.3121C43.1621 22.5315 37.083 24.0442 34.4002 28.6909C32.0918 32.6892 33.0502 37.705 36.4308 40.7984L29.0643 53.5575L37.1831 58.2448L39.4443 54.3283L35.3849 51.9846L36.8924 49.3736L40.9518 51.7173L43.213 47.8007L39.1536 45.457L40.51 43.1076ZM46.8293 35.8668C45.6884 37.843 43.103 38.4864 41.0548 37.3038C39.0065 36.1213 38.271 33.5606 39.412 31.5844C40.5529 29.6083 43.1383 28.9649 45.1865 30.1475C47.2348 31.33 47.9703 33.8907 46.8293 35.8668Z" fill="#D9D9D9" stroke="#333333" stroke-width="2"/>
<path d="M50.5567 46.9038C50.2177 47.0586 50 47.3986 50 47.7733V56.8066C50 57.0512 50.0214 57.2969 50.0766 57.5351C51.7861 64.9165 61.5 69 61.5 69C61.5 69 71.2139 64.9165 72.9234 57.5351C72.9786 57.2969 73 57.0512 73 56.8066V47.7733C73 47.3986 72.7823 47.0586 72.4433 46.9038L61.8918 42.0853C61.6428 41.9716 61.3572 41.9716 61.1082 42.0853L50.5567 46.9038Z" fill="white" stroke="#333333" stroke-width="2"/>
<path d="M57 55.25L60.5714 59L67 53" stroke="#333333" stroke-width="2" stroke-linecap="round" stroke-linejoin="round"/>
</svg>
