<svg width="32" height="32" viewBox="0 0 32 32" fill="none" xmlns="http://www.w3.org/2000/svg">
    <circle cx="16" cy="16" r="16" fill="#F2F2F2" />
    <path
        d="M25.7327 18.7438C25.2006 18.0886 24.6472 18.3832 23.3799 18.8569C22.008 19.399 19.4501 20.641 18.7342 20.8437C18.0183 21.0464 15.9091 19.3777 15.5202 19.1727C14.9261 18.8333 14.8663 17.9307 17.4029 19.8279C19.4907 21.3622 19.6125 19.3754 19.5526 18.9488C19.4907 18.4963 19.0205 18.1593 19.0205 18.1593C19.0205 18.1593 15.0907 15.6775 14.7637 15.4961C14.4368 15.2934 13.4943 14.7065 12.2464 15.1802C11.0176 15.654 8.94507 17.3947 8.94507 17.3947V23.4502C8.94507 23.4502 13.6314 23.4502 16.8048 24.7134C19.9569 25.9767 22.7047 22.7174 24.3224 21.6568C26.1024 20.5043 26.2649 19.3754 25.7327 18.7438ZM6.13081 17.4188L4.14323 17.418C4.06203 17.418 4.00006 17.4864 4.00006 17.5759L4 23.2779C4 23.391 4.06197 23.4594 4.14318 23.4594L6.13081 23.4358C6.21201 23.4358 6.27398 23.3674 6.27398 23.2779V17.6003C6.27398 17.5107 6.21201 17.4188 6.13081 17.4188Z"
        fill="white" stroke="#333333" stroke-linecap="round" stroke-linejoin="round" />
    <path fill-rule="evenodd" clip-rule="evenodd"
        d="M18.2602 20.7923C21.5531 20.0003 24 17.0359 24 13.5C24 9.35786 20.6421 6 16.5 6C12.3579 6 9 9.35786 9 13.5C9 14.6796 9.27233 15.7956 9.75754 16.7886C10.4708 16.2387 11.5391 15.4709 12.2907 15.1802C13.532 14.7075 14.4701 15.2909 14.7978 15.4948L14.7999 15.4961C15.1258 15.6775 19.043 18.1593 19.043 18.1593C19.043 18.1593 19.5116 18.4963 19.5734 18.9488C19.6331 19.3754 19.5116 21.3622 17.4305 19.8279C14.9021 17.9307 14.9618 18.8333 15.5539 19.1727C15.6439 19.2203 15.8264 19.3468 16.0624 19.5104C16.6615 19.9258 17.6058 20.5806 18.2602 20.7923Z"
        fill="white" />
    <path
        d="M18.2602 20.7923L18.1064 21.268C18.194 21.2963 18.2877 21.2999 18.3772 21.2784L18.2602 20.7923ZM9.75754 16.7886L9.30831 17.0081C9.37426 17.1431 9.4974 17.2412 9.64367 17.2754C9.78994 17.3096 9.94385 17.2763 10.0628 17.1846L9.75754 16.7886ZM12.2907 15.1802L12.1127 14.713L12.1103 14.7139L12.2907 15.1802ZM14.7978 15.4948L14.5338 15.9194L14.5338 15.9194L14.7978 15.4948ZM14.7999 15.4961L14.5359 15.9207C14.5427 15.9249 14.5496 15.929 14.5566 15.9329L14.7999 15.4961ZM19.043 18.1593L19.335 17.7533C19.327 17.7476 19.3189 17.7421 19.3106 17.7369L19.043 18.1593ZM19.5734 18.9488L19.078 19.0164L19.0782 19.018L19.5734 18.9488ZM17.4305 19.8279L17.1304 20.2278L17.1338 20.2303L17.4305 19.8279ZM15.5539 19.1727L15.3053 19.6065C15.3102 19.6093 15.3152 19.612 15.3202 19.6147L15.5539 19.1727ZM16.0624 19.5104L16.3473 19.0995H16.3473L16.0624 19.5104ZM23.5 13.5C23.5 16.7995 21.2167 19.567 18.1433 20.3061L18.3772 21.2784C21.8896 20.4336 24.5 17.2723 24.5 13.5H23.5ZM16.5 6.5C20.366 6.5 23.5 9.63401 23.5 13.5H24.5C24.5 9.08172 20.9183 5.5 16.5 5.5V6.5ZM9.5 13.5C9.5 9.63401 12.634 6.5 16.5 6.5V5.5C12.0817 5.5 8.5 9.08172 8.5 13.5H9.5ZM10.2068 16.5691C9.75423 15.643 9.5 14.6019 9.5 13.5H8.5C8.5 14.7573 8.79042 15.9483 9.30831 17.0081L10.2068 16.5691ZM12.1103 14.7139C11.2805 15.0349 10.157 15.8493 9.45227 16.3926L10.0628 17.1846C10.7847 16.6281 11.7977 15.907 12.471 15.6466L12.1103 14.7139ZM15.0619 15.0702C14.7174 14.8559 13.5923 14.1496 12.1127 14.713L12.4686 15.6475C13.4718 15.2655 14.2227 15.7259 14.5338 15.9194L15.0619 15.0702ZM15.0639 15.0715L15.0619 15.0702L14.5338 15.9194L14.5359 15.9207L15.0639 15.0715ZM19.043 18.1593C19.3106 17.7369 19.3106 17.7369 19.3106 17.7369C19.3105 17.7369 19.3105 17.7368 19.3104 17.7368C19.3103 17.7367 19.3101 17.7366 19.3099 17.7364C19.3094 17.7361 19.3087 17.7357 19.3078 17.7351C19.3059 17.7339 19.303 17.7321 19.2993 17.7298C19.2919 17.725 19.2809 17.7181 19.2665 17.7089C19.2377 17.6907 19.1954 17.6639 19.1415 17.6298C19.0337 17.5616 18.8794 17.4639 18.6931 17.3461C18.3207 17.1105 17.8206 16.7945 17.3103 16.4728C16.3014 15.8367 15.2218 15.1587 15.0431 15.0592L14.5566 15.9329C14.7039 16.0149 15.7459 16.6686 16.777 17.3187C17.2868 17.6401 17.7864 17.9558 18.1586 18.1912C18.3447 18.3089 18.4989 18.4066 18.6066 18.4747C18.6605 18.5088 18.7027 18.5356 18.7314 18.5538C18.7458 18.5629 18.7568 18.5698 18.7642 18.5745C18.7679 18.5769 18.7707 18.5787 18.7726 18.5799C18.7735 18.5804 18.7743 18.5809 18.7747 18.5812C18.775 18.5813 18.7751 18.5815 18.7753 18.5815C18.7753 18.5816 18.7754 18.5816 18.7754 18.5816C18.7754 18.5816 18.7754 18.5816 19.043 18.1593ZM20.0688 18.8812C20.0184 18.5119 19.8112 18.2241 19.6591 18.0526C19.5786 17.9618 19.5012 17.8899 19.4435 17.8401C19.4144 17.8151 19.3896 17.795 19.371 17.7805C19.3617 17.7733 19.3539 17.7673 19.3478 17.7628C19.3448 17.7605 19.3422 17.7586 19.34 17.757C19.3389 17.7562 19.338 17.7555 19.3371 17.7549C19.3367 17.7546 19.3363 17.7543 19.336 17.7541C19.3358 17.7539 19.3356 17.7538 19.3354 17.7537C19.3353 17.7536 19.3352 17.7535 19.3352 17.7535C19.3351 17.7534 19.335 17.7533 19.043 18.1593C18.7511 18.5652 18.751 18.5651 18.7509 18.565C18.7508 18.565 18.7507 18.5649 18.7506 18.5649C18.7505 18.5648 18.7504 18.5647 18.7503 18.5646C18.75 18.5644 18.7498 18.5643 18.7496 18.5641C18.7492 18.5638 18.7489 18.5636 18.7487 18.5635C18.7483 18.5632 18.7484 18.5632 18.7488 18.5635C18.7496 18.5641 18.7519 18.5659 18.7556 18.5687C18.7628 18.5744 18.7751 18.5843 18.7909 18.5979C18.823 18.6255 18.8666 18.6661 18.911 18.7161C19.0086 18.8262 19.0666 18.9332 19.078 19.0164L20.0688 18.8812ZM17.1338 20.2303C17.6859 20.6373 18.1748 20.8633 18.6142 20.8964C19.0931 20.9325 19.4589 20.7351 19.6971 20.4336C19.914 20.159 20.0083 19.8226 20.0501 19.5608C20.0926 19.2952 20.0911 19.0409 20.0686 18.8796L19.0782 19.018C19.0855 19.07 19.0913 19.224 19.0627 19.403C19.0335 19.5858 18.9785 19.7301 18.9124 19.8137C18.8675 19.8705 18.8166 19.9088 18.6893 19.8992C18.5224 19.8867 18.2158 19.7856 17.7273 19.4255L17.1338 20.2303ZM15.8026 18.7389C15.7197 18.6914 15.6879 18.6391 15.6924 18.6485C15.6955 18.6548 15.7054 18.6767 15.7111 18.7125C15.7169 18.7481 15.7207 18.812 15.6952 18.8887C15.6288 19.0877 15.4572 19.1478 15.3895 19.157C15.3413 19.1636 15.3411 19.1502 15.4222 19.1752C15.4941 19.1973 15.6033 19.2414 15.757 19.3212C16.0641 19.4806 16.5101 19.7623 17.1305 20.2278L17.7306 19.428C17.0868 18.9448 16.5921 18.628 16.2178 18.4336C16.0307 18.3365 15.8641 18.265 15.7169 18.2196C15.5788 18.177 15.4163 18.1441 15.2546 18.1661C15.0733 18.1908 14.8369 18.3013 14.7465 18.5725C14.674 18.79 14.7439 18.9835 14.7911 19.0817C14.8944 19.2965 15.0921 19.4843 15.3053 19.6065L15.8026 18.7389ZM16.3473 19.0995C16.1291 18.9482 15.912 18.7964 15.7877 18.7307L15.3202 19.6147C15.3759 19.6442 15.5237 19.7453 15.7775 19.9213L16.3473 19.0995ZM18.4141 20.3165C18.1472 20.2302 17.7901 20.0407 17.4029 19.8021C17.0233 19.5682 16.6482 19.3082 16.3473 19.0995L15.7775 19.9213C16.0757 20.1281 16.4722 20.4032 16.8782 20.6534C17.2766 20.8989 17.7188 21.1427 18.1064 21.268L18.4141 20.3165Z"
        fill="#333333" />
</svg>