<svg width="32" height="32" viewBox="0 0 32 32" fill="none" xmlns="http://www.w3.org/2000/svg">
    <circle cx="16" cy="16" r="16" fill="#F2F2F2" />
    <circle cx="8" cy="8" r="7.5" transform="matrix(-1 0 0 1 23.9998 5)" fill="white" stroke="#333333" />
    <path
        d="M15.9998 10C15.1037 10 14.2995 10.3928 13.7498 11.0156C13.283 11.5445 12.9998 12.2392 12.9998 13C12.9998 14.6569 14.3429 16 15.9998 16C17.6566 16 18.9998 14.6569 18.9998 13C18.9998 12.2316 18.7109 11.5308 18.2359 11L17.4998 12.5"
        stroke="#333333" stroke-linecap="round" stroke-linejoin="round" />
    <path d="M15.9998 23.5H17.9998" stroke="#333333" stroke-linecap="round" stroke-linejoin="round" />
    <path
        d="M15.4998 28C15.4998 28.2761 15.7236 28.5 15.9998 28.5C16.2759 28.5 16.4998 28.2761 16.4998 28L15.4998 28ZM15.4998 20L15.4998 28L16.4998 28L16.4998 20L15.4998 20Z"
        fill="#333333" />
    <path d="M15.9998 26H17.9998" stroke="#333333" stroke-linecap="round" stroke-linejoin="round" />
</svg>