<svg width="24" height="24" viewBox="0 0 24 24" fill="none" xmlns="http://www.w3.org/2000/svg">
<path fill-rule="evenodd" clip-rule="evenodd" d="M1.37109 4.99209C1.37109 4.7955 1.48126 4.54062 1.83249 4.24405C2.1814 3.94944 2.71593 3.6616 3.4202 3.41007C4.8244 2.90857 6.79715 2.58887 9.00013 2.58887C11.2031 2.58887 13.1759 2.90857 14.5801 3.41007C15.2843 3.6616 15.8189 3.94944 16.1678 4.24405C16.519 4.54062 16.6292 4.7955 16.6292 4.99209C16.6292 5.18869 16.519 5.44356 16.1678 5.74013C15.8189 6.03474 15.2843 6.32259 14.5801 6.57411C13.1759 7.07561 11.2031 7.39532 9.00013 7.39532C6.79715 7.39532 4.8244 7.07561 3.4202 6.57411C2.71593 6.32259 2.1814 6.03474 1.83249 5.74013C1.48126 5.44356 1.37109 5.18869 1.37109 4.99209ZM9.00013 1.58887C6.71356 1.58887 4.6218 1.91907 3.08386 2.46833C2.31707 2.74219 1.66113 3.07994 1.18734 3.48C0.715862 3.8781 0.371094 4.38699 0.371094 4.99209L0.371113 5H0.371094V11.8172C0.371094 11.9206 0.379519 12.022 0.395667 12.1211H0.371094V19.1672C0.371094 19.7974 0.693146 20.3468 1.16677 20.7937C1.63939 21.2396 2.29638 21.6182 3.0667 21.9256C4.61015 22.5416 6.70815 22.9114 9.00013 22.9114C10.4598 22.9114 11.8409 22.7614 13.0501 22.4934C12.6642 22.2775 12.3177 21.9995 12.0242 21.673C11.098 21.8259 10.0768 21.9114 9.00013 21.9114C6.80256 21.9114 4.83604 21.555 3.43736 20.9968C2.73662 20.7172 2.20314 20.3967 1.85306 20.0663C1.50398 19.737 1.37109 19.4329 1.37109 19.1672V13.6526C1.8207 14.0277 2.39986 14.3517 3.06338 14.6221C4.60785 15.2513 6.70706 15.629 9.00013 15.629C9.6874 15.629 10.3573 15.5951 11 15.5306V15C11 14.8384 11.0096 14.679 11.0282 14.5223C10.3833 14.5917 9.70355 14.629 9.00013 14.629C6.80365 14.629 4.83834 14.2654 3.44068 13.696C2.7406 13.4108 2.20721 13.0837 1.85678 12.7462C1.50776 12.41 1.37109 12.0961 1.37109 11.8172V6.64957C1.82485 6.98671 2.41178 7.27582 3.08386 7.51585C4.6218 8.06512 6.71356 8.39532 9.00013 8.39532C11.2867 8.39532 13.3785 8.06512 14.9164 7.51585C15.5885 7.27583 16.1754 6.98671 16.6292 6.64957V11H17.6292V5V4.99209C17.6292 4.38699 17.2844 3.8781 16.8129 3.48C16.3391 3.07994 15.6832 2.74219 14.9164 2.46833C13.3785 1.91907 11.2867 1.58887 9.00013 1.58887Z" fill="#333333"/>
<path d="M15.5 16H18.5" stroke="#333333" stroke-linecap="round"/>
<path d="M15.5 18.5H18.5" stroke="#333333" stroke-linecap="round"/>
<rect x="12.5" y="12.5" width="9" height="9" rx="2.5" stroke="#333333"/>
</svg>
