<svg width="24" height="24" viewBox="0 0 24 24" fill="none" xmlns="http://www.w3.org/2000/svg">
<path d="M17.881 5.35455C17.9855 5.67364 17.687 5.95275 17.3512 5.95275V5.95275L8.70069 5.95275V5.95275C8.41046 5.95275 8.22363 5.65111 8.43205 5.44913C8.45481 5.42707 8.47804 5.40522 8.50173 5.38358L11.3131 2.8065C11.9163 2.25937 12.7098 1.99068 13.5 2.00043C14.2625 2.00985 15.0218 2.27854 15.6038 2.8065L17.1176 4.20572C17.4886 4.53943 17.7431 4.93347 17.881 5.35455Z" stroke="#333333" stroke-linecap="round" stroke-linejoin="round"/>
<path d="M21 11L16.4 11C15.08 11 14 12.125 14 13.5C14 14.875 15.08 16 16.4 16H21" stroke="#333333" stroke-linecap="round" stroke-linejoin="round"/>
<rect width="18" height="15" rx="3" transform="matrix(-1 0 0 1 21 6)" stroke="#333333" stroke-linecap="round" stroke-linejoin="round"/>
</svg>
