<svg width="24" height="24" viewBox="0 0 24 24" fill="none" xmlns="http://www.w3.org/2000/svg">
    <path
        d="M2 13.5348C2.12793 14.3473 2.3595 15.1572 2.70156 15.9475C4.89716 21.0203 10.8132 23.3652 15.9154 21.1851C21.0177 19.005 23.374 13.1253 21.1784 8.05254C18.9828 2.97974 13.0667 0.63476 7.96448 2.81488C5.15446 4.01557 3.17734 6.33839 2.33479 9.03056L4.77778 8.11111"
        stroke="#000" stroke-linecap="round" stroke-linejoin="round" />
    <path
        d="M13.4827 11.5132C14.0998 11.0579 14.5001 10.3257 14.5001 9.5C14.5001 8.11929 13.3808 7 12.0001 7C10.6194 7 9.50011 8.11929 9.50011 9.5C9.50011 10.3162 9.8913 11.0411 10.4964 11.4974C8.82989 11.7934 7.47984 13.29 7.05967 14.9798C6.76382 16.1697 7.60209 17 8.82194 17H14.2222H15.0698C16.2896 17 17.2415 16.1697 16.9456 14.9798C16.6643 13.8485 15.9255 12.8038 14.9621 12.148C14.5103 11.8405 14.0092 11.6185 13.4827 11.5132Z"
        stroke="#000" stroke-linejoin="round" />
</svg>