<svg width="24" height="24" viewBox="0 0 24 24" fill="none" xmlns="http://www.w3.org/2000/svg">
    <g clip-path="url(#clip0_956_3259)">
        <path
            d="M4.19159 7.98073L6.3541 9.22926C7.87508 10.1074 9.437 7.80167 7.74299 6.82364M4.19159 7.98073L3.23047 7.42583M4.19159 7.98073L5.58048 5.57511M5.73047 3.0957L6.69159 3.65061M6.69159 3.65061L5.58048 5.57511M6.69159 3.65061L8.61382 4.76041C9.14464 5.06687 9.32621 5.74613 9.01939 6.27756C8.75196 6.74075 8.30916 7.15051 7.74299 6.82364M5.58048 5.57511L7.74299 6.82364"
            stroke="#000" stroke-linecap="round" />
        <path fill-rule="evenodd" clip-rule="evenodd"
            d="M7.89423 4.34552L8.45038 3.38223C8.58845 3.14309 8.89425 3.06115 9.13339 3.19922C9.37254 3.33729 9.45448 3.64309 9.31641 3.88223L8.76025 4.84552L7.89423 4.34552ZM5.07724 10.2247C4.83809 10.0866 4.75616 9.78081 4.89423 9.54167L5.14423 9.10866L6.01025 9.60866L5.76025 10.0417C5.62218 10.2808 5.31639 10.3628 5.07724 10.2247ZM6.25013 3.3963L6.80629 2.43301C6.94436 2.19387 7.25015 2.11193 7.4893 2.25C7.72844 2.38807 7.81038 2.69387 7.67231 2.93301L7.11616 3.8963L6.25013 3.3963ZM3.43315 9.27546C3.194 9.13739 3.11206 8.8316 3.25013 8.59245L3.50013 8.15944L4.36616 8.65944L4.11616 9.09245C3.97809 9.3316 3.67229 9.41353 3.43315 9.27546Z"
            fill="#000" />
        <circle cx="6.5" cy="6.5" r="6" stroke="#000" />
        <circle cx="17.5" cy="17.5" r="6" stroke="#000" />
        <path
            d="M19.5587 14.0348L19.061 15.1714L18.1487 14.772L18.6463 13.6354L19.5587 14.0348ZM16.8077 20.3284L16.3539 21.3648L15.4379 20.9638L15.8916 19.9273L16.8077 20.3284ZM17.858 19.2822C17.9221 19.1358 17.9441 18.997 17.9242 18.8658C17.9074 18.736 17.8453 18.6002 17.738 18.4583C17.6338 18.3178 17.479 18.1582 17.2737 17.9795C16.9281 17.6752 16.6338 17.3841 16.3909 17.1063C16.1521 16.8273 15.9949 16.5427 15.9194 16.2525C15.845 15.9597 15.8809 15.6464 16.0271 15.3125C16.1666 14.9939 16.3786 14.7577 16.6633 14.6038C16.948 14.4499 17.2786 14.3804 17.6551 14.3952C18.0359 14.4089 18.441 14.5097 18.8706 14.6978C19.1982 14.8412 19.4769 15.0122 19.7067 15.2108C19.9377 15.4068 20.1146 15.6251 20.2377 15.8656C20.3618 16.1037 20.4259 16.3567 20.4301 16.6249C20.4343 16.893 20.3733 17.1709 20.2474 17.4586L18.9169 16.8761C18.9844 16.722 19.0239 16.577 19.0354 16.4413C19.047 16.3055 19.0316 16.1809 18.9892 16.0675C18.9498 15.9554 18.8861 15.857 18.7979 15.7725C18.7108 15.6854 18.6039 15.6141 18.4772 15.5586C18.2886 15.4761 18.1206 15.4393 17.9731 15.4481C17.8256 15.457 17.7009 15.5019 17.5992 15.5829C17.5017 15.6626 17.4237 15.7693 17.3652 15.9029C17.3078 16.0339 17.2856 16.1604 17.2985 16.2823C17.3145 16.4056 17.3756 16.5395 17.4818 16.684C17.5891 16.8258 17.7478 16.9933 17.9579 17.1863C18.3035 17.4906 18.5951 17.7836 18.8327 18.0652C19.0704 18.3468 19.227 18.6326 19.3025 18.9228C19.378 19.213 19.3427 19.5251 19.1965 19.859C19.0514 20.1904 18.835 20.4323 18.5472 20.5849C18.2605 20.7349 17.9233 20.7985 17.5356 20.7756C17.1489 20.7502 16.7362 20.6414 16.2973 20.4493C16.013 20.3248 15.7437 20.1702 15.4894 19.9854C15.2363 19.7981 15.0263 19.5837 14.8595 19.3423C14.6926 19.1009 14.5924 18.8335 14.5587 18.5402C14.5262 18.2444 14.5853 17.9244 14.736 17.5802L16.0711 18.1647C15.989 18.3522 15.9498 18.5218 15.9534 18.6733C15.9581 18.8223 15.9921 18.9551 16.0553 19.0715C16.1227 19.1867 16.2115 19.2868 16.3216 19.3717C16.4317 19.4567 16.5502 19.5269 16.6769 19.5824C16.8747 19.669 17.0499 19.7105 17.2024 19.7069C17.3581 19.7046 17.4909 19.6663 17.6008 19.592C17.7149 19.5165 17.8006 19.4132 17.858 19.2822Z"
            fill="#000" />
        <path d="M2.00012 14C2.50012 18 5.50012 20.5 9.00012 21L8.00012 19" stroke="#000" stroke-linecap="round"
            stroke-linejoin="round" />
        <path d="M22.0001 9C21.5001 5 18.5001 2.5 15.0001 2L16.0001 4" stroke="#000" stroke-linecap="round"
            stroke-linejoin="round" />
    </g>
    <defs>
        <clipPath id="clip0_956_3259">
            <rect width="24" height="24" fill="white" />
        </clipPath>
    </defs>
</svg>