<svg width="24" height="24" viewBox="0 0 24 24" fill="none" xmlns="http://www.w3.org/2000/svg">
    <path
        d="M3.60132 13.1422L3.9597 12.7933L3.9512 12.785L3.60132 13.1422ZM20.3987 13.1422L20.0488 12.785L20.0488 12.785L20.3987 13.1422ZM12.6671 5.56854L12.3173 5.21135L12.3172 5.21142L12.6671 5.56854ZM12.0002 6.22205L12.3454 6.58381L12.3502 6.57917L12.0002 6.22205ZM11.3329 5.56854L10.983 5.92573L10.983 5.92578L11.3329 5.56854ZM10.7359 20.4715L10.3777 20.8202L10.7359 20.4715ZM13.2625 20.47L13.6212 20.8184H13.6212L13.2625 20.47ZM14.2103 8.23744L13.8725 8.60613L14.2103 8.23744ZM13.0073 8.24766L12.6631 7.88491L13.0073 8.24766ZM14.5116 11.6701C14.308 11.4836 13.9917 11.4975 13.8052 11.7011C13.6187 11.9048 13.6326 12.221 13.8362 12.4075L14.5116 11.6701ZM17.5319 15.7923C17.7355 15.9788 18.0518 15.9649 18.2383 15.7613C18.4248 15.5577 18.4109 15.2414 18.2073 15.0549L17.5319 15.7923ZM12.7725 13.3625C12.5688 13.176 12.2526 13.1899 12.0661 13.3935C11.8796 13.5971 11.8934 13.9134 12.0971 14.0999L12.7725 13.3625ZM15.7927 17.4847C15.9964 17.6712 16.3126 17.6573 16.4992 17.4537C16.6857 17.25 16.6718 16.9338 16.4681 16.7473L15.7927 17.4847ZM10.5986 15.478C10.3949 15.2915 10.0787 15.3053 9.89215 15.509C9.70564 15.7126 9.71953 16.0289 9.92317 16.2154L10.5986 15.478ZM13.6188 19.6002C13.8225 19.7867 14.1387 19.7728 14.3252 19.5692C14.5118 19.3655 14.4979 19.0492 14.2942 18.8627L13.6188 19.6002ZM9.65955 9.99495L9.99599 9.62507L9.99599 9.62507L9.65955 9.99495ZM9.82933 8.29369L9.48415 7.93196L9.48415 7.93196L9.82933 8.29369ZM11.3908 9.78106L11.7349 10.1438L11.3908 9.78106ZM3.9512 12.785C2.01627 10.8897 2.01627 7.82105 3.9512 5.92573L3.25144 5.21135C0.916186 7.4988 0.916186 11.2119 3.25144 13.4994L3.9512 12.785ZM20.7486 13.4994C23.0838 11.2119 23.0838 7.4988 20.7486 5.21135L20.0488 5.92573C21.9837 7.82105 21.9837 10.8897 20.0488 12.785L20.7486 13.4994ZM20.7486 5.21135C18.4191 2.92955 14.6467 2.92955 12.3173 5.21135L13.017 5.92573C14.9577 4.02476 18.1081 4.02476 20.0488 5.92573L20.7486 5.21135ZM12.3172 5.21142L11.6503 5.86493L12.3502 6.57917L13.0171 5.92566L12.3172 5.21142ZM10.983 5.92578L11.6504 6.57929L12.3501 5.86481L11.6827 5.2113L10.983 5.92578ZM3.9512 5.92573C5.8919 4.02476 9.04229 4.02476 10.983 5.92573L11.6827 5.21135C9.35326 2.92955 5.58093 2.92955 3.25144 5.21135L3.9512 5.92573ZM20.3454 13.8943L20.7486 13.4994L20.0488 12.785L19.6456 13.18L20.3454 13.8943ZM13.8725 8.60613L19.6577 13.9059L20.3332 13.1685L14.548 7.86876L13.8725 8.60613ZM11.0942 20.1227L3.9596 12.7934L3.24304 13.491L10.3777 20.8202L11.0942 20.1227ZM13.6212 20.8184L20.3542 13.8855L19.6368 13.1888L12.9038 20.1217L13.6212 20.8184ZM10.3777 20.8202C11.2606 21.7273 12.7393 21.7265 13.6212 20.8184L12.9038 20.1217C12.4144 20.6257 11.5843 20.6262 11.0942 20.1227L10.3777 20.8202ZM14.548 7.86876C14.0155 7.38089 13.1873 7.38771 12.6631 7.88491L13.3514 8.6104C13.4942 8.47487 13.7269 8.47269 13.8725 8.60613L14.548 7.86876ZM13.8362 12.4075L17.5319 15.7923L18.2073 15.0549L14.5116 11.6701L13.8362 12.4075ZM12.0971 14.0999L15.7927 17.4847L16.4681 16.7473L12.7725 13.3625L12.0971 14.0999ZM9.92317 16.2154L13.6188 19.6002L14.2942 18.8627L10.5986 15.478L9.92317 16.2154ZM11.655 5.86033L9.48415 7.93196L10.1745 8.65541L12.3454 6.58378L11.655 5.86033ZM11.7349 10.1438L13.3514 8.6104L12.6631 7.88491L11.0467 9.41831L11.7349 10.1438ZM9.48415 7.93196C9.1985 8.20456 8.88534 8.56359 8.79241 9.00341C8.68598 9.50706 8.88989 9.97077 9.32311 10.3648L9.99599 9.62507C9.74358 9.39549 9.75808 9.27034 9.7708 9.21015C9.79701 9.08613 9.91156 8.90636 10.1745 8.65541L9.48415 7.93196ZM9.3231 10.3648C9.74533 10.7489 10.2046 10.9047 10.6838 10.7944C11.1078 10.6969 11.4588 10.4058 11.7349 10.1438L11.0467 9.41831C10.782 9.6694 10.5998 9.78762 10.4595 9.8199C10.3744 9.83947 10.2385 9.84568 9.99599 9.62507L9.3231 10.3648Z"
        fill="#000" />
</svg>