<svg width="24" height="24" viewBox="0 0 24 24" fill="none" xmlns="http://www.w3.org/2000/svg">
    <path fill-rule="evenodd" clip-rule="evenodd"
        d="M11 1.5C5.75329 1.5 1.5 5.75329 1.5 11C1.5 16.2467 5.75329 20.5 11 20.5C16.2467 20.5 20.5 16.2467 20.5 11C20.5 5.75329 16.2467 1.5 11 1.5ZM0.5 11C0.5 5.20101 5.20101 0.5 11 0.5C16.799 0.5 21.5 5.20101 21.5 11C21.5 16.799 16.799 21.5 11 21.5C5.20101 21.5 0.5 16.799 0.5 11Z"
        fill="#000" />
    <path
        d="M11 4L6 11.5385M11 4L16 11.5385M11 4V18M6 11.5385L11 18M6 11.5385L11 9.38462L16 11.5385M6 11.5385L11 14.2308L16 11.5385M11 18L16 11.5385"
        stroke="#000" stroke-linejoin="round" />
    <circle cx="18" cy="17" r="6" fill="white" />
    <path fill-rule="evenodd" clip-rule="evenodd"
        d="M15.5499 15C15.6399 14.9304 15.7986 14.8467 16.037 14.7672C16.5164 14.6074 17.2105 14.5 18.0002 14.5C18.7898 14.5 19.484 14.6074 19.9634 14.7672C20.2018 14.8467 20.3605 14.9304 20.4505 15C20.3605 15.0696 20.2018 15.1533 19.9634 15.2328C19.484 15.3926 18.7898 15.5 18.0002 15.5C17.2105 15.5 16.5164 15.3926 16.037 15.2328C15.7986 15.1533 15.6399 15.0696 15.5499 15ZM20.5111 14.9433C20.5122 14.941 20.513 14.9399 20.5131 14.9399C20.5132 14.94 20.5127 14.9411 20.5111 14.9433ZM15.4893 14.9433C15.4877 14.9411 15.4871 14.94 15.4872 14.9399C15.4874 14.9399 15.4881 14.941 15.4893 14.9433ZM15.7207 13.8186C16.3271 13.6164 17.133 13.5 18.0002 13.5C18.8674 13.5 19.6733 13.6164 20.2796 13.8186C20.5802 13.9187 20.8595 14.0491 21.0739 14.218C21.2827 14.3826 21.5002 14.6431 21.5002 15V17V19C21.5002 19.3569 21.2968 19.6238 21.0776 19.8C20.8596 19.9751 20.5762 20.1046 20.2747 20.2017C19.6669 20.3973 18.8614 20.5 18.0002 20.5C17.1389 20.5 16.3335 20.3973 15.7257 20.2017C15.4242 20.1046 15.1408 19.9751 14.9228 19.8C14.7035 19.6238 14.5002 19.3569 14.5002 19V17V15C14.5002 14.6431 14.7177 14.3826 14.9265 14.218C15.1409 14.0491 15.4202 13.9187 15.7207 13.8186ZM15.5002 18.1212V18.9741C15.5078 18.9836 15.5225 18.9991 15.5491 19.0204C15.6347 19.0892 15.7906 19.1721 16.0321 19.2498C16.51 19.4036 17.2046 19.5 18.0002 19.5C18.7958 19.5 19.4904 19.4036 19.9683 19.2498C20.2097 19.1721 20.3657 19.0892 20.4513 19.0204C20.4778 18.9991 20.4925 18.9836 20.5002 18.9741V18.1212C20.4267 18.1503 20.3513 18.177 20.2747 18.2017C19.6669 18.3973 18.8614 18.5 18.0002 18.5C17.1389 18.5 16.3335 18.3973 15.7257 18.2017C15.6491 18.177 15.5737 18.1503 15.5002 18.1212ZM20.2796 16.1814C20.3547 16.1564 20.4284 16.1295 20.5002 16.1006V16.9741C20.4925 16.9836 20.4778 16.9991 20.4513 17.0204C20.3657 17.0892 20.2097 17.1721 19.9683 17.2498C19.4904 17.4036 18.7958 17.5 18.0002 17.5C17.2046 17.5 16.51 17.4036 16.0321 17.2498C15.7906 17.1721 15.6347 17.0892 15.5491 17.0204C15.5225 16.9991 15.5078 16.9836 15.5002 16.9741V16.1006C15.5719 16.1295 15.6457 16.1564 15.7207 16.1814C16.3271 16.3836 17.133 16.5 18.0002 16.5C18.8674 16.5 19.6733 16.3836 20.2796 16.1814ZM20.5076 16.9632C20.5077 16.9632 20.5072 16.9644 20.5056 16.9668C20.5066 16.9644 20.5074 16.9632 20.5076 16.9632ZM15.4928 16.9632C15.4929 16.9632 15.4937 16.9644 15.4948 16.9668C15.4932 16.9644 15.4927 16.9632 15.4928 16.9632ZM20.5074 18.9638C20.5076 18.9634 20.5076 18.9632 20.5076 18.9632C20.5074 18.9632 20.5066 18.9644 20.5056 18.9668C20.5066 18.9654 20.5071 18.9643 20.5074 18.9638ZM15.4928 18.9632C15.4929 18.9632 15.4937 18.9644 15.4948 18.9668C15.4932 18.9644 15.4927 18.9632 15.4928 18.9632Z"
        fill="#000" />
</svg>