<svg width="24" height="24" viewBox="0 0 24 24" fill="none" xmlns="http://www.w3.org/2000/svg">
<path d="M22.7327 14.7438C22.2006 14.0886 21.6472 14.3832 20.3799 14.8569C19.008 15.399 16.4501 16.641 15.7342 16.8437C15.0183 17.0464 12.9091 15.3777 12.5202 15.1727C11.9261 14.8333 11.8663 13.9307 14.4029 15.8279C16.4907 17.3622 16.6125 15.3754 16.5526 14.9488C16.4907 14.4963 16.0205 14.1593 16.0205 14.1593C16.0205 14.1593 12.0907 11.6775 11.7637 11.4961C11.4368 11.2934 10.4943 10.7065 9.24636 11.1802C8.01761 11.654 5.94507 13.3947 5.94507 13.3947V19.4502C5.94507 19.4502 10.6314 19.4502 13.8048 20.7134C16.9569 21.9767 19.7047 18.7174 21.3224 17.6568C23.1024 16.5043 23.2649 15.3754 22.7327 14.7438ZM3.13081 13.4188L1.14323 13.418C1.06203 13.418 1.00006 13.4864 1.00006 13.5759L1 19.2779C1 19.391 1.06197 19.4594 1.14318 19.4594L3.13081 19.4358C3.21201 19.4358 3.27398 19.3674 3.27398 19.2779V13.6003C3.27398 13.5107 3.21201 13.4188 3.13081 13.4188Z" stroke="#333333" stroke-linecap="round" stroke-linejoin="round"/>
<path d="M15.2602 16.7923L15.1064 17.268C15.194 17.2963 15.2877 17.2999 15.3772 17.2784L15.2602 16.7923ZM6.75754 12.7886L6.30831 13.0081C6.37426 13.1431 6.4974 13.2412 6.64367 13.2754C6.78994 13.3096 6.94385 13.2763 7.06282 13.1846L6.75754 12.7886ZM9.29066 11.1802L9.11271 10.713L9.11029 10.7139L9.29066 11.1802ZM11.7978 11.4948L11.5338 11.9194L11.5338 11.9194L11.7978 11.4948ZM11.7999 11.4961L11.5359 11.9207C11.5427 11.9249 11.5496 11.929 11.5566 11.9329L11.7999 11.4961ZM16.043 14.1593L16.335 13.7533C16.327 13.7476 16.3189 13.7421 16.3106 13.7369L16.043 14.1593ZM16.5734 14.9488L16.078 15.0164L16.0782 15.018L16.5734 14.9488ZM14.4305 15.8279L14.1304 16.2278L14.1338 16.2303L14.4305 15.8279ZM12.5539 15.1727L12.3053 15.6065C12.3102 15.6093 12.3152 15.612 12.3202 15.6147L12.5539 15.1727ZM13.0624 15.5104L13.3473 15.0995H13.3473L13.0624 15.5104ZM20.5 9.5C20.5 12.7995 18.2167 15.567 15.1433 16.3061L15.3772 17.2784C18.8896 16.4336 21.5 13.2723 21.5 9.5H20.5ZM13.5 2.5C17.366 2.5 20.5 5.63401 20.5 9.5H21.5C21.5 5.08172 17.9183 1.5 13.5 1.5V2.5ZM6.5 9.5C6.5 5.63401 9.63401 2.5 13.5 2.5V1.5C9.08172 1.5 5.5 5.08172 5.5 9.5H6.5ZM7.20678 12.5691C6.75423 11.643 6.5 10.6019 6.5 9.5H5.5C5.5 10.7573 5.79042 11.9483 6.30831 13.0081L7.20678 12.5691ZM9.11029 10.7139C8.28051 11.0349 7.15703 11.8493 6.45227 12.3926L7.06282 13.1846C7.78465 12.6281 8.79768 11.907 9.47102 11.6466L9.11029 10.7139ZM12.0619 11.0702C11.7174 10.8559 10.5923 10.1496 9.11272 10.713L9.4686 11.6475C10.4718 11.2655 11.2227 11.7259 11.5338 11.9194L12.0619 11.0702ZM12.0639 11.0715L12.0619 11.0702L11.5338 11.9194L11.5359 11.9207L12.0639 11.0715ZM16.043 14.1593C16.3106 13.7369 16.3106 13.7369 16.3106 13.7369C16.3105 13.7369 16.3105 13.7368 16.3104 13.7368C16.3103 13.7367 16.3101 13.7366 16.3099 13.7364C16.3094 13.7361 16.3087 13.7357 16.3078 13.7351C16.3059 13.7339 16.303 13.7321 16.2993 13.7298C16.2919 13.725 16.2809 13.7181 16.2665 13.7089C16.2377 13.6907 16.1954 13.6639 16.1415 13.6298C16.0337 13.5616 15.8794 13.4639 15.6931 13.3461C15.3207 13.1105 14.8206 12.7945 14.3103 12.4728C13.3014 11.8367 12.2218 11.1587 12.0431 11.0592L11.5566 11.9329C11.7039 12.0149 12.7459 12.6686 13.777 13.3187C14.2868 13.6401 14.7864 13.9558 15.1586 14.1912C15.3447 14.3089 15.4989 14.4066 15.6066 14.4747C15.6605 14.5088 15.7027 14.5356 15.7314 14.5538C15.7458 14.5629 15.7568 14.5698 15.7642 14.5745C15.7679 14.5769 15.7707 14.5787 15.7726 14.5799C15.7735 14.5804 15.7743 14.5809 15.7747 14.5812C15.775 14.5813 15.7751 14.5815 15.7753 14.5815C15.7753 14.5816 15.7754 14.5816 15.7754 14.5816C15.7754 14.5816 15.7754 14.5816 16.043 14.1593ZM17.0688 14.8812C17.0184 14.5119 16.8112 14.2241 16.6591 14.0526C16.5786 13.9618 16.5012 13.8899 16.4435 13.8401C16.4144 13.8151 16.3896 13.795 16.371 13.7805C16.3617 13.7733 16.3539 13.7673 16.3478 13.7628C16.3448 13.7605 16.3422 13.7586 16.34 13.757C16.3389 13.7562 16.338 13.7555 16.3371 13.7549C16.3367 13.7546 16.3363 13.7543 16.336 13.7541C16.3358 13.7539 16.3356 13.7538 16.3354 13.7537C16.3353 13.7536 16.3352 13.7535 16.3352 13.7535C16.3351 13.7534 16.335 13.7533 16.043 14.1593C15.7511 14.5652 15.751 14.5651 15.7509 14.565C15.7508 14.565 15.7507 14.5649 15.7506 14.5649C15.7505 14.5648 15.7504 14.5647 15.7503 14.5646C15.75 14.5644 15.7498 14.5643 15.7496 14.5641C15.7492 14.5638 15.7489 14.5636 15.7487 14.5635C15.7483 14.5632 15.7484 14.5632 15.7488 14.5635C15.7496 14.5641 15.7519 14.5659 15.7556 14.5687C15.7628 14.5744 15.7751 14.5843 15.7909 14.5979C15.823 14.6255 15.8666 14.6661 15.911 14.7161C16.0086 14.8262 16.0666 14.9332 16.078 15.0164L17.0688 14.8812ZM14.1338 16.2303C14.6859 16.6373 15.1748 16.8633 15.6142 16.8964C16.0931 16.9325 16.4589 16.7351 16.6971 16.4336C16.914 16.159 17.0083 15.8226 17.0501 15.5608C17.0926 15.2952 17.0911 15.0409 17.0686 14.8796L16.0782 15.018C16.0855 15.07 16.0913 15.224 16.0627 15.403C16.0335 15.5858 15.9785 15.7301 15.9124 15.8137C15.8675 15.8705 15.8166 15.9088 15.6893 15.8992C15.5224 15.8867 15.2158 15.7856 14.7273 15.4255L14.1338 16.2303ZM12.8026 14.7389C12.7197 14.6914 12.6879 14.6391 12.6924 14.6485C12.6955 14.6548 12.7054 14.6767 12.7111 14.7125C12.7169 14.7481 12.7207 14.812 12.6952 14.8887C12.6288 15.0877 12.4572 15.1478 12.3895 15.157C12.3413 15.1636 12.3411 15.1502 12.4222 15.1752C12.4941 15.1973 12.6033 15.2414 12.757 15.3212C13.0641 15.4806 13.5101 15.7623 14.1305 16.2278L14.7306 15.428C14.0868 14.9448 13.5921 14.628 13.2178 14.4336C13.0307 14.3365 12.8641 14.265 12.7169 14.2196C12.5788 14.177 12.4163 14.1441 12.2546 14.1661C12.0733 14.1908 11.8369 14.3013 11.7465 14.5725C11.674 14.79 11.7439 14.9835 11.7911 15.0817C11.8944 15.2965 12.0921 15.4843 12.3053 15.6065L12.8026 14.7389ZM13.3473 15.0995C13.1291 14.9482 12.912 14.7964 12.7877 14.7307L12.3202 15.6147C12.3759 15.6442 12.5237 15.7453 12.7775 15.9213L13.3473 15.0995ZM15.4141 16.3165C15.1472 16.2302 14.7901 16.0407 14.4029 15.8021C14.0233 15.5682 13.6482 15.3082 13.3473 15.0995L12.7775 15.9213C13.0757 16.1281 13.4722 16.4032 13.8782 16.6534C14.2766 16.8989 14.7188 17.1427 15.1064 17.268L15.4141 16.3165Z" fill="#333333"/>
</svg>
