<svg width="24" height="24" viewBox="0 0 24 24" fill="none" xmlns="http://www.w3.org/2000/svg">
    <path
        d="M17.5 13.9998C18.5 14.5 19 16.0247 19 17.324C19 20.4587 16.5376 22.9999 13.5 22.9999C10.4624 22.9999 8 20.4587 8 17.324C8 15.7843 9 14 9.70833 13.5236"
        stroke="#000" />
    <path
        d="M3.20752 12H6C6 12 10.3037 14 12 14H19.1964C19.9675 14 20.5549 13.4325 20.5926 12.6842C20.6272 12 20.1663 11.5 20.1663 11.5M20.1663 11.5C20.1663 11.5 21.4304 11.4254 21.4304 10.1111C21.4304 9 20.8719 9 20.8719 9M20.1663 11.5H19.5M14.7284 4H19.1964C19.8133 4 20.3134 4.47128 20.3134 5.05263V6.5H20.8719C22.4565 6.5 22.2934 9 20.8719 9M20.8719 9H18.6379"
        stroke="#000" stroke-linejoin="round" />
    <path
        d="M5.83871 5.64712H2V12.0001H5.83871V5.64712ZM5.83871 5.64712L11.0468 2.75182C11.344 2.58657 11.6785 2.49986 12.0186 2.49986H17.9032L19 4"
        stroke="#000" stroke-linejoin="round" />
    <path d="M13.6154 4L12 1.5H14.7692L14.6923 1L19 1.5L17.3846 4H15.2308H13.6154Z" fill="white" />
    <path d="M15.2308 4H13.6154L12 1.5H14.7692M15.2308 4H17.3846L19 1.5L14.6923 1L14.7692 1.5M15.2308 4L14.7692 1.5"
        stroke="#000" stroke-linejoin="round" />
    <path d="M18 9H19" stroke="#000" stroke-linecap="round" />
    <path d="M18 11.5H19.5" stroke="#000" stroke-linecap="round" />
    <path d="M18 6.5L21 6.5" stroke="#000" stroke-linecap="round" />
    <path d="M12 18L13.5 16L15 18L13.5 20L12 18Z" stroke="#000" stroke-linejoin="round" />
</svg>