<svg width="24" height="24" viewBox="0 0 24 24" fill="none" xmlns="http://www.w3.org/2000/svg">
    <path
        d="M18.3071 8.39844C18.3071 9.77915 17.1878 10.8984 15.8071 10.8984C14.4264 10.8984 13.3071 9.77915 13.3071 8.39844C13.3071 7.01773 14.4264 5.89844 15.8071 5.89844C17.1878 5.89844 18.3071 7.01773 18.3071 8.39844Z"
        stroke="#333333" />
    <path
        d="M6.42179 13.8544C6.15957 13.8359 5.89114 13.9281 5.69068 14.131L5.02552 14.8041C4.65816 15.1759 4.65816 15.7787 5.02552 16.1505L8.35132 19.5163C8.71868 19.8881 9.31429 19.8881 9.68164 19.5163L10.3468 18.8432C10.5472 18.6404 10.6382 18.3689 10.6201 18.1037C12.6687 17.8757 14.576 17.1721 16.2317 16.1044C17.2018 16.8445 17.9441 17.9056 18.2829 19.1853C18.7775 21.0534 21.2388 16 19.1727 13.5192C21.1434 11.1894 22.3337 8.1634 22.3337 4.85604C22.3337 4.18528 22.2848 3.52609 22.1903 2.88193C22.1343 2.50039 21.8393 2.20184 21.4623 2.14519C20.8258 2.04955 20.1745 2 19.5117 2C16.2422 2 13.2509 3.20581 10.9484 5.20199C8.35132 3.5 3.51718 5.62485 5.38415 6.13113C6.63268 6.4697 7.67073 7.20645 8.40065 8.17021C7.34381 9.84697 6.64737 11.779 6.42179 13.8544Z"
        stroke="#333333" />
    <path d="M12.8071 11.8984L10.3071 14.3984" stroke="#333333" stroke-linecap="round" />
    <path d="M5.30713 19.3984L2.80713 21.8984" stroke="#333333" stroke-linecap="round" />
    <path d="M7.30713 21.3984L5.80713 22.8984" stroke="#333333" stroke-linecap="round" />
    <path d="M3.30713 17.3984L1.80713 18.8984" stroke="#333333" stroke-linecap="round" />
</svg>