<svg width="34" height="24" viewBox="0 0 34 24" fill="none" xmlns="http://www.w3.org/2000/svg">
<path fill-rule="evenodd" clip-rule="evenodd" d="M27.7514 2.38721L33.2507 0.0386889C33.4992 -0.066418 33.7858 0.0499973 33.8908 0.29871C33.9162 0.358931 33.9293 0.423645 33.9293 0.489023V23.4843C33.9293 23.7543 33.7106 23.9732 33.4408 23.9732C33.3668 23.9732 33.2938 23.9564 33.2272 23.924L27.714 21.1905C27.4197 21.0473 27.2329 20.7486 27.2329 20.4211V3.4036C27.2329 3.05978 27.435 2.52105 27.7514 2.38721ZM6.69662 3.42911V20.3066C6.69662 20.7905 6.47026 21.1647 6.10105 21.3383L0.70093 23.9509C0.634485 23.9832 0.561567 24.0001 0.487684 24.0001C0.218344 24.0001 0 23.7365 0 23.4081V0.62699C0 0.126789 0.346173 -0.0782497 0.594269 0.0268572C0.842365 0.131964 6.10105 2.44789 6.10105 2.44789C6.4905 2.61307 6.69662 2.9179 6.69662 3.42911ZM17.347 5.11601L22.7258 8.23914C22.9891 8.3923 23.215 8.66837 23.215 9.01348V15.2975C23.215 15.6023 23.0613 15.884 22.798 16.0372L17.4251 19.1914C17.1594 19.3459 16.8314 19.3459 16.5658 19.1914L11.1398 16.0372C10.8766 15.884 10.7146 15.6023 10.7146 15.2975V9.01495C10.7146 8.71021 10.8811 8.3923 11.1444 8.23914L16.5449 5.11601C16.8106 4.96145 17.0814 4.96145 17.347 5.11601Z" fill="#FEFFFF"/>
</svg>
