<svg width="1920" height="630" viewBox="0 0 1920 630" fill="none" xmlns="http://www.w3.org/2000/svg">
<rect width="1920" height="630" fill="#4B7CDD"/>
<path opacity="0.1" fill-rule="evenodd" clip-rule="evenodd" d="M1081.44 -3.0453e-05C1081.32 23.3544 1090.49 45.8001 1106.94 62.3992C1123.38 78.9984 1145.76 88.3912 1169.13 88.5115C1192.51 88.6318 1214.98 79.4697 1231.6 63.0406C1248.22 46.6116 1257.62 24.2615 1257.74 0.907065L1081.44 -3.0453e-05ZM1920 397.396V630H1609.13C1634.19 496.784 1751.09 396.001 1891.51 396.001C1901.13 396.001 1910.63 396.473 1920 397.396ZM37.4743 230.788C27.7651 240.637 14.5432 246.223 0.71721 246.318L0 142.002C13.826 141.907 27.1235 147.311 36.9672 157.025C46.8108 166.739 52.3944 179.968 52.4895 193.801C52.5846 207.635 47.1835 220.939 37.4743 230.788ZM719.869 452.123C719.869 461.027 712.655 468.245 703.756 468.245C694.856 468.245 687.642 461.027 687.642 452.123C687.642 443.219 694.856 436.001 703.756 436.001C712.655 436.001 719.869 443.219 719.869 452.123ZM1757.58 178.001C1772.21 178.001 1784.07 166.137 1784.07 151.501C1784.07 136.865 1772.21 125.001 1757.58 125.001C1742.96 125.001 1731.1 136.865 1731.1 151.501C1731.1 166.137 1742.96 178.001 1757.58 178.001Z" fill="white"/>
</svg>
