<svg width="80" height="80" viewBox="0 0 80 80" fill="none" xmlns="http://www.w3.org/2000/svg">
    <path fill-rule="evenodd" clip-rule="evenodd"
        d="M18.8177 61.4545C18.1613 59.9097 18.0152 58.0653 18.5255 56.0128C20.6854 47.3261 27.6254 39.6327 36.1923 38.1114C33.0816 35.7659 31.0707 32.0396 31.0707 27.8436C31.0707 20.9903 36.4351 15.39 43.1939 15.0125C40.8424 11.9918 37.1717 10.0488 33.0471 10.0488C25.9495 10.0488 20.1957 15.8026 20.1957 22.9002C20.1957 27.0962 22.2066 30.8225 25.3173 33.168C16.7504 34.6894 9.81042 42.3827 7.6505 51.0695C6.12963 57.1861 10.4388 61.4545 16.7095 61.4545H18.8177Z"
        fill="#D9D9D9" />
    <path
        d="M18.5255 56.0128L19.496 56.2541L18.5255 56.0128ZM18.8177 61.4545V62.4545C19.1533 62.4545 19.4665 62.2861 19.6517 62.0062C19.8368 61.7264 19.8693 61.3723 19.738 61.0634L18.8177 61.4545ZM36.1923 38.1114L36.3672 39.096C36.7589 39.0264 37.0721 38.7313 37.1648 38.3444C37.2575 37.9575 37.112 37.5524 36.7944 37.3129L36.1923 38.1114ZM43.1939 15.0125L43.2497 16.0109C43.6211 15.9902 43.9503 15.765 44.1042 15.4264C44.2582 15.0878 44.2115 14.6917 43.983 14.3982L43.1939 15.0125ZM25.3173 33.168L25.4922 34.1526C25.8839 34.083 26.1971 33.7879 26.2898 33.401C26.3825 33.0141 26.237 32.6091 25.9194 32.3696L25.3173 33.168ZM7.6505 51.0695L8.62095 51.3108L7.6505 51.0695ZM17.5551 55.7715C16.999 58.008 17.1459 60.0771 17.8973 61.8455L19.738 61.0634C19.1767 59.7422 19.0314 58.1226 19.496 56.2541L17.5551 55.7715ZM36.0175 37.1268C26.9815 38.7314 19.7888 46.7878 17.5551 55.7715L19.496 56.2541C21.582 47.8643 28.2694 40.534 36.3672 39.096L36.0175 37.1268ZM30.0707 27.8436C30.0707 32.3667 32.2398 36.3835 35.5903 38.9098L36.7944 37.3129C33.9235 35.1482 32.0707 31.7124 32.0707 27.8436H30.0707ZM43.1381 14.014C35.8525 14.421 30.0707 20.4567 30.0707 27.8436H32.0707C32.0707 21.524 37.0177 16.359 43.2497 16.0109L43.1381 14.014ZM43.983 14.3982C41.4502 11.1447 37.4932 9.04883 33.0471 9.04883V11.0488C36.8502 11.0488 40.2346 12.839 42.4048 15.6268L43.983 14.3982ZM33.0471 9.04883C25.3972 9.04883 19.1957 15.2503 19.1957 22.9002H21.1957C21.1957 16.3549 26.5018 11.0488 33.0471 11.0488V9.04883ZM19.1957 22.9002C19.1957 27.4233 21.3648 31.4402 24.7153 33.9665L25.9194 32.3696C23.0485 30.2049 21.1957 26.7691 21.1957 22.9002H19.1957ZM25.1425 32.1834C16.1065 33.7881 8.91379 41.8445 6.68005 50.8282L8.62095 51.3108C10.707 42.921 17.3944 35.5906 25.4922 34.1526L25.1425 32.1834ZM6.68005 50.8282C5.84755 54.1763 6.5998 57.1255 8.51942 59.2297C10.4186 61.3114 13.3561 62.4545 16.7095 62.4545V60.4545C13.7923 60.4545 11.4398 59.4633 9.99694 57.8817C8.57451 56.3226 7.93259 54.0793 8.62095 51.3108L6.68005 50.8282ZM16.7095 62.4545H18.8177V60.4545H16.7095V62.4545Z"
        fill="#000" />
    <path
        d="M51.7099 38.4684C54.919 36.1012 57.0006 32.2937 57.0006 28C57.0006 20.8203 51.1803 15 44.0006 15C36.8209 15 31.0006 20.8203 31.0006 28C31.0006 32.2445 33.0347 36.0139 36.1814 38.3865C27.5154 39.9254 20.4952 47.7077 18.3103 56.4949C16.7718 62.6823 21.1309 67 27.4741 67H55.5556H59.9628C66.3061 67 71.2557 62.6823 69.7173 56.4949C68.2545 50.6122 64.4127 45.1798 59.4027 41.7696C57.0536 40.1706 54.4478 39.0162 51.7099 38.4684Z"
        fill="white" stroke="#000" stroke-width="2" stroke-linejoin="round" />
    <path d="M50 28C50 32.1634 47.3137 35 44 35C40.6863 35 38 32.1634 38 28" stroke="#000" stroke-width="2"
        stroke-linecap="round" stroke-linejoin="round" />
    <path
        d="M51.5567 48.9038C51.2177 49.0586 51 49.3986 51 49.7733V58.8066C51 59.0512 51.0214 59.2969 51.0766 59.5351C52.7861 66.9165 62.5 71 62.5 71C62.5 71 72.2139 66.9165 73.9234 59.5351C73.9786 59.2969 74 59.0512 74 58.8066V49.7733C74 49.3986 73.7823 49.0586 73.4433 48.9038L62.8918 44.0853C62.6428 43.9716 62.3572 43.9716 62.1082 44.0853L51.5567 48.9038Z"
        fill="white" stroke="#000" stroke-width="2" />
    <path d="M58 57.25L61.5714 61L68 55" stroke="#000" stroke-width="2" stroke-linecap="round"
        stroke-linejoin="round" />
</svg>