<svg width="80" height="80" viewBox="0 0 80 80" fill="none" xmlns="http://www.w3.org/2000/svg">
    <rect x="14" y="10" width="46" height="57" rx="4" fill="white" stroke="#000" stroke-width="2" stroke-linecap="round"
        stroke-linejoin="round" />
    <path d="M24 50H50" stroke="#000" stroke-width="2" stroke-linecap="round" stroke-linejoin="round" />
    <path
        d="M41.2851 23.7839C42.4244 22.7177 44.2149 22.7421 45.3241 23.8389L48.1517 26.6349C49.2828 27.7534 49.2828 29.5668 48.1517 30.6853L37.9656 40.7576C37.0557 41.6574 35.9536 42.344 34.7402 42.7672L28.5236 44.9353C27.9281 45.143 27.2751 44.834 27.0651 44.2452C26.994 44.0459 26.9808 43.8308 27.0271 43.6244L28.2998 37.9492C28.6723 36.2886 29.5389 34.7764 30.7882 33.6073L41.2851 23.7839Z"
        fill="#D9D9D9" stroke="#000" stroke-width="2" />
    <path
        d="M43.5567 50.9038C43.2177 51.0586 43 51.3986 43 51.7733V60.8066C43 61.0512 43.0214 61.2969 43.0766 61.5351C44.7861 68.9165 54.5 73 54.5 73C54.5 73 64.2139 68.9165 65.9234 61.5351C65.9786 61.2969 66 61.0512 66 60.8066V51.7733C66 51.3986 65.7823 51.0586 65.4433 50.9038L54.8918 46.0853C54.6428 45.9716 54.3572 45.9716 54.1082 46.0853L43.5567 50.9038Z"
        fill="white" stroke="#000" stroke-width="2" />
    <path d="M50 59.25L53.5714 63L60 57" stroke="#000" stroke-width="2" stroke-linecap="round"
        stroke-linejoin="round" />
</svg>