<svg width="90" height="90" viewBox="0 0 90 90" fill="none" xmlns="http://www.w3.org/2000/svg">
<circle cx="45" cy="45" r="45" fill="#EEF2F8"/>
<path d="M29 58V59.5H29L29 58ZM40 58L41.2206 57.1281L40.7719 56.4999L40 56.5L40 58ZM44.1863 63.8607L45.4069 62.9889L45.4069 62.9889L44.1863 63.8607ZM45.8137 63.8607L47.0343 64.7326L45.8137 63.8607ZM50 58V56.5H49.228L48.7794 57.1281L50 58ZM26.5 30C26.5 28.6193 27.6193 27.5 29 27.5V24.5C25.9624 24.5 23.5 26.9624 23.5 30H26.5ZM26.5 54V30H23.5V54H26.5ZM29 56.5C27.6193 56.5 26.5 55.3807 26.5 54H23.5C23.5 57.0375 25.9624 59.5 29 59.5V56.5ZM40 56.5L29 56.5L29 59.5L40 59.5L40 56.5ZM45.4069 62.9889L41.2206 57.1281L38.7794 58.8718L42.9657 64.7326L45.4069 62.9889ZM44.5931 62.9889C44.7925 62.7097 45.2075 62.7097 45.4069 62.9889L42.9657 64.7326C43.9627 66.1285 46.0373 66.1285 47.0343 64.7326L44.5931 62.9889ZM48.7794 57.1281L44.5931 62.9889L47.0343 64.7326L51.2206 58.8718L48.7794 57.1281ZM61 56.5H50V59.5H61V56.5ZM63.5 54C63.5 55.3807 62.3807 56.5 61 56.5V59.5C64.0376 59.5 66.5 57.0375 66.5 54H63.5ZM63.5 30V54H66.5V30H63.5ZM61 27.5C62.3807 27.5 63.5 28.6193 63.5 30H66.5C66.5 26.9624 64.0376 24.5 61 24.5V27.5ZM29 27.5H61V24.5H29V27.5Z" fill="#C5CEDF"/>
<path d="M51 41C51 41 47.3681 41 47.0949 41C42.6533 41 38.758 43.3602 37 47" stroke="#C5CEDF" stroke-width="3" stroke-linecap="round" stroke-linejoin="round"/>
<path d="M48.8431 35.3431L54.5 40.9999L48.8431 46.6568" stroke="#C5CEDF" stroke-width="3" stroke-linecap="round" stroke-linejoin="round"/>
</svg>
